<?xml version="1.0" encoding="UTF-8" standalone="no"?>
<svg
   xmlns:dc="http://purl.org/dc/elements/1.1/"
   xmlns:cc="http://creativecommons.org/ns#"
   xmlns:rdf="http://www.w3.org/1999/02/22-rdf-syntax-ns#"
   xmlns:svg="http://www.w3.org/2000/svg"
   xmlns="http://www.w3.org/2000/svg"
   xmlns:sodipodi="http://sodipodi.sourceforge.net/DTD/sodipodi-0.dtd"
   xmlns:inkscape="http://www.inkscape.org/namespaces/inkscape"
   inkscape:version="1.0beta2 (2b71d25, 2019-12-03)"
   sodipodi:docname="achtergrondpatroon_v2.svg"
   id="svg839"
   version="1.1"
   viewBox="0 0 210 297"
   height="297mm"
   width="210mm">
  <defs
     id="defs833" />
  <sodipodi:namedview
     inkscape:snap-page="true"
     inkscape:window-maximized="0"
     inkscape:window-y="23"
     inkscape:window-x="0"
     inkscape:window-height="790"
     inkscape:window-width="1440"
     inkscape:snap-global="true"
     showgrid="false"
     inkscape:document-rotation="0"
     inkscape:current-layer="layer1"
     inkscape:document-units="mm"
     inkscape:cy="501.90178"
     inkscape:cx="35.935002"
     inkscape:zoom="0.41211892"
     inkscape:pageshadow="2"
     inkscape:pageopacity="0.0"
     borderopacity="1.0"
     bordercolor="#666666"
     pagecolor="#ffffff"
     id="base" />
  <metadata
     id="metadata836">
    <rdf:RDF>
      <cc:Work
         rdf:about="">
        <dc:format>image/svg+xml</dc:format>
        <dc:type
           rdf:resource="http://purl.org/dc/dcmitype/StillImage" />
        <dc:title></dc:title>
      </cc:Work>
    </rdf:RDF>
  </metadata>
  <g
     id="layer1"
     inkscape:groupmode="layer"
     inkscape:label="Laag 1">
    <g
       style="fill:#e6e6e6;stroke:#f9f9f9;stroke-opacity:0.99593496;opacity:0.37942122"
       transform="matrix(0.37420039,0,0,0.34892196,217.07467,64.863398)"
       id="g1437">
      <ellipse
         style="opacity:1;fill:#e6e6e6;fill-opacity:0;fill-rule:evenodd;stroke:#f9f9f9;stroke-width:0.665;stroke-miterlimit:4;stroke-dasharray:none;stroke-opacity:0.99593496"
         id="path1410"
         cx="-191.78087"
         cy="92.499672"
         rx="20.887024"
         ry="61.576031" />
      <ellipse
         ry="61.576031"
         rx="20.887024"
         cy="194.02879"
         cx="-87.686493"
         id="ellipse1412"
         style="opacity:1;fill:#e6e6e6;fill-opacity:0;fill-rule:evenodd;stroke:#f9f9f9;stroke-width:0.665;stroke-miterlimit:4;stroke-dasharray:none;stroke-opacity:0.99593496"
         transform="rotate(39.931668)" />
      <ellipse
         transform="rotate(113.60116)"
         style="opacity:1;fill:#e6e6e6;fill-opacity:0;fill-rule:evenodd;stroke:#f9f9f9;stroke-width:0.665;stroke-miterlimit:4;stroke-dasharray:none;stroke-opacity:0.99593496"
         id="ellipse1414"
         cx="161.54535"
         cy="138.70543"
         rx="20.887024"
         ry="61.576031" />
      <ellipse
         style="opacity:1;fill:#e6e6e6;fill-opacity:1;fill-rule:evenodd;stroke:#f9f9f9;stroke-width:0.665001;stroke-miterlimit:4;stroke-dasharray:none;stroke-opacity:0.99593496"
         id="path1416"
         cx="-143.49657"
         cy="98.196136"
         rx="6.7815013"
         ry="6.510241" />
      <ellipse
         ry="6.510241"
         rx="6.7815013"
         cy="47.199245"
         cx="-206.42889"
         id="ellipse1427"
         style="opacity:1;fill:#e6e6e6;fill-opacity:1;fill-rule:evenodd;stroke:#f9f9f9;stroke-width:0.665001;stroke-miterlimit:4;stroke-dasharray:none;stroke-opacity:0.99593496" />
      <ellipse
         style="opacity:1;fill:#e6e6e6;fill-opacity:1;fill-rule:evenodd;stroke:#f9f9f9;stroke-width:0.665001;stroke-miterlimit:4;stroke-dasharray:none;stroke-opacity:0.99593496"
         id="ellipse1429"
         cx="-215.65173"
         cy="137.80011"
         rx="6.7815013"
         ry="6.510241" />
    </g>
    <path
       inkscape:transform-center-y="3.8517363"
       inkscape:transform-center-x="1.92605"
       inkscape:connector-curvature="0"
       d="m 128.62057,20.136841 c -1.61793,-1.108766 -3.64674,-0.94118 -4.54904,0.375457 -0.89935,1.312353 -0.32928,3.255662 1.27661,4.366283 l -7.31969,10.681006 a 14.56568,14.245556 34.422818 0 0 -16.76987,5.21656 14.56568,14.245556 34.422818 0 0 3.96216,19.98497 14.56568,14.245556 34.422818 0 0 20.0681,-3.51705 14.56568,14.245556 34.422818 0 0 0.0395,-15.91413 l 7.67719,-11.20268 0.51262,0.3513 c 1.61793,1.10877 3.64657,0.94144 4.54886,-0.3752 0.90229,-1.31664 0.32642,-3.26921 -1.29151,-4.377979 z"
       style="opacity:0.37942122;fill:#e6e6e6;fill-opacity:0;fill-rule:evenodd;stroke:#f9f9f9;stroke-width:0.392397;stroke-miterlimit:4;stroke-dasharray:none;stroke-opacity:0.99593496"
       id="path1441" />
    <g
       style="fill:#e6e6e6;stroke:#f9f9f9;stroke-width:0.840539;stroke-miterlimit:4;stroke-dasharray:none;stroke-opacity:0.99593496;opacity:0.37942122"
       transform="matrix(0.3989155,-0.21757618,0.21757618,0.3989155,223.38989,-75.339581)"
       id="g10323">
      <path
         id="rect10295"
         style="opacity:1;fill:#e6e6e6;fill-opacity:0;fill-rule:evenodd;stroke:#f9f9f9;stroke-width:0.840539;stroke-miterlimit:4;stroke-dasharray:none;stroke-opacity:0.99593496"
         d="m -214.75142,129.68552 a 36.273406,38.841439 0 0 0 -36.27323,38.84155 36.273406,38.841439 0 0 0 31.32522,38.47776 v 58.59952 h 14.58412 v -59.63202 a 36.273406,38.841439 0 0 0 26.63713,-37.44526 36.273406,38.841439 0 0 0 -36.27324,-38.84155 z"
         inkscape:connector-curvature="0" />
      <ellipse
         style="opacity:1;fill:#e6e6e6;fill-opacity:0;fill-rule:evenodd;stroke:#f9f9f9;stroke-width:0.840539;stroke-miterlimit:4;stroke-dasharray:none;stroke-opacity:0.99593496"
         id="path10316"
         cx="-215.07243"
         cy="168.20589"
         rx="23.749109"
         ry="24.391115" />
      <path
         style="opacity:1;fill:#e6e6e6;fill-opacity:0;fill-rule:evenodd;stroke:#f9f9f9;stroke-width:0.840539;stroke-miterlimit:4;stroke-dasharray:none;stroke-opacity:0.99593496"
         id="path10318"
         sodipodi:type="arc"
         sodipodi:cx="-216.99846"
         sodipodi:cy="166.27988"
         sodipodi:rx="12.198138"
         sodipodi:ry="12.198138"
         sodipodi:start="2.8970891"
         sodipodi:end="4.6798952"
         sodipodi:arc-type="arc"
         d="m -228.8338,169.23274 a 12.198138,12.198138 0 0 1 2.10176,-10.30487 12.198138,12.198138 0 0 1 9.33729,-4.83969"
         sodipodi:open="true" />
    </g>
    <path
       id="path10325"
       style="opacity:0.37942122;fill:#e6e6e6;fill-opacity:0;fill-rule:evenodd;stroke:#f9f9f9;stroke-width:0.392397;stroke-miterlimit:4;stroke-dasharray:none;stroke-opacity:0.99593496"
       d="m 8.9806956,88.833343 c -1.142154,1.59453 -1.016771,3.62639 0.280828,4.55586 1.2933774,0.92643 3.2481154,0.39687 4.3918734,-1.18559 l 10.526564,7.54011 a 14.245556,14.56568 35.613753 0 0 4.866885,16.874657 14.245556,14.56568 35.613753 0 0 20.063003,-3.54593 14.245556,14.56568 35.613753 0 0 -3.09919,-20.136857 14.245556,14.56568 35.613753 0 0 -15.909871,-0.37025 l -11.040696,-7.908371 0.361879,-0.505208 c 1.142158,-1.594536 1.017027,-3.626215 -0.280575,-4.555676 -1.297602,-0.92946 -3.261719,-0.394297 -4.403876,1.200238 z"
       inkscape:connector-curvature="0"
       inkscape:transform-center-x="-3.8393703"
       inkscape:transform-center-y="1.9512366" />
    <g
       id="g10339"
       transform="matrix(0.37420039,0,0,0.34892196,119.48957,4.5147165)"
       style="fill:#e6e6e6;stroke:#f9f9f9;stroke-opacity:0.99593496;opacity:0.37942122">
      <ellipse
         ry="61.576031"
         rx="20.887024"
         cy="92.499672"
         cx="-191.78087"
         id="ellipse10327"
         style="opacity:1;fill:#e6e6e6;fill-opacity:0;fill-rule:evenodd;stroke:#f9f9f9;stroke-width:0.665;stroke-miterlimit:4;stroke-dasharray:none;stroke-opacity:0.99593496" />
      <ellipse
         transform="rotate(39.931668)"
         style="opacity:1;fill:#e6e6e6;fill-opacity:0;fill-rule:evenodd;stroke:#f9f9f9;stroke-width:0.665;stroke-miterlimit:4;stroke-dasharray:none;stroke-opacity:0.99593496"
         id="ellipse10329"
         cx="-87.686493"
         cy="194.02879"
         rx="20.887024"
         ry="61.576031" />
      <ellipse
         ry="61.576031"
         rx="20.887024"
         cy="138.70543"
         cx="161.54535"
         id="ellipse10331"
         style="opacity:1;fill:#e6e6e6;fill-opacity:0;fill-rule:evenodd;stroke:#f9f9f9;stroke-width:0.665;stroke-miterlimit:4;stroke-dasharray:none;stroke-opacity:0.99593496"
         transform="rotate(113.60116)" />
      <ellipse
         ry="6.510241"
         rx="6.7815013"
         cy="98.196136"
         cx="-143.49657"
         id="ellipse10333"
         style="opacity:1;fill:#e6e6e6;fill-opacity:1;fill-rule:evenodd;stroke:#f9f9f9;stroke-width:0.665001;stroke-miterlimit:4;stroke-dasharray:none;stroke-opacity:0.99593496" />
      <ellipse
         style="opacity:1;fill:#e6e6e6;fill-opacity:1;fill-rule:evenodd;stroke:#f9f9f9;stroke-width:0.665001;stroke-miterlimit:4;stroke-dasharray:none;stroke-opacity:0.99593496"
         id="ellipse10335"
         cx="-206.42889"
         cy="47.199245"
         rx="6.7815013"
         ry="6.510241" />
      <ellipse
         ry="6.510241"
         rx="6.7815013"
         cy="137.80011"
         cx="-215.65173"
         id="ellipse10337"
         style="opacity:1;fill:#e6e6e6;fill-opacity:1;fill-rule:evenodd;stroke:#f9f9f9;stroke-width:0.665001;stroke-miterlimit:4;stroke-dasharray:none;stroke-opacity:0.99593496" />
    </g>
    <g
       id="g10347"
       transform="matrix(0.43078699,0.14455289,-0.14455289,0.43078699,201.31686,74.018857)"
       style="fill:#e6e6e6;stroke:#f9f9f9;stroke-width:0.840539;stroke-miterlimit:4;stroke-dasharray:none;stroke-opacity:0.99593496;opacity:0.37942122">
      <path
         inkscape:connector-curvature="0"
         d="m -214.75142,129.68552 a 36.273406,38.841439 0 0 0 -36.27323,38.84155 36.273406,38.841439 0 0 0 31.32522,38.47776 v 58.59952 h 14.58412 v -59.63202 a 36.273406,38.841439 0 0 0 26.63713,-37.44526 36.273406,38.841439 0 0 0 -36.27324,-38.84155 z"
         style="opacity:1;fill:#e6e6e6;fill-opacity:0;fill-rule:evenodd;stroke:#f9f9f9;stroke-width:0.840539;stroke-miterlimit:4;stroke-dasharray:none;stroke-opacity:0.99593496"
         id="path10341" />
      <ellipse
         ry="24.391115"
         rx="23.749109"
         cy="168.20589"
         cx="-215.07243"
         id="ellipse10343"
         style="opacity:1;fill:#e6e6e6;fill-opacity:0;fill-rule:evenodd;stroke:#f9f9f9;stroke-width:0.840539;stroke-miterlimit:4;stroke-dasharray:none;stroke-opacity:0.99593496" />
      <path
         sodipodi:open="true"
         d="m -228.8338,169.23274 a 12.198138,12.198138 0 0 1 2.10176,-10.30487 12.198138,12.198138 0 0 1 9.33729,-4.83969"
         sodipodi:arc-type="arc"
         sodipodi:end="4.6798952"
         sodipodi:start="2.8970891"
         sodipodi:ry="12.198138"
         sodipodi:rx="12.198138"
         sodipodi:cy="166.27988"
         sodipodi:cx="-216.99846"
         sodipodi:type="arc"
         id="path10345"
         style="opacity:1;fill:#e6e6e6;fill-opacity:0;fill-rule:evenodd;stroke:#f9f9f9;stroke-width:0.840539;stroke-miterlimit:4;stroke-dasharray:none;stroke-opacity:0.99593496" />
    </g>
    <g
       id="g10361"
       transform="matrix(0.35229328,0.12615616,-0.11763391,0.32849475,122.31725,176.97622)"
       style="fill:#e6e6e6;stroke:#f9f9f9;stroke-opacity:0.99593496;opacity:0.37942122">
      <ellipse
         ry="61.576031"
         rx="20.887024"
         cy="92.499672"
         cx="-191.78087"
         id="ellipse10349"
         style="opacity:1;fill:#e6e6e6;fill-opacity:0;fill-rule:evenodd;stroke:#f9f9f9;stroke-width:0.665;stroke-miterlimit:4;stroke-dasharray:none;stroke-opacity:0.99593496" />
      <ellipse
         transform="rotate(39.931668)"
         style="opacity:1;fill:#e6e6e6;fill-opacity:0;fill-rule:evenodd;stroke:#f9f9f9;stroke-width:0.665;stroke-miterlimit:4;stroke-dasharray:none;stroke-opacity:0.99593496"
         id="ellipse10351"
         cx="-87.686493"
         cy="194.02879"
         rx="20.887024"
         ry="61.576031" />
      <ellipse
         ry="61.576031"
         rx="20.887024"
         cy="138.70543"
         cx="161.54535"
         id="ellipse10353"
         style="opacity:1;fill:#e6e6e6;fill-opacity:0;fill-rule:evenodd;stroke:#f9f9f9;stroke-width:0.665;stroke-miterlimit:4;stroke-dasharray:none;stroke-opacity:0.99593496"
         transform="rotate(113.60116)" />
      <ellipse
         ry="6.510241"
         rx="6.7815013"
         cy="98.196136"
         cx="-143.49657"
         id="ellipse10355"
         style="opacity:1;fill:#e6e6e6;fill-opacity:1;fill-rule:evenodd;stroke:#f9f9f9;stroke-width:0.665001;stroke-miterlimit:4;stroke-dasharray:none;stroke-opacity:0.99593496" />
      <ellipse
         style="opacity:1;fill:#e6e6e6;fill-opacity:1;fill-rule:evenodd;stroke:#f9f9f9;stroke-width:0.665001;stroke-miterlimit:4;stroke-dasharray:none;stroke-opacity:0.99593496"
         id="ellipse10357"
         cx="-206.42889"
         cy="47.199245"
         rx="6.7815013"
         ry="6.510241" />
      <ellipse
         ry="6.510241"
         rx="6.7815013"
         cy="137.80011"
         cx="-215.65173"
         id="ellipse10359"
         style="opacity:1;fill:#e6e6e6;fill-opacity:1;fill-rule:evenodd;stroke:#f9f9f9;stroke-width:0.665001;stroke-miterlimit:4;stroke-dasharray:none;stroke-opacity:0.99593496" />
    </g>
    <path
       inkscape:transform-center-y="-1.890212"
       inkscape:transform-center-x="3.8723848"
       inkscape:connector-curvature="0"
       d="m 131.15851,188.17486 c 1.05599,-1.65286 0.82303,-3.67521 -0.52203,-4.53456 -1.34068,-0.85654 -3.26459,-0.22407 -4.32282,1.41682 l -10.9116,-6.97129 a 14.245556,14.56568 32.573998 0 0 -5.75488,-16.59283 14.245556,14.56568 32.573998 0 0 -19.846746,4.60486 14.245556,14.56568 32.573998 0 0 4.162674,19.94417 14.245556,14.56568 32.573998 0 0 15.907122,-0.47395 l 11.44453,7.31178 -0.33458,0.52368 c -1.05599,1.65286 -0.8233,3.67505 0.52176,4.53439 1.34506,0.85934 3.27804,0.22078 4.33404,-1.43208 z"
       style="opacity:0.37942122;fill:#e6e6e6;fill-opacity:0;fill-rule:evenodd;stroke:#f9f9f9;stroke-width:0.392397;stroke-miterlimit:4;stroke-dasharray:none;stroke-opacity:0.99593496"
       id="path10363" />
    <g
       style="fill:#e6e6e6;stroke:#f9f9f9;stroke-width:0.840539;stroke-miterlimit:4;stroke-dasharray:none;stroke-opacity:0.99593496;opacity:0.37942122"
       transform="matrix(-0.34410539,0.29675655,-0.29675655,-0.34410539,86.387728,374.84779)"
       id="g10371">
      <path
         id="path10365"
         style="opacity:1;fill:#e6e6e6;fill-opacity:0;fill-rule:evenodd;stroke:#f9f9f9;stroke-width:0.840539;stroke-miterlimit:4;stroke-dasharray:none;stroke-opacity:0.99593496"
         d="m -214.75142,129.68552 a 36.273406,38.841439 0 0 0 -36.27323,38.84155 36.273406,38.841439 0 0 0 31.32522,38.47776 v 58.59952 h 14.58412 v -59.63202 a 36.273406,38.841439 0 0 0 26.63713,-37.44526 36.273406,38.841439 0 0 0 -36.27324,-38.84155 z"
         inkscape:connector-curvature="0" />
      <ellipse
         style="opacity:1;fill:#e6e6e6;fill-opacity:0;fill-rule:evenodd;stroke:#f9f9f9;stroke-width:0.840539;stroke-miterlimit:4;stroke-dasharray:none;stroke-opacity:0.99593496"
         id="ellipse10367"
         cx="-215.07243"
         cy="168.20589"
         rx="23.749109"
         ry="24.391115" />
      <path
         style="opacity:1;fill:#e6e6e6;fill-opacity:0;fill-rule:evenodd;stroke:#f9f9f9;stroke-width:0.840539;stroke-miterlimit:4;stroke-dasharray:none;stroke-opacity:0.99593496"
         id="path10369"
         sodipodi:type="arc"
         sodipodi:cx="-216.99846"
         sodipodi:cy="166.27988"
         sodipodi:rx="12.198138"
         sodipodi:ry="12.198138"
         sodipodi:start="2.8970891"
         sodipodi:end="4.6798952"
         sodipodi:arc-type="arc"
         d="m -228.8338,169.23274 a 12.198138,12.198138 0 0 1 2.10176,-10.30487 12.198138,12.198138 0 0 1 9.33729,-4.83969"
         sodipodi:open="true" />
    </g>
    <g
       style="fill:#e6e6e6;stroke:#f9f9f9;stroke-opacity:0.99593496;opacity:0.37942122"
       transform="matrix(0.14328139,0.34568248,-0.32233053,0.13360228,230.21059,262.78495)"
       id="g10385">
      <ellipse
         style="opacity:1;fill:#e6e6e6;fill-opacity:0;fill-rule:evenodd;stroke:#f9f9f9;stroke-width:0.665;stroke-miterlimit:4;stroke-dasharray:none;stroke-opacity:0.99593496"
         id="ellipse10373"
         cx="-191.78087"
         cy="92.499672"
         rx="20.887024"
         ry="61.576031" />
      <ellipse
         ry="61.576031"
         rx="20.887024"
         cy="194.02879"
         cx="-87.686493"
         id="ellipse10375"
         style="opacity:1;fill:#e6e6e6;fill-opacity:0;fill-rule:evenodd;stroke:#f9f9f9;stroke-width:0.665;stroke-miterlimit:4;stroke-dasharray:none;stroke-opacity:0.99593496"
         transform="rotate(39.931668)" />
      <ellipse
         transform="rotate(113.60116)"
         style="opacity:1;fill:#e6e6e6;fill-opacity:0;fill-rule:evenodd;stroke:#f9f9f9;stroke-width:0.665;stroke-miterlimit:4;stroke-dasharray:none;stroke-opacity:0.99593496"
         id="ellipse10377"
         cx="161.54535"
         cy="138.70543"
         rx="20.887024"
         ry="61.576031" />
      <ellipse
         style="opacity:1;fill:#e6e6e6;fill-opacity:1;fill-rule:evenodd;stroke:#f9f9f9;stroke-width:0.665001;stroke-miterlimit:4;stroke-dasharray:none;stroke-opacity:0.99593496"
         id="ellipse10379"
         cx="-143.49657"
         cy="98.196136"
         rx="6.7815013"
         ry="6.510241" />
      <ellipse
         ry="6.510241"
         rx="6.7815013"
         cy="47.199245"
         cx="-206.42889"
         id="ellipse10381"
         style="opacity:1;fill:#e6e6e6;fill-opacity:1;fill-rule:evenodd;stroke:#f9f9f9;stroke-width:0.665001;stroke-miterlimit:4;stroke-dasharray:none;stroke-opacity:0.99593496" />
      <ellipse
         style="opacity:1;fill:#e6e6e6;fill-opacity:1;fill-rule:evenodd;stroke:#f9f9f9;stroke-width:0.665001;stroke-miterlimit:4;stroke-dasharray:none;stroke-opacity:0.99593496"
         id="ellipse10383"
         cx="-215.65173"
         cy="137.80011"
         rx="6.7815013"
         ry="6.510241" />
    </g>
    <path
       id="path10387"
       style="opacity:0.37942122;fill:#e6e6e6;fill-opacity:0;fill-rule:evenodd;stroke:#f9f9f9;stroke-width:0.392397;stroke-miterlimit:4;stroke-dasharray:none;stroke-opacity:0.99593496"
       d="m 33.612906,272.27408 c 1.578622,1.16405 3.612017,1.06671 4.559304,-0.21794 0.944191,-1.28046 0.441662,-3.24232 -1.124867,-4.40781 l 7.684669,-10.4215 a 14.56568,14.245556 36.404514 0 0 16.940219,-4.63354 14.56568,14.245556 36.404514 0 0 -3.268705,-20.11004 14.56568,14.245556 36.404514 0 0 -20.177704,2.821 14.56568,14.245556 36.404514 0 0 -0.589789,15.90325 l -8.060002,10.9305 -0.500158,-0.36882 c -1.578622,-1.16405 -3.611839,-1.06697 -4.559117,0.21767 -0.947277,1.28465 -0.439277,3.25597 1.139344,4.42003 z"
       inkscape:connector-curvature="0"
       inkscape:transform-center-x="-1.9688644"
       inkscape:transform-center-y="-3.8315707" />
    <g
       id="g10395"
       transform="matrix(-0.23969861,-0.38602791,0.38602791,-0.23969861,35.230405,117.33783)"
       style="fill:#e6e6e6;stroke:#f9f9f9;stroke-width:0.840539;stroke-miterlimit:4;stroke-dasharray:none;stroke-opacity:0.99593496;opacity:0.37942122">
      <path
         inkscape:connector-curvature="0"
         d="m -214.75142,129.68552 a 36.273406,38.841439 0 0 0 -36.27323,38.84155 36.273406,38.841439 0 0 0 31.32522,38.47776 v 58.59952 h 14.58412 v -59.63202 a 36.273406,38.841439 0 0 0 26.63713,-37.44526 36.273406,38.841439 0 0 0 -36.27324,-38.84155 z"
         style="opacity:1;fill:#e6e6e6;fill-opacity:0;fill-rule:evenodd;stroke:#f9f9f9;stroke-width:0.840539;stroke-miterlimit:4;stroke-dasharray:none;stroke-opacity:0.99593496"
         id="path10389" />
      <ellipse
         ry="24.391115"
         rx="23.749109"
         cy="168.20589"
         cx="-215.07243"
         id="ellipse10391"
         style="opacity:1;fill:#e6e6e6;fill-opacity:0;fill-rule:evenodd;stroke:#f9f9f9;stroke-width:0.840539;stroke-miterlimit:4;stroke-dasharray:none;stroke-opacity:0.99593496" />
      <path
         sodipodi:open="true"
         d="m -228.8338,169.23274 a 12.198138,12.198138 0 0 1 2.10176,-10.30487 12.198138,12.198138 0 0 1 9.33729,-4.83969"
         sodipodi:arc-type="arc"
         sodipodi:end="4.6798952"
         sodipodi:start="2.8970891"
         sodipodi:ry="12.198138"
         sodipodi:rx="12.198138"
         sodipodi:cy="166.27988"
         sodipodi:cx="-216.99846"
         sodipodi:type="arc"
         id="path10393"
         style="opacity:1;fill:#e6e6e6;fill-opacity:0;fill-rule:evenodd;stroke:#f9f9f9;stroke-width:0.840539;stroke-miterlimit:4;stroke-dasharray:none;stroke-opacity:0.99593496" />
    </g>
  </g>
</svg>
