<?xml version="1.0" encoding="UTF-8" standalone="no"?>
<svg
   xmlns:dc="http://purl.org/dc/elements/1.1/"
   xmlns:cc="http://creativecommons.org/ns#"
   xmlns:rdf="http://www.w3.org/1999/02/22-rdf-syntax-ns#"
   xmlns:svg="http://www.w3.org/2000/svg"
   xmlns="http://www.w3.org/2000/svg"
   xmlns:sodipodi="http://sodipodi.sourceforge.net/DTD/sodipodi-0.dtd"
   xmlns:inkscape="http://www.inkscape.org/namespaces/inkscape"
   sodipodi:docname="background_image_nature.svg"
   inkscape:version="1.0beta2 (2b71d25, 2019-12-03)"
   id="svg8"
   version="1.1"
   viewBox="0 0 210 297"
   height="297mm"
   width="210mm">
  <defs
     id="defs2" />
  <sodipodi:namedview
     inkscape:window-maximized="0"
     inkscape:window-y="23"
     inkscape:window-x="0"
     inkscape:window-height="790"
     inkscape:window-width="1440"
     inkscape:snap-global="true"
     inkscape:snap-page="true"
     showgrid="false"
     inkscape:document-rotation="0"
     inkscape:current-layer="layer1"
     inkscape:document-units="mm"
     inkscape:cy="560"
     inkscape:cx="400"
     inkscape:zoom="0.35"
     inkscape:pageshadow="2"
     inkscape:pageopacity="0.0"
     borderopacity="1.0"
     bordercolor="#666666"
     pagecolor="#ffffff"
     id="base" />
  <metadata
     id="metadata5">
    <rdf:RDF>
      <cc:Work
         rdf:about="">
        <dc:format>image/svg+xml</dc:format>
        <dc:type
           rdf:resource="http://purl.org/dc/dcmitype/StillImage" />
        <dc:title></dc:title>
      </cc:Work>
    </rdf:RDF>
  </metadata>
  <g
     id="layer1"
     inkscape:groupmode="layer"
     inkscape:label="Laag 1">
    <path
       inkscape:connector-curvature="0"
       d="m 129.67432,50.893849 c 1.59769,1.244766 4.03726,2.055691 6.81818,2.055691 h 49.76389 c 4.83967,0 8.7359,-2.409601 8.7359,-5.402774 0,-2.99317 -3.89623,-5.40277 -8.7359,-5.40277 H 136.4925 c -2.78092,0 -5.22049,0.81144 -6.81818,2.056207 z"
       style="fill:#c3e6ff;fill-opacity:1;fill-rule:evenodd;stroke:#ffffff;stroke-width:0;stroke-linecap:round;stroke-linejoin:round;stroke-opacity:0.995935"
       id="rect872" />
    <rect
       style="fill:#c3e6ff;fill-opacity:1;fill-rule:evenodd;stroke:#ffffff;stroke-width:0;stroke-linecap:round;stroke-linejoin:round;stroke-opacity:0.995935"
       id="rect874"
       width="67.235291"
       height="10.805672"
       x="142.76471"
       y="32.539001"
       rx="8.7358608"
       ry="8.8754368" />
    <path
       transform="scale(0.26458333)"
       d="M 0 938.00195 L 0 1122.5195 L 793.70117 1122.5195 A 637.96286 400.88474 0.16164487 0 0 229.38477 910.91211 A 637.96286 400.88474 0.16164487 0 0 228.61133 910.91211 A 637.96286 400.88474 0.16164487 0 0 0 938.00195 z "
       style="fill:#28976c;fill-opacity:1;fill-rule:evenodd;stroke:#ffffff;stroke-width:0;stroke-linecap:round;stroke-linejoin:round;stroke-opacity:0.995935"
       id="path841" />
    <rect
       y="195.79167"
       x="31.749998"
       height="62.744045"
       width="11.339286"
       id="rect852"
       style="fill:#002afa;fill-opacity:1;fill-rule:evenodd;stroke:#ffffff;stroke-width:0;stroke-linecap:round;stroke-linejoin:round;stroke-opacity:0.995935" />
    <path
       transform="scale(0.26458333)"
       d="M 0 790.66406 C 95.255932 799.20019 310.46133 799.70439 316.16797 787.30078 C 323.42249 771.53277 153.84619 387.80755 139.56641 387.83008 C 130.21484 387.84399 51.590577 549.0214 0 665.47852 L 0 790.66406 z "
       inkscape:transform-center-y="-17.258732"
       inkscape:transform-center-x="0.25100026"
       style="fill:#00d897;fill-opacity:1;fill-rule:evenodd;stroke:#ffffff;stroke-width:0;stroke-linecap:round;stroke-linejoin:round;stroke-opacity:0.995935"
       id="path854" />
    <path
       sodipodi:nodetypes="sssssss"
       inkscape:connector-curvature="0"
       d="m 63.049966,78.950167 c -5.482905,-7.342472 -10.74865,-5.005703 -15.960271,-0.256193 -1.245953,1.135472 -2.541528,-1.251555 -2.517392,-2.755114 0.02415,-1.503558 1.28296,-1.798587 2.604521,-2.672896 4.799972,-3.175528 9.504973,-6.946463 15.960271,0.256192 1.16063,1.295001 2.541529,1.251555 2.517392,2.755113 -0.02415,1.503557 -1.518569,4.12716 -2.604521,2.672898 z"
       style="fill:#a9e7f9;fill-opacity:1;fill-rule:evenodd;stroke:#ffffff;stroke-width:0;stroke-linecap:round;stroke-linejoin:round;stroke-opacity:0.995935"
       id="rect863" />
    <path
       id="path866"
       style="fill:#a9e7f9;fill-opacity:1;fill-rule:evenodd;stroke:#ffffff;stroke-width:0;stroke-linecap:round;stroke-linejoin:round;stroke-opacity:0.995935"
       d="m 29.667509,78.128559 c 5.715735,-7.162715 10.903773,-4.658142 15.960272,0.256193 1.208866,1.174875 2.580384,-1.169341 2.604521,-2.6729 0.02415,-1.503558 -1.224578,-1.838837 -2.517398,-2.755113 -4.695573,-3.327948 -9.277119,-7.247949 -15.960265,-0.256192 -1.201597,1.257083 -2.580391,1.169338 -2.604527,2.672896 -0.02415,1.503559 1.385326,4.173769 2.517397,2.755116 z"
       inkscape:connector-curvature="0"
       sodipodi:nodetypes="sssssss" />
    <path
       id="path868"
       style="fill:#a9e7f9;fill-opacity:1;fill-rule:evenodd;stroke:#ffffff;stroke-width:0;stroke-linecap:round;stroke-linejoin:round;stroke-opacity:0.995935"
       d="m 98.579728,102.38469 c -5.482905,-7.342471 -10.74865,-5.005702 -15.960271,-0.25619 -1.245953,1.13547 -2.541528,-1.25156 -2.517392,-2.755116 0.02415,-1.503558 1.28296,-1.798587 2.604521,-2.672896 4.799972,-3.175528 9.504973,-6.946463 15.960271,0.256192 1.16063,1.295001 2.541533,1.251555 2.517393,2.755113 -0.0242,1.503557 -1.51857,4.127157 -2.604522,2.672897 z"
       inkscape:connector-curvature="0"
       sodipodi:nodetypes="sssssss" />
    <path
       sodipodi:nodetypes="sssssss"
       inkscape:connector-curvature="0"
       d="m 65.197271,101.56308 c 5.715735,-7.162712 10.903773,-4.658139 15.960272,0.2562 1.208866,1.17487 2.580384,-1.16935 2.604521,-2.672904 0.02415,-1.503558 -1.224578,-1.838837 -2.517398,-2.755113 -4.695573,-3.327948 -9.277119,-7.247949 -15.960265,-0.256192 -1.201597,1.257083 -2.580391,1.169338 -2.604527,2.672896 -0.02415,1.503563 1.385326,4.173773 2.517397,2.755113 z"
       style="fill:#a9e7f9;fill-opacity:1;fill-rule:evenodd;stroke:#ffffff;stroke-width:0;stroke-linecap:round;stroke-linejoin:round;stroke-opacity:0.995935"
       id="path870" />
  </g>
</svg>
