<!DOCTYPE svg PUBLIC "-//W3C//DTD SVG 1.1//EN" "http://www.w3.org/Graphics/SVG/1.1/DTD/svg11.dtd">
<svg version="1.1" id="IconsRepoEditor" xmlns="http://www.w3.org/2000/svg" xmlns:xlink="http://www.w3.org/1999/xlink" x="0px" y="0px" viewBox="0 0 292.169 292.169" style="enable-background:new 0 0 292.169 292.169;" xml:space="preserve" width="100px" height="100px" fill="#FFFFFF" stroke="#FFFFFF" stroke-width="0">
<g id="IconsRepo_bgCarrier"/> <path d="M215.868,183.462c-4.564-4.563-10.633-7.075-17.086-7.075c-0.803,0-1.615,0.04-2.418,0.121 c-11.312,1.143-21.92,5.497-30.679,12.594c-0.239,0.193-0.55,0.301-0.875,0.301c-0.186,0-0.545-0.038-0.865-0.296 c-22.373-18.009-42.845-38.493-60.847-60.884c-0.392-0.488-0.39-1.253,0.006-1.741c7.09-8.754,11.439-19.357,12.578-30.659 c0.729-7.245-1.806-14.354-6.955-19.504l-37.061-37.06c-4.563-4.562-10.626-7.074-17.074-7.074c-0.785,0-1.58,0.039-2.36,0.115 c-13.275,1.3-25.801,7.231-35.272,16.702C-1.242,67.205-5.259,95.598,7.178,118.028c29.314,53.483,99.862,130.607,167.167,167.086 c8.437,4.603,18.019,7.036,27.712,7.036c15.388,0,30.379-6.168,41.13-16.92c9.472-9.47,15.404-21.997,16.704-35.273 c0.708-7.217-1.828-14.3-6.959-19.435L215.868,183.462z"/> <path d="M233.113,148.387c0.899,0.215,1.799,0.317,2.686,0.317c5.198,0,9.912-3.549,11.175-8.826 c6.408-26.788-1.378-54.391-20.826-73.837c-19.449-19.449-47.052-27.232-73.839-20.826c-6.177,1.477-9.986,7.684-8.509,13.86 c1.479,6.177,7.686,9.984,13.86,8.509c18.95-4.534,38.473,0.969,52.224,14.721c13.751,13.749,19.254,33.271,14.72,52.222 C223.126,140.703,226.936,146.908,233.113,148.387z"/> <path d="M256.553,35.635C229.246,8.328,191.635-4.193,153.358,1.279c-6.287,0.9-10.655,6.725-9.756,13.013 c0.899,6.288,6.732,10.655,13.012,9.756c31.037-4.438,61.537,5.713,83.676,27.851c22.138,22.14,32.29,52.638,27.851,83.677 c-0.899,6.287,3.469,12.113,9.756,13.012c0.552,0.079,1.1,0.117,1.643,0.117c5.629,0,10.549-4.139,11.37-9.873 C296.382,100.556,283.86,62.943,256.553,35.635z"/> </svg>