<?xml version="1.0" encoding="UTF-8" standalone="no"?>
<svg
   xmlns:dc="http://purl.org/dc/elements/1.1/"
   xmlns:cc="http://creativecommons.org/ns#"
   xmlns:rdf="http://www.w3.org/1999/02/22-rdf-syntax-ns#"
   xmlns:svg="http://www.w3.org/2000/svg"
   xmlns="http://www.w3.org/2000/svg"
   xmlns:sodipodi="http://sodipodi.sourceforge.net/DTD/sodipodi-0.dtd"
   xmlns:inkscape="http://www.inkscape.org/namespaces/inkscape"
   sodipodi:docname="contact_icon.svg"
   inkscape:version="1.0beta2 (2b71d25, 2019-12-03)"
   id="svg1002"
   version="1.1"
   viewBox="0 0 31.75 31.75"
   height="120"
   width="120">
  <defs
     id="defs996">
    <inkscape:path-effect
       effect="bspline"
       id="path-effect3307"
       is_visible="true"
       lpeversion="1"
       weight="33.333333"
       steps="2"
       helper_size="0"
       apply_no_weight="true"
       apply_with_weight="true"
       only_selected="false" />
    <inkscape:path-effect
       only_selected="false"
       apply_with_weight="true"
       apply_no_weight="true"
       helper_size="0"
       steps="2"
       weight="33.333333"
       lpeversion="1"
       is_visible="true"
       id="path-effect3303"
       effect="bspline" />
    <inkscape:path-effect
       effect="bspline"
       id="path-effect1614"
       is_visible="true"
       lpeversion="1"
       weight="33.333333"
       steps="2"
       helper_size="0"
       apply_no_weight="true"
       apply_with_weight="true"
       only_selected="false" />
  </defs>
  <sodipodi:namedview
     inkscape:snap-global="false"
     inkscape:snap-bbox="true"
     inkscape:window-maximized="0"
     inkscape:window-y="23"
     inkscape:window-x="0"
     inkscape:window-height="792"
     inkscape:window-width="1440"
     inkscape:snap-nodes="true"
     inkscape:snap-text-baseline="true"
     inkscape:snap-page="true"
     units="px"
     showgrid="false"
     inkscape:document-rotation="0"
     inkscape:current-layer="layer1"
     inkscape:document-units="mm"
     inkscape:cy="53.103336"
     inkscape:cx="77.549377"
     inkscape:zoom="3.4714822"
     inkscape:pageshadow="2"
     inkscape:pageopacity="0.0"
     borderopacity="1.0"
     bordercolor="#666666"
     pagecolor="#ffffff"
     id="base" />
  <metadata
     id="metadata999">
    <rdf:RDF>
      <cc:Work
         rdf:about="">
        <dc:format>image/svg+xml</dc:format>
        <dc:type
           rdf:resource="http://purl.org/dc/dcmitype/StillImage" />
        <dc:title></dc:title>
      </cc:Work>
    </rdf:RDF>
  </metadata>
  <g
     style="display:inline;opacity:1"
     id="layer1"
     inkscape:groupmode="layer"
     inkscape:label="Laag 1">
    <rect
       transform="rotate(-25.508871)"
       ry="1.8011698"
       rx="1.5994135"
       y="7.73944"
       x="-2.5287626"
       height="24.584309"
       width="5.4576297"
       id="rect3295"
       style="fill:#ffffff;fill-rule:evenodd;stroke:#ffffff;stroke-width:0;stroke-linecap:round;stroke-linejoin:round;stroke-miterlimit:4;stroke-dasharray:none;stroke-opacity:0.995935" />
    <path
       sodipodi:nodetypes="sssssssss"
       inkscape:connector-curvature="0"
       d="M 3.5735372,6.8702131 11.01859,2.657966 c 0.725843,-0.4106655 1.965213,0.2003641 2.364783,1.1147185 L 14.28048,5.825574 c 0.399564,0.9143572 -0.619342,3.0340819 -1.401265,3.3240748 L 5.8968501,11.739201 c -0.7819225,0.28999 -1.7045589,-0.07672 -2.134282,-0.977307 L 2.9906035,9.1440837 C 2.5608789,8.2435075 2.8477031,7.28088 3.5735372,6.8702131 Z"
       style="fill:#ffffff;fill-rule:evenodd;stroke:#ffffff;stroke-width:0;stroke-linecap:round;stroke-linejoin:round;stroke-miterlimit:4;stroke-dasharray:none;stroke-opacity:0.995935"
       id="rect3299" />
    <path
       transform="matrix(2.0896325,-0.99710078,0.88225076,1.8489404,-30.067323,6.2571463)"
       inkscape:original-d="m 15.304518,16.872202 c -0.430849,2.65e-4 -0.861962,2.65e-4 -1.293339,0 2.64e-4,-0.541903 2.64e-4,-1.08405 0,-1.626472"
       inkscape:path-effect="#path-effect3303"
       inkscape:connector-curvature="0"
       id="path3301"
       d="m 15.304518,16.872202 c -0.430849,0 -0.861962,0 -1.07765,-0.270952 -0.215689,-0.270951 -0.215689,-0.813098 -0.215689,-1.35552"
       style="fill:#ffffff;stroke:#ffffff;stroke-width:0.26458300000000001px;stroke-linecap:butt;stroke-linejoin:miter;stroke-opacity:1" />
    <path
       style="fill:#ffffff;stroke:#ffffff;stroke-width:0.26458300000000001px;stroke-linecap:butt;stroke-linejoin:miter;stroke-opacity:1"
       d="m 15.304518,16.872202 c -0.430849,0 -0.861962,0 -1.07765,-0.270952 -0.215689,-0.270951 -0.215689,-0.813098 -0.215689,-1.35552"
       id="path3305"
       inkscape:connector-curvature="0"
       inkscape:path-effect="#path-effect3307"
       inkscape:original-d="m 15.304518,16.872202 c -0.430849,2.65e-4 -0.861962,2.65e-4 -1.293339,0 2.64e-4,-0.541903 2.64e-4,-1.08405 0,-1.626472"
       transform="matrix(2.0896325,-0.99710078,-0.88225076,-1.8489404,-6.5367599,55.570347)" />
    <path
       id="path3319"
       style="fill:#ffffff;fill-rule:evenodd;stroke:#ffffff;stroke-width:0;stroke-linecap:round;stroke-linejoin:round;stroke-miterlimit:4;stroke-dasharray:none;stroke-opacity:0.995935"
       d="m 12.861229,29.445332 7.957882,-3.137502 c 0.775846,-0.30588 1.080526,-1.653686 0.621123,-2.539488 l -1.031444,-1.98879 c -0.459414,-0.885797 -2.748134,-1.427241 -3.465448,-1.001848 l -6.405426,3.798641 c -0.717313,0.425394 -1.012659,1.373294 -0.582933,2.273871 l 0.771962,1.617811 c 0.429725,0.900573 1.358442,1.283194 2.134284,0.977305 z"
       inkscape:connector-curvature="0"
       sodipodi:nodetypes="sssssssss" />
    <path
       inkscape:connector-curvature="0"
       d="m 14.837939,9.5630339 0.340924,0.7144761 a 5.0956198,4.7227692 64.491129 0 1 0.119123,0.01588 5.0956198,4.7227692 64.491129 0 1 0.140493,0.02251 5.0956198,4.7227692 64.491129 0 1 0.138854,0.02718 5.0956198,4.7227692 64.491129 0 1 0.1393,0.03087 5.0956198,4.7227692 64.491129 0 1 0.139198,0.03608 5.0956198,4.7227692 64.491129 0 1 0.137038,0.03973 5.0956198,4.7227692 64.491129 0 1 0.136435,0.04389 5.0956198,4.7227692 64.491129 0 1 0.135842,0.04809 5.0956198,4.7227692 64.491129 0 1 0.134692,0.0512 5.0956198,4.7227692 64.491129 0 1 0.133582,0.05696 5.0956198,4.7227692 64.491129 0 1 0.130887,0.05953 5.0956198,4.7227692 64.491129 0 1 0.130803,0.06475 5.0956198,4.7227692 64.491129 0 1 0.128137,0.06733 5.0956198,4.7227692 64.491129 0 1 0.127534,0.07148 5.0956198,4.7227692 64.491129 0 1 0.124823,0.07667 5.0956198,4.7227692 64.491129 0 1 0.123243,0.07875 5.0956198,4.7227692 64.491129 0 1 0.121066,0.08236 5.0956198,4.7227692 64.491129 0 1 0.119395,0.08704 5.0956198,4.7227692 64.491129 0 1 0.116717,0.08962 5.0956198,4.7227692 64.491129 0 1 0.113509,0.09375 5.0956198,4.7227692 64.491129 0 1 0.111876,0.09584 5.0956198,4.7227692 64.491129 0 1 0.108679,0.09994 5.0956198,4.7227692 64.491129 0 1 0.10758,0.103084 5.0956198,4.7227692 64.491129 0 1 0.103853,0.106154 5.0956198,4.7227692 64.491129 0 1 0.100123,0.109216 5.0956198,4.7227692 64.491129 0 1 0.09853,0.111292 5.0956198,4.7227692 64.491129 0 1 0.09532,0.115434 5.0956198,4.7227692 64.491129 0 1 0.09108,0.117451 5.0956198,4.7227692 64.491129 0 1 0.08947,0.119541 5.0956198,4.7227692 64.491129 0 1 0.08573,0.122562 5.0956198,4.7227692 64.491129 0 1 0.08154,0.124581 5.0956198,4.7227692 64.491129 0 1 0.07874,0.127202 5.0956198,4.7227692 64.491129 0 1 0.07614,0.129779 5.0956198,4.7227692 64.491129 0 1 0.07139,0.130731 5.0956198,4.7227692 64.491129 0 1 0.06751,0.133885 5.0956198,4.7227692 64.491129 0 1 0.03535,0.07136 5.0956198,4.7227692 64.491129 0 1 0.06203,0.135195 5.0956198,4.7227692 64.491129 0 1 0.05924,0.13783 5.0956198,4.7227692 64.491129 0 1 0.055,0.139848 5.0956198,4.7227692 64.491129 0 1 0.05137,0.140278 5.0956198,4.7227692 64.491129 0 1 0.04664,0.141229 5.0956198,4.7227692 64.491129 0 1 0.04401,0.143794 5.0956198,4.7227692 64.491129 0 1 0.0398,0.143231 5.0956198,4.7227692 64.491129 0 1 0.03555,0.145264 5.0956198,4.7227692 64.491129 0 1 0.0319,0.14569 5.0956198,4.7227692 64.491129 0 1 0.02668,0.145589 5.0956198,4.7227692 64.491129 0 1 0.0235,0.147095 5.0956198,4.7227692 64.491129 0 1 0.01974,0.147543 5.0956198,4.7227692 64.491129 0 1 0.01465,0.147464 5.0956198,4.7227692 64.491129 0 1 0.01097,0.147929 5.0956198,4.7227692 64.491129 0 1 0.0067,0.147319 5.0956198,4.7227692 64.491129 0 1 0.0031,0.147767 5.0956198,4.7227692 64.491129 0 1 -0.0012,0.147157 5.0956198,4.7227692 64.491129 0 1 -0.005,0.147626 5.0956198,4.7227692 64.491129 0 1 -0.0095,0.145974 5.0956198,4.7227692 64.491129 0 1 -0.01465,0.145874 5.0956198,4.7227692 64.491129 0 1 -0.01729,0.145835 5.0956198,4.7227692 64.491129 0 1 -0.02202,0.144184 5.0956198,4.7227692 64.491129 0 1 -0.02517,0.143046 5.0956198,4.7227692 64.491129 0 1 -0.03091,0.141876 5.0956198,4.7227692 64.491129 0 1 -0.03352,0.141878 5.0956198,4.7227692 64.491129 0 1 -0.03869,0.139155 5.0956198,4.7227692 64.491129 0 1 -0.04182,0.138062 5.0956198,4.7227692 64.491129 0 1 -0.04549,0.135886 5.0956198,4.7227692 64.491129 0 1 -0.04964,0.135267 5.0956198,4.7227692 64.491129 0 1 -0.05433,0.133625 5.0956198,4.7227692 64.491129 0 1 -0.05688,0.130932 5.0956198,4.7227692 64.491129 0 1 -0.06158,0.129304 5.0956198,4.7227692 64.491129 0 1 -0.06464,0.125559 5.0956198,4.7227692 64.491129 0 1 -0.06882,0.124969 5.0956198,4.7227692 64.491129 0 1 -0.07244,0.122809 5.0956198,4.7227692 64.491129 0 1 -0.02808,0.04452 l 0.19819,0.415363 a 5.0956198,4.7227692 64.491129 0 0 1.3618,-6.209868 5.0956198,4.7227692 64.491129 0 0 -5.683768,-2.8479906 z"
       style="fill:#ffffff;fill-rule:evenodd;stroke:#ffffff;stroke-width:0;stroke-linecap:round;stroke-linejoin:round;stroke-miterlimit:4;stroke-dasharray:none;stroke-opacity:0.995935"
       id="path3327" />
    <path
       id="path3330"
       style="fill:#ffffff;fill-rule:evenodd;stroke:#ffffff;stroke-width:0;stroke-linecap:round;stroke-linejoin:round;stroke-miterlimit:4;stroke-dasharray:none;stroke-opacity:0.995935"
       d="m 17.654782,6.6520882 0.434468,0.9105192 a 6.4937781,6.0186231 64.491129 0 1 0.151798,0.020148 6.4937781,6.0186231 64.491129 0 1 0.179054,0.028675 6.4937781,6.0186231 64.491129 0 1 0.176939,0.034638 6.4937781,6.0186231 64.491129 0 1 0.177508,0.039333 6.4937781,6.0186231 64.491129 0 1 0.177387,0.045972 6.4937781,6.0186231 64.491129 0 1 0.174657,0.05061 6.4937781,6.0186231 64.491129 0 1 0.173865,0.055924 6.4937781,6.0186231 64.491129 0 1 0.17309,0.061268 6.4937781,6.0186231 64.491129 0 1 0.171667,0.065257 6.4937781,6.0186231 64.491129 0 1 0.17022,0.072587 6.4937781,6.0186231 64.491129 0 1 0.166821,0.075856 6.4937781,6.0186231 64.491129 0 1 0.166679,0.082497 6.4937781,6.0186231 64.491129 0 1 0.163297,0.08578 6.4937781,6.0186231 64.491129 0 1 0.162547,0.09111 6.4937781,6.0186231 64.491129 0 1 0.159085,0.097749 6.4937781,6.0186231 64.491129 0 1 0.157072,0.1003699 6.4937781,6.0186231 64.491129 0 1 0.15428,0.1049642 6.4937781,6.0186231 64.491129 0 1 0.152143,0.1109272 6.4937781,6.0186231 64.491129 0 1 0.148765,0.1142111 6.4937781,6.0186231 64.491129 0 1 0.144652,0.1194676 6.4937781,6.0186231 64.491129 0 1 0.142598,0.122132 6.4937781,6.0186231 64.491129 0 1 0.138509,0.1273888 6.4937781,6.0186231 64.491129 0 1 0.13708,0.1313638 6.4937781,6.0186231 64.491129 0 1 0.132358,0.1352957 6.4937781,6.0186231 64.491129 0 1 0.127619,0.1391988 6.4937781,6.0186231 64.491129 0 1 0.125575,0.1418491 6.4937781,6.0186231 64.491129 0 1 0.121425,0.147095 6.4937781,6.0186231 64.491129 0 1 0.116055,0.1496804 6.4937781,6.0186231 64.491129 0 1 0.114011,0.152307 6.4937781,6.0186231 64.491129 0 1 0.10925,0.156214 6.4937781,6.0186231 64.491129 0 1 0.103937,0.15876 6.4937781,6.0186231 64.491129 0 1 0.100344,0.162118 6.4937781,6.0186231 64.491129 0 1 0.09697,0.165418 6.4937781,6.0186231 64.491129 0 1 0.091,0.166595 6.4937781,6.0186231 64.491129 0 1 0.08593,0.170649 6.4937781,6.0186231 64.491129 0 1 0.04506,0.09095 6.4937781,6.0186231 64.491129 0 1 0.07907,0.172295 6.4937781,6.0186231 64.491129 0 1 0.07546,0.175656 6.4937781,6.0186231 64.491129 0 1 0.07015,0.178199 6.4937781,6.0186231 64.491129 0 1 0.06547,0.178771 6.4937781,6.0186231 64.491129 0 1 0.05943,0.17997 6.4937781,6.0186231 64.491129 0 1 0.05609,0.183249 6.4937781,6.0186231 64.491129 0 1 0.05071,0.182515 6.4937781,6.0186231 64.491129 0 1 0.0453,0.185102 6.4937781,6.0186231 64.491129 0 1 0.04063,0.185651 6.4937781,6.0186231 64.491129 0 1 0.03398,0.185549 6.4937781,6.0186231 64.491129 0 1 0.02994,0.187462 6.4937781,6.0186231 64.491129 0 1 0.02526,0.188033 6.4937781,6.0186231 64.491129 0 1 0.01852,0.187908 6.4937781,6.0186231 64.491129 0 1 0.01383,0.188521 6.4937781,6.0186231 64.491129 0 1 0.0085,0.187729 6.4937781,6.0186231 64.491129 0 1 0.0038,0.188316 6.4937781,6.0186231 64.491129 0 1 -0.0014,0.187525 6.4937781,6.0186231 64.491129 0 1 -0.0061,0.188134 6.4937781,6.0186231 64.491129 0 1 -0.01195,0.186034 6.4937781,6.0186231 64.491129 0 1 -0.01872,0.185897 6.4937781,6.0186231 64.491129 0 1 -0.0221,0.185853 6.4937781,6.0186231 64.491129 0 1 -0.02807,0.183737 6.4937781,6.0186231 64.491129 0 1 -0.03209,0.182313 6.4937781,6.0186231 64.491129 0 1 -0.03938,0.180827 6.4937781,6.0186231 64.491129 0 1 -0.04274,0.180806 6.4937781,6.0186231 64.491129 0 1 -0.04933,0.177345 6.4937781,6.0186231 64.491129 0 1 -0.05329,0.175941 6.4937781,6.0186231 64.491129 0 1 -0.05795,0.173151 6.4937781,6.0186231 64.491129 0 1 -0.06327,0.172378 6.4937781,6.0186231 64.491129 0 1 -0.06926,0.170303 6.4937781,6.0186231 64.491129 0 1 -0.0725,0.166881 6.4937781,6.0186231 64.491129 0 1 -0.07847,0.164764 6.4937781,6.0186231 64.491129 0 1 -0.08239,0.159999 6.4937781,6.0186231 64.491129 0 1 -0.08771,0.159251 6.4937781,6.0186231 64.491129 0 1 -0.09233,0.156499 6.4937781,6.0186231 64.491129 0 1 -0.03575,0.05673 l 0.252514,0.529334 A 6.4937781,6.0186231 64.491129 0 0 24.89793,10.281843 6.4937781,6.0186231 64.491129 0 0 17.654623,6.6524064 Z"
       inkscape:connector-curvature="0" />
    <path
       inkscape:connector-curvature="0"
       d="m 19.972502,3.7319101 0.558351,1.1701425 a 8.3453972,7.7347576 64.491129 0 1 0.195076,0.0259 8.3453972,7.7347576 64.491129 0 1 0.230117,0.036847 8.3453972,7.7347576 64.491129 0 1 0.227388,0.044503 8.3453972,7.7347576 64.491129 0 1 0.228129,0.050543 8.3453972,7.7347576 64.491129 0 1 0.227961,0.05908 8.3453972,7.7347576 64.491129 0 1 0.224464,0.065032 8.3453972,7.7347576 64.491129 0 1 0.223425,0.071883 8.3453972,7.7347576 64.491129 0 1 0.222455,0.078735 8.3453972,7.7347576 64.491129 0 1 0.220597,0.08387 8.3453972,7.7347576 64.491129 0 1 0.218751,0.093285 8.3453972,7.7347576 64.491129 0 1 0.214372,0.097486 8.3453972,7.7347576 64.491129 0 1 0.214225,0.1060158 8.3453972,7.7347576 64.491129 0 1 0.209857,0.1102446 8.3453972,7.7347576 64.491129 0 1 0.208887,0.1170884 8.3453972,7.7347576 64.491129 0 1 0.204427,0.1256158 8.3453972,7.7347576 64.491129 0 1 0.201833,0.1289904 8.3453972,7.7347576 64.491129 0 1 0.198271,0.1349025 8.3453972,7.7347576 64.491129 0 1 0.195524,0.1425617 8.3453972,7.7347576 64.491129 0 1 0.191189,0.1467819 8.3453972,7.7347576 64.491129 0 1 0.185893,0.1535345 8.3453972,7.7347576 64.491129 0 1 0.183249,0.1569458 8.3453972,7.7347576 64.491129 0 1 0.178017,0.1637044 8.3453972,7.7347576 64.491129 0 1 0.176186,0.1688073 8.3453972,7.7347576 64.491129 0 1 0.170098,0.1738623 8.3453972,7.7347576 64.491129 0 1 0.16401,0.1788816 8.3453972,7.7347576 64.491129 0 1 0.161386,0.1822777 8.3453972,7.7347576 64.491129 0 1 0.156074,0.1890438 8.3453972,7.7347576 64.491129 0 1 0.149131,0.1923521 8.3453972,7.7347576 64.491129 0 1 0.146544,0.1957381 8.3453972,7.7347576 64.491129 0 1 0.140396,0.20075 8.3453972,7.7347576 64.491129 0 1 0.133551,0.204021 8.3453972,7.7347576 64.491129 0 1 0.12896,0.2083631 8.3453972,7.7347576 64.491129 0 1 0.124623,0.2125744 8.3453972,7.7347576 64.491129 0 1 0.117033,0.2140521 8.3453972,7.7347576 64.491129 0 1 0.110499,0.2192831 8.3453972,7.7347576 64.491129 0 1 0.05789,0.1168611 8.3453972,7.7347576 64.491129 0 1 0.101588,0.2214142 8.3453972,7.7347576 64.491129 0 1 0.09691,0.2257717 8.3453972,7.7347576 64.491129 0 1 0.09012,0.229037 8.3453972,7.7347576 64.491129 0 1 0.08411,0.229754 8.3453972,7.7347576 64.491129 0 1 0.07641,0.231293 8.3453972,7.7347576 64.491129 0 1 0.07208,0.235495 8.3453972,7.7347576 64.491129 0 1 0.06515,0.234563 8.3453972,7.7347576 64.491129 0 1 0.05819,0.237885 8.3453972,7.7347576 64.491129 0 1 0.05223,0.238597 8.3453972,7.7347576 64.491129 0 1 0.04367,0.23845 8.3453972,7.7347576 64.491129 0 1 0.0385,0.240916 8.3453972,7.7347576 64.491129 0 1 0.03246,0.241648 8.3453972,7.7347576 64.491129 0 1 0.02385,0.241502 8.3453972,7.7347576 64.491129 0 1 0.01791,0.242275 8.3453972,7.7347576 64.491129 0 1 0.01097,0.241249 8.3453972,7.7347576 64.491129 0 1 0.005,0.242008 8.3453972,7.7347576 64.491129 0 1 -0.0019,0.240994 8.3453972,7.7347576 64.491129 0 1 -0.0079,0.241782 8.3453972,7.7347576 64.491129 0 1 -0.01548,0.239076 8.3453972,7.7347576 64.491129 0 1 -0.02417,0.238898 8.3453972,7.7347576 64.491129 0 1 -0.02842,0.238844 8.3453972,7.7347576 64.491129 0 1 -0.03609,0.236114 8.3453972,7.7347576 64.491129 0 1 -0.04121,0.234283 8.3453972,7.7347576 64.491129 0 1 -0.05062,0.232387 8.3453972,7.7347576 64.491129 0 1 -0.0549,0.232356 8.3453972,7.7347576 64.491129 0 1 -0.06339,0.227898 8.3453972,7.7347576 64.491129 0 1 -0.06849,0.226112 8.3453972,7.7347576 64.491129 0 1 -0.07449,0.222526 8.3453972,7.7347576 64.491129 0 1 -0.08133,0.221524 8.3453972,7.7347576 64.491129 0 1 -0.08899,0.21885 8.3453972,7.7347576 64.491129 0 1 -0.09316,0.214451 8.3453972,7.7347576 64.491129 0 1 -0.100851,0.211758 8.3453972,7.7347576 64.491129 0 1 -0.105903,0.205637 8.3453972,7.7347576 64.491129 0 1 -0.112715,0.204657 8.3453972,7.7347576 64.491129 0 1 -0.118661,0.2011 8.3453972,7.7347576 64.491129 0 1 -0.04594,0.07292 l 0.324599,0.680262 A 8.3453972,7.7347576 64.491129 0 0 29.280724,8.3965166 8.3453972,7.7347576 64.491129 0 0 19.97208,3.7321921 Z"
       style="fill:#ffffff;fill-rule:evenodd;stroke:#ffffff;stroke-width:0;stroke-linecap:round;stroke-linejoin:round;stroke-miterlimit:4;stroke-dasharray:none;stroke-opacity:0.995935"
       id="path3332" />
  </g>
</svg>
