<?xml version="1.0" encoding="UTF-8" standalone="no"?>
<svg
   xmlns:dc="http://purl.org/dc/elements/1.1/"
   xmlns:cc="http://creativecommons.org/ns#"
   xmlns:rdf="http://www.w3.org/1999/02/22-rdf-syntax-ns#"
   xmlns:svg="http://www.w3.org/2000/svg"
   xmlns="http://www.w3.org/2000/svg"
   xmlns:sodipodi="http://sodipodi.sourceforge.net/DTD/sodipodi-0.dtd"
   xmlns:inkscape="http://www.inkscape.org/namespaces/inkscape"
   inkscape:version="1.0beta2 (2b71d25, 2019-12-03)"
   sodipodi:docname="key_v3.svg"
   xml:space="preserve"
   style="enable-background:new 0 0 455 455;"
   viewBox="0 0 455 455"
   y="0px"
   x="0px"
   id="Layer_1"
   version="1.1"><metadata
   id="metadata870"><rdf:RDF><cc:Work
       rdf:about=""><dc:format>image/svg+xml</dc:format><dc:type
         rdf:resource="http://purl.org/dc/dcmitype/StillImage" /><dc:title></dc:title></cc:Work></rdf:RDF></metadata><defs
   id="defs868" /><sodipodi:namedview
   inkscape:current-layer="Layer_1"
   inkscape:window-maximized="0"
   inkscape:window-y="0"
   inkscape:window-x="0"
   inkscape:cy="227.5"
   inkscape:cx="227.5"
   inkscape:zoom="1.2879121"
   showgrid="false"
   id="namedview866"
   inkscape:window-height="900"
   inkscape:window-width="1440"
   inkscape:pageshadow="2"
   inkscape:pageopacity="0"
   guidetolerance="10"
   gridtolerance="10"
   objecttolerance="10"
   borderopacity="1"
   inkscape:document-rotation="0"
   bordercolor="#666666"
   pagecolor="#ffffff" />
<path
   style="fill:#ffffff"
   id="path833"
   d="M416.296,38.642c-51.523-51.523-135.058-51.523-186.581,0c-41.222,41.222-49.457,102.934-24.718,152.35L0.183,395.811  l-0.122,59.059L114.593,455v-55.705h55.705l0-55.705h55.705l0-55.705l37.943-37.943c49.416,24.74,111.128,16.504,152.35-24.718  C467.82,173.701,467.82,90.165,416.296,38.642z M374.355,137.001c-15.579,15.579-40.838,15.579-56.418,0s-15.579-40.838,0-56.418  s40.838-15.579,56.418,0C389.935,96.163,389.935,121.422,374.355,137.001z" />
<g
   id="g835">
</g>
<g
   id="g837">
</g>
<g
   id="g839">
</g>
<g
   id="g841">
</g>
<g
   id="g843">
</g>
<g
   id="g845">
</g>
<g
   id="g847">
</g>
<g
   id="g849">
</g>
<g
   id="g851">
</g>
<g
   id="g853">
</g>
<g
   id="g855">
</g>
<g
   id="g857">
</g>
<g
   id="g859">
</g>
<g
   id="g861">
</g>
<g
   id="g863">
</g>
</svg>
