<?xml version="1.0" encoding="UTF-8" standalone="no"?>
<svg
   xmlns:dc="http://purl.org/dc/elements/1.1/"
   xmlns:cc="http://creativecommons.org/ns#"
   xmlns:rdf="http://www.w3.org/1999/02/22-rdf-syntax-ns#"
   xmlns:svg="http://www.w3.org/2000/svg"
   xmlns="http://www.w3.org/2000/svg"
   xmlns:xlink="http://www.w3.org/1999/xlink"
   xmlns:sodipodi="http://sodipodi.sourceforge.net/DTD/sodipodi-0.dtd"
   xmlns:inkscape="http://www.inkscape.org/namespaces/inkscape"
   sodipodi:docname="landingpage_v6.svg"
   inkscape:version="1.0beta2 (2b71d25, 2019-12-03)"
   id="svg3898"
   version="1.1"
   viewBox="0 0 338.66667 217.4875"
   height="822"
   width="1280">
  <defs
     id="defs3892">
    <rect
       id="rect4119"
       height="28.744095"
       width="88.401649"
       y="95.994431"
       x="128.53493" />
    <linearGradient
       gradientTransform="matrix(1,0,0,1.085997,-338.66666,-0.96367353)"
       inkscape:collect="always"
       xlink:href="#linearGradient3231"
       id="linearGradient3312"
       x1="-14.142909"
       y1="29.261204"
       x2="281.39523"
       y2="30.236576"
       gradientUnits="userSpaceOnUse" />
    <linearGradient
       inkscape:collect="always"
       id="linearGradient3231">
      <stop
         style="stop-color:#0000f6;stop-opacity:1;"
         offset="0"
         id="stop3227" />
      <stop
         style="stop-color:#0000f6;stop-opacity:0;"
         offset="1"
         id="stop3229" />
    </linearGradient>
    <linearGradient
       gradientTransform="matrix(1,0,0,1.1526906,-338.66666,4.1591345)"
       inkscape:collect="always"
       xlink:href="#linearGradient3766"
       id="linearGradient3768"
       x1="48.973442"
       y1="127.96261"
       x2="338.66669"
       y2="132.12073"
       gradientUnits="userSpaceOnUse" />
    <linearGradient
       inkscape:collect="always"
       id="linearGradient3766">
      <stop
         style="stop-color:#009767;stop-opacity:1;"
         offset="0"
         id="stop3762" />
      <stop
         style="stop-color:#009767;stop-opacity:0;"
         offset="1"
         id="stop3764" />
    </linearGradient>
    <inkscape:path-effect
       only_selected="false"
       apply_with_weight="true"
       apply_no_weight="true"
       helper_size="0"
       steps="2"
       weight="33.333333"
       lpeversion="1"
       is_visible="true"
       id="path-effect3541-9"
       effect="bspline" />
    <inkscape:path-effect
       effect="bspline"
       id="path-effect3541"
       is_visible="true"
       lpeversion="1"
       weight="33.333333"
       steps="2"
       helper_size="0"
       apply_no_weight="true"
       apply_with_weight="true"
       only_selected="false" />
    <linearGradient
       inkscape:collect="always"
       xlink:href="#linearGradient3669"
       id="linearGradient3671"
       x1="351.97446"
       y1="102.32115"
       x2="378.65088"
       y2="102.32115"
       gradientUnits="userSpaceOnUse" />
    <linearGradient
       inkscape:collect="always"
       id="linearGradient3669">
      <stop
         style="stop-color:#808080;stop-opacity:1;"
         offset="0"
         id="stop3665" />
      <stop
         style="stop-color:#808080;stop-opacity:0;"
         offset="1"
         id="stop3667" />
    </linearGradient>
    <radialGradient
       inkscape:collect="always"
       xlink:href="#linearGradient3715"
       id="radialGradient3717"
       cx="365.31268"
       cy="102.32115"
       fx="365.31268"
       fy="102.32115"
       r="13.338201"
       gradientTransform="matrix(0.43907441,-0.86895977,0.57177141,0.28890888,146.40891,390.20169)"
       gradientUnits="userSpaceOnUse" />
    <linearGradient
       inkscape:collect="always"
       id="linearGradient3715">
      <stop
         style="stop-color:#e6e6e6;stop-opacity:1;"
         offset="0"
         id="stop3711" />
      <stop
         style="stop-color:#e6e6e6;stop-opacity:0;"
         offset="1"
         id="stop3713" />
    </linearGradient>
    <radialGradient
       inkscape:collect="always"
       xlink:href="#linearGradient3725"
       id="radialGradient3727"
       cx="376.16467"
       cy="109.96749"
       fx="376.16467"
       fy="109.96749"
       r="3.805095"
       gradientTransform="matrix(0.36873889,-0.81308555,0.76643014,0.3475804,153.17573,377.59901)"
       gradientUnits="userSpaceOnUse" />
    <linearGradient
       inkscape:collect="always"
       id="linearGradient3725">
      <stop
         style="stop-color:#b3b3b3;stop-opacity:1;"
         offset="0"
         id="stop3721" />
      <stop
         style="stop-color:#b3b3b3;stop-opacity:0;"
         offset="1"
         id="stop3723" />
    </linearGradient>
    <linearGradient
       inkscape:collect="always"
       xlink:href="#linearGradient3231"
       id="linearGradient3233"
       x1="5.5557556"
       y1="31.56168"
       x2="13.918765"
       y2="7.700314"
       gradientUnits="userSpaceOnUse"
       gradientTransform="translate(76.239974,69.256159)" />
  </defs>
  <sodipodi:namedview
     inkscape:snap-global="true"
     inkscape:snap-object-midpoints="true"
     inkscape:window-maximized="0"
     inkscape:window-y="23"
     inkscape:window-x="0"
     inkscape:window-height="792"
     inkscape:window-width="1440"
     inkscape:snap-page="true"
     inkscape:snap-bbox="true"
     units="px"
     showgrid="false"
     inkscape:document-rotation="0"
     inkscape:current-layer="g4198"
     inkscape:document-units="mm"
     inkscape:cy="350.44569"
     inkscape:cx="727.87574"
     inkscape:zoom="0.60142761"
     inkscape:pageshadow="2"
     inkscape:pageopacity="0.0"
     borderopacity="1.0"
     bordercolor="#666666"
     pagecolor="#ffffff"
     id="base" />
  <metadata
     id="metadata3895">
    <rdf:RDF>
      <cc:Work
         rdf:about="">
        <dc:format>image/svg+xml</dc:format>
        <dc:type
           rdf:resource="http://purl.org/dc/dcmitype/StillImage" />
        <dc:title></dc:title>
      </cc:Work>
    </rdf:RDF>
  </metadata>
  <g
     id="layer1"
     inkscape:groupmode="layer"
     inkscape:label="Laag 1">
    <g
       style="display:inline"
       id="g4198">
      <rect
         y="0"
         x="-338.66666"
         height="205.91876"
         width="338.66666"
         id="rect28"
         style="display:inline;fill:#00ffff;fill-rule:evenodd;stroke-width:0.56108"
         transform="scale(-1,1)" />
      <rect
         style="display:inline;fill:url(#linearGradient3312);fill-opacity:1;fill-rule:evenodd;stroke-width:0.562392"
         id="rect3304"
         width="338.66666"
         height="206.88243"
         x="-338.66666"
         y="-0.96367264"
         transform="scale(-1,1)" />
      <path
         sodipodi:open="true"
         d="m -277.36429,115.69773 a 65.215607,62.220592 0 0 1 61.28263,-40.939898 65.215607,62.220592 0 0 1 61.28262,40.939898 z"
         sodipodi:arc-type="chord"
         sodipodi:end="5.9341195"
         sodipodi:start="3.4906585"
         sodipodi:ry="62.220592"
         sodipodi:rx="65.215607"
         sodipodi:cy="136.97842"
         sodipodi:cx="-216.08167"
         sodipodi:type="arc"
         id="path72"
         style="display:inline;fill:#008000;stroke-width:0.532971"
         transform="scale(-1,1)" />
      <path
         sodipodi:open="true"
         d="m -214.17532,112.89238 a 59.216465,63.384541 0 0 1 58.31683,-52.377934 59.216465,63.384541 0 0 1 58.316834,52.377934 z"
         sodipodi:arc-type="chord"
         sodipodi:end="6.1086524"
         sodipodi:start="3.3161256"
         sodipodi:ry="63.384541"
         sodipodi:rx="59.216465"
         sodipodi:cy="123.89899"
         sodipodi:cx="-155.85849"
         sodipodi:type="arc"
         id="path74"
         style="display:inline;fill:#778024;fill-opacity:1;stroke-width:0.448318"
         transform="scale(-1,1)" />
      <rect
         ry="0"
         y="89.160187"
         x="-338.66666"
         height="134.58653"
         width="338.66666"
         id="rect26"
         style="display:inline;fill:#00ff00;fill-rule:evenodd;stroke-width:0.28155"
         transform="scale(-1,1)" />
      <path
         transform="matrix(-0.14779035,0,0,0.17011171,101.87621,87.475428)"
         inkscape:transform-center-y="-0.84453703"
         inkscape:transform-center-x="0.034714581"
         d="m 402.16739,38.525381 9.30367,15.300678 9.30367,15.300678 -17.90261,0.406877 -17.90261,0.406878 8.59894,-15.707556 z"
         inkscape:randomized="0"
         inkscape:rounded="0"
         inkscape:flatsided="false"
         sodipodi:arg2="-0.54632214"
         sodipodi:arg1="-1.5935197"
         sodipodi:r2="10.338747"
         sodipodi:r1="20.677494"
         sodipodi:cy="59.197536"
         sodipodi:cx="402.63721"
         sodipodi:sides="3"
         id="path40"
         style="display:inline;fill:#008000;stroke-width:0.264583"
         sodipodi:type="star" />
      <path
         sodipodi:type="star"
         style="display:inline;fill:#008000;stroke-width:0.264583"
         id="path40-2"
         sodipodi:sides="3"
         sodipodi:cx="402.63721"
         sodipodi:cy="59.197536"
         sodipodi:r1="20.677494"
         sodipodi:r2="10.338747"
         sodipodi:arg1="-1.5935197"
         sodipodi:arg2="-0.54632214"
         inkscape:flatsided="false"
         inkscape:rounded="0"
         inkscape:randomized="0"
         d="m 402.16739,38.525381 9.30367,15.300678 9.30367,15.300678 -17.90261,0.406877 -17.90261,0.406878 8.59894,-15.707556 z"
         inkscape:transform-center-x="0.034712603"
         inkscape:transform-center-y="-0.84453697"
         transform="matrix(-0.14779035,0,0,0.17011173,107.51857,87.492548)" />
      <g
         transform="matrix(-0.82943163,0,0,0.82943163,182.44835,26.929256)"
         id="g66"
         style="display:inline">
        <rect
           style="fill:#803300;stroke-width:0.264583"
           id="rect57"
           width="5.8072362"
           height="16.592102"
           x="187.49075"
           y="78.259422" />
        <path
           sodipodi:type="star"
           style="fill:#808000;stroke-width:0.264583"
           id="path59"
           sodipodi:sides="3"
           sodipodi:cx="209.03242"
           sodipodi:cy="61.733257"
           sodipodi:r1="18.258165"
           sodipodi:r2="9.8257542"
           sodipodi:arg1="-1.5561181"
           sodipodi:arg2="-0.50892055"
           inkscape:flatsided="false"
           inkscape:rounded="0"
           inkscape:randomized="0"
           d="m 209.30041,43.477059 8.31256,13.468748 7.09579,14.147634 -15.82055,0.464512 -15.80011,-0.928681 7.508,-13.93326 z"
           inkscape:transform-center-x="0.41480193"
           inkscape:transform-center-y="-7.0470068"
           transform="matrix(1,0,0,1.5490417,-17.895409,-26.899174)" />
      </g>
      <g
         transform="matrix(-1,0,0,1,350.34939,14.936925)"
         id="g932"
         style="display:inline">
        <circle
           style="fill:#ffff00;fill-opacity:0.421053;stroke-width:0.262516"
           id="path899"
           cx="292.21991"
           cy="27.678925"
           r="19.84375" />
        <circle
           style="fill:#ffff00;fill-opacity:1;stroke-width:0.202644"
           id="path901"
           cx="292.21991"
           cy="27.678925"
           r="14.552084" />
      </g>
      <rect
         style="display:inline;fill:url(#linearGradient3768);fill-opacity:1;fill-rule:evenodd;stroke-width:0.281549"
         id="rect3736"
         width="338.66666"
         height="134.58653"
         x="-338.66666"
         y="89.160187"
         ry="0"
         transform="scale(-1,1)" />
      <rect
         rx="2.3127108"
         ry="4.5169964"
         y="145.15155"
         x="-31.1758"
         height="12.115836"
         width="8.1771193"
         id="rect3498"
         style="display:inline;opacity:1;fill:#f9f9f9;fill-opacity:1;fill-rule:evenodd;stroke:none;stroke-width:0.808027"
         transform="scale(-1,1)" />
      <path
         style="display:inline;fill:none;stroke:#000000;stroke-width:0.609129;stroke-linecap:butt;stroke-linejoin:miter;stroke-miterlimit:4;stroke-dasharray:none;stroke-opacity:1"
         d="m 300.16602,130.3977 c -2.14066,-9.77255 -4.28139,-19.54539 -9.58666,-23.54776 -5.30527,-4.00237 -13.7749,-2.23399 -18.24249,-1.30324 -4.46759,0.93075 -4.93297,1.02383 -5.39855,1.11694"
         id="path3539-6"
         inkscape:connector-curvature="0"
         inkscape:path-effect="#path-effect3541-9"
         inkscape:original-d="m 300.16602,130.3977 c -2.14046,-9.77259 -4.2812,-19.54543 -6.42218,-29.31854 -8.46969,1.76872 -16.93932,3.5371 -25.4094,5.30526 -0.46511,0.0933 -0.93048,0.18641 -1.39612,0.27922"
         transform="matrix(-1.0725123,0,0,0.70366316,366.6269,54.454931)" />
      <rect
         style="display:inline;opacity:1;fill:#f9f9f9;fill-opacity:1;fill-rule:evenodd;stroke:none;stroke-width:0.766696"
         id="rect3498-3"
         width="7.5014262"
         height="11.890606"
         x="-48.551132"
         y="145.2751"
         ry="4.4330268"
         rx="2.1216063"
         transform="scale(-1,1)" />
      <path
         transform="matrix(-1.5241842,0,0,0.99999998,484.95808,14.730485)"
         inkscape:original-d="m 300.16602,130.3977 c -2.14046,-9.77259 -4.2812,-19.54543 -6.42218,-29.31854 -8.46969,1.76872 -16.93932,3.5371 -25.4094,5.30526 -0.46511,0.0933 -0.93048,0.18641 -1.39612,0.27922"
         inkscape:path-effect="#path-effect3541"
         inkscape:connector-curvature="0"
         id="path3539"
         d="m 300.16602,130.3977 c -2.14066,-9.77255 -4.28139,-19.54539 -9.58666,-23.54776 -5.30527,-4.00237 -13.7749,-2.23399 -18.24249,-1.30324 -4.46759,0.93075 -4.93297,1.02383 -5.39855,1.11694"
         style="display:inline;fill:none;stroke:#000000;stroke-width:0.428621;stroke-linecap:butt;stroke-linejoin:miter;stroke-miterlimit:4;stroke-dasharray:none;stroke-opacity:1" />
      <g
         transform="matrix(-0.51681441,0,0,0.61146497,310.70013,55.404593)"
         id="g3492"
         style="display:inline">
        <rect
           style="opacity:1;fill:#4d4d4d;fill-opacity:1;fill-rule:evenodd;stroke:none;stroke-width:1"
           id="rect3459"
           width="3.4138069"
           height="28.28583"
           x="477.93301"
           y="141.42915" />
        <rect
           y="139.47841"
           x="426.96973"
           height="28.285828"
           width="3.4138069"
           id="rect3459-9"
           style="opacity:1;fill:#4d4d4d;fill-opacity:1;fill-rule:evenodd;stroke:none;stroke-width:1" />
        <rect
           y="100.95116"
           x="403.07306"
           height="21.166668"
           width="2.5545979"
           id="rect3459-8"
           style="opacity:1;fill:#4d4d4d;fill-opacity:1;fill-rule:evenodd;stroke:none;stroke-width:0.748314" />
        <rect
           style="opacity:1;fill:#cccccc;fill-opacity:1;fill-rule:evenodd;stroke:none;stroke-width:1.24773"
           id="rect3342"
           width="68.328766"
           height="60.746696"
           x="362.05203"
           y="100.54493"
           transform="matrix(1,0,0.37645912,0.92643323,0,0)" />
        <rect
           style="fill:#00ffff;fill-opacity:1;fill-rule:evenodd;stroke:none;stroke-width:0.372629"
           id="rect3411"
           width="16.65379"
           height="22.229668"
           x="367.34436"
           y="106.73443"
           transform="matrix(1,0,0.37808813,0.92576961,0,0)" />
        <rect
           transform="matrix(1,0,0.37808814,0.9257696,0,0)"
           y="134.27939"
           x="366.60757"
           height="22.229668"
           width="16.65379"
           id="rect3411-1"
           style="fill:#00ffff;fill-opacity:1;fill-rule:evenodd;stroke:none;stroke-width:0.372629" />
        <rect
           transform="matrix(1,0,0.37808814,0.9257696,0,0)"
           y="106.81033"
           x="388.10745"
           height="22.229668"
           width="16.65379"
           id="rect3411-2"
           style="fill:#00ffff;fill-opacity:1;fill-rule:evenodd;stroke:none;stroke-width:0.372629" />
        <rect
           style="fill:#00ffff;fill-opacity:1;fill-rule:evenodd;stroke:none;stroke-width:0.372629"
           id="rect3411-1-8"
           width="16.65379"
           height="22.229668"
           x="388.05753"
           y="133.82852"
           transform="matrix(1,0,0.37808814,0.9257696,0,0)" />
        <rect
           transform="matrix(1,0,0.37808814,0.9257696,0,0)"
           y="106.81033"
           x="408.59027"
           height="22.229668"
           width="16.65379"
           id="rect3411-4"
           style="fill:#00ffff;fill-opacity:1;fill-rule:evenodd;stroke:none;stroke-width:0.372629" />
        <rect
           style="fill:#00ffff;fill-opacity:1;fill-rule:evenodd;stroke:none;stroke-width:0.372629"
           id="rect3411-1-4"
           width="16.65379"
           height="22.229668"
           x="408.73953"
           y="133.30171"
           transform="matrix(1,0,0.37808814,0.9257696,0,0)" />
      </g>
      <rect
         ry="1.8245614"
         rx="1.9999999"
         y="148.84433"
         x="-53.884232"
         height="25.359713"
         width="35.601131"
         id="rect3494"
         style="display:inline;opacity:1;fill:#4d4d4d;fill-opacity:1;fill-rule:evenodd;stroke:none;stroke-width:0.95513"
         transform="scale(-1,1)" />
      <rect
         y="171.76559"
         x="-55.835007"
         height="5.852241"
         width="39.990311"
         id="rect3496"
         style="display:inline;opacity:1;fill:#000000;fill-opacity:1;fill-rule:evenodd;stroke:none;stroke-width:0.667573"
         transform="scale(-1,1)" />
      <path
         inkscape:connector-curvature="0"
         d="m 28.642931,151.89614 v 3.09388 h 3.09387 v 1.48518 h -3.09387 v 3.09386 h -1.48503 v -3.09386 h -3.09401 v -1.48518 h 3.09401 v -3.09388 z"
         style="display:inline;opacity:1;fill:#ff0000;fill-opacity:1;fill-rule:evenodd;stroke:none;stroke-width:0.274733"
         id="rect3517" />
      <rect
         y="41.552658"
         x="153.9232"
         height="7.9375"
         width="2.2393386"
         id="rect3521"
         style="display:inline;opacity:1;fill:#ff0000;fill-opacity:1;fill-rule:evenodd;stroke:none;stroke-width:0.34313"
         transform="matrix(0,1,1,0,0,0)" />
      <g
         transform="matrix(-0.47339239,0.00276655,0.00276655,0.47339239,215.75855,118.49529)"
         id="g3535"
         style="display:inline">
        <path
           id="path3528"
           style="opacity:1;fill:#ffff00;fill-opacity:1;fill-rule:evenodd;stroke:none;stroke-width:1"
           inkscape:transform-center-x="-2.2337866"
           transform="scale(-1,1)"
           d="m -389.23851,91.585534 14.51967,-15.556364 -10e-6,15.476176 z"
           inkscape:connector-curvature="0"
           sodipodi:nodetypes="cccc" />
        <path
           sodipodi:nodetypes="cccc"
           inkscape:connector-curvature="0"
           d="m 365.78367,89.711154 14.51967,15.556366 -10e-6,-15.476178 z"
           inkscape:transform-center-x="2.2337866"
           style="opacity:1;fill:#ffff00;fill-opacity:1;fill-rule:evenodd;stroke:none;stroke-width:1"
           id="path3531" />
      </g>
      <g
         transform="matrix(-1.7988546,0,0,1.7988546,920.80145,-68.169014)"
         id="g3734"
         style="display:inline">
        <path
           id="path3691"
           style="opacity:1;fill:#808080;fill-opacity:1;fill-rule:evenodd;stroke:none;stroke-width:0.529167;stroke-miterlimit:4;stroke-dasharray:none"
           d="m 375.59095,94.877503 c 6.21036,2.302505 2.38668,18.496167 -6.25156,18.392547 -10.07909,-0.1209 -15.68106,1.17081 -16.98486,-4.83265 -1.40569,-6.47256 0.92981,-11.741266 9.66359,-15.532635 8.73377,-3.791368 8.91642,0.246366 13.57283,1.972738 z"
           inkscape:connector-curvature="0"
           sodipodi:nodetypes="sssss" />
        <path
           id="path3643"
           style="opacity:1;fill:url(#linearGradient3671);fill-opacity:1;fill-rule:evenodd;stroke:none;stroke-width:0.529167;stroke-miterlimit:4;stroke-dasharray:none"
           d="m 375.59095,94.877503 c 6.21036,2.302505 2.38668,18.496167 -6.25156,18.392547 -10.07909,-0.1209 -15.68106,1.17081 -16.98486,-4.83265 -1.40569,-6.47256 0.92981,-11.741266 9.66359,-15.532635 8.73377,-3.791368 8.91642,0.246366 13.57283,1.972738 z"
           inkscape:connector-curvature="0"
           sodipodi:nodetypes="sssss" />
        <path
           id="path3646"
           style="opacity:1;fill:#666666;fill-opacity:1;fill-rule:evenodd;stroke:none;stroke-width:0.529167;stroke-miterlimit:4;stroke-dasharray:none"
           d="m 379.96978,110.54322 c 0,1.75939 -1.99143,2.23003 -4.30062,2.23003 -2.30919,0 -3.14512,-0.83084 -3.22556,-2.58839 -0.0844,-1.84378 -0.69569,-4.08099 3.22556,-2.46895 2.13576,0.87802 4.30062,1.06792 4.30062,2.82731 z"
           inkscape:connector-curvature="0"
           sodipodi:nodetypes="sssss" />
        <path
           sodipodi:nodetypes="sssss"
           inkscape:connector-curvature="0"
           d="m 375.59095,94.877503 c 6.21036,2.302505 2.38668,18.496167 -6.25156,18.392547 -10.07909,-0.1209 -15.68106,1.17081 -16.98486,-4.83265 -1.40569,-6.47256 0.92981,-11.741266 9.66359,-15.532635 8.73377,-3.791368 8.91642,0.246366 13.57283,1.972738 z"
           style="opacity:1;fill:url(#radialGradient3717);fill-opacity:1;fill-rule:evenodd;stroke:none;stroke-width:0.529167;stroke-miterlimit:4;stroke-dasharray:none"
           id="path3675" />
        <path
           sodipodi:nodetypes="sssss"
           inkscape:connector-curvature="0"
           d="m 379.96978,110.54322 c 0,1.75939 -1.99143,2.23003 -4.30062,2.23003 -2.30919,0 -3.14512,-0.83084 -3.22556,-2.58839 -0.0844,-1.84378 -0.69569,-4.08099 3.22556,-2.46895 2.13576,0.87802 4.30062,1.06792 4.30062,2.82731 z"
           style="opacity:1;fill:url(#radialGradient3727);fill-opacity:1;fill-rule:evenodd;stroke:none;stroke-width:0.529167;stroke-miterlimit:4;stroke-dasharray:none"
           id="path3719" />
      </g>
      <g
         transform="matrix(-0.46115991,0,0,0.46115991,294.02645,134.09082)"
         id="g3635"
         style="display:inline">
        <ellipse
           style="opacity:1;fill:#00ffff;fill-opacity:1;fill-rule:evenodd;stroke:none;stroke-width:0.631021;stroke-miterlimit:4;stroke-dasharray:none"
           id="path3622"
           cx="15.398541"
           cy="-57.788078"
           rx="10.994668"
           ry="7.2369962"
           transform="rotate(-43.546976)" />
        <rect
           y="10.052305"
           x="6.6622338"
           height="83.82666"
           width="6.4966998"
           id="rect3564"
           style="opacity:1;fill:#000000;fill-opacity:1;fill-rule:evenodd;stroke:none;stroke-width:0.956947;stroke-miterlimit:4;stroke-dasharray:none" />
        <rect
           style="opacity:1;fill:#808080;fill-opacity:1;fill-rule:evenodd;stroke:none;stroke-width:0.700971;stroke-miterlimit:4;stroke-dasharray:none"
           id="rect3570"
           width="38.223568"
           height="6.4231596"
           x="-9.3363781"
           y="41.940304" />
        <rect
           style="opacity:1;fill:#000000;fill-opacity:1;fill-rule:evenodd;stroke:none;stroke-width:0.983759;stroke-miterlimit:4;stroke-dasharray:none"
           id="rect3566"
           width="6.4966998"
           height="88.589722"
           x="4.3203058"
           y="10.65007"
           transform="matrix(1,0,-0.32348117,0.94623461,0,0)" />
        <rect
           transform="matrix(-1,0,0.32348117,0.94623461,0,0)"
           y="10.65007"
           x="-15.537879"
           height="88.589722"
           width="6.4966998"
           id="rect3568"
           style="opacity:1;fill:#000000;fill-opacity:1;fill-rule:evenodd;stroke:none;stroke-width:0.983759;stroke-miterlimit:4;stroke-dasharray:none" />
        <rect
           style="opacity:1;fill:#b7c4c8;fill-opacity:1;fill-rule:evenodd;stroke:none;stroke-width:0.395824;stroke-miterlimit:4;stroke-dasharray:none"
           id="rect3611"
           width="9.5218334"
           height="8.0069952"
           x="9.459342"
           y="40.252747"
           rx="1.1648519"
           ry="1.1648519"
           transform="rotate(-46.324275)" />
        <path
           id="rect3615"
           style="opacity:1;fill:#ff0000;fill-opacity:1;fill-rule:evenodd;stroke:none;stroke-width:0.318527;stroke-miterlimit:4;stroke-dasharray:none"
           d="m -11.560872,-45.927983 c 2.3985362,-2.3168 2.4643371,-6.112822 0.147537,-8.511358 l -9.492124,-9.827 -20.066564,19.38275 9.492123,9.827001 c 2.3168,2.398536 6.112821,2.464335 8.511357,0.147535 z"
           inkscape:connector-curvature="0" />
        <rect
           style="opacity:1;fill:#333333;fill-opacity:1;fill-rule:evenodd;stroke:none;stroke-width:0.585922;stroke-miterlimit:4;stroke-dasharray:none"
           id="rect3609"
           width="83.638947"
           height="17.584654"
           x="-40.990555"
           y="-24.581295"
           ry="3.9991159"
           rx="7.6642332"
           transform="matrix(0.6959126,0.71812649,-0.70408615,0.71011457,0,0)" />
        <circle
           style="opacity:1;fill:#808080;fill-opacity:1;fill-rule:evenodd;stroke:none;stroke-width:0.743313;stroke-miterlimit:4;stroke-dasharray:none"
           id="path3605"
           cx="10.521164"
           cy="4.5397139"
           r="10.935548" />
        <circle
           cy="4.5397139"
           cx="10.521164"
           id="ellipse3607"
           style="opacity:1;fill:#e6e6e6;fill-opacity:1;fill-rule:evenodd;stroke:none;stroke-width:0.371657;stroke-miterlimit:4;stroke-dasharray:none"
           r="5.4677734" />
        <rect
           style="opacity:1;fill:#ff0000;fill-opacity:1;fill-rule:evenodd;stroke:none;stroke-width:0.288241;stroke-miterlimit:4;stroke-dasharray:none"
           id="rect3613"
           width="16.048727"
           height="7.2948761"
           x="8.6862087"
           y="46.674828"
           rx="2.1788273"
           ry="2.1788273"
           transform="rotate(-43.619233)" />
      </g>
      <g
         inkscape:transform-center-y="-1.4630602"
         inkscape:transform-center-x="-4.3891844"
         transform="matrix(0.12252658,0.71219031,0.71219031,-0.12252658,247.75924,42.077066)"
         id="g3265"
         style="display:inline">
        <g
           transform="matrix(0.23608793,-0.26568394,0.26568394,0.23608793,-39.723498,5.376625)"
           id="g3302">
          <g
             id="g3256"
             transform="matrix(1.3837894,0,0,1.3837894,-59.64611,-26.556799)">
            <path
               transform="scale(0.26458334)"
               d="M 418.88867,552.10547 H 268.26562 c 2.45749,4.83089 4.90819,9.7114 7.40626,14.29101 h 135.78515 c 2.50541,-4.58103 4.96455,-9.46202 7.43164,-14.29101 z"
               style="opacity:1;fill:#000000;fill-opacity:1;fill-rule:evenodd;stroke:none;stroke-width:4.06394"
               id="path3123"
               inkscape:connector-curvature="0" />
            <path
               inkscape:transform-center-y="-1.0072103e-06"
               inkscape:connector-curvature="0"
               d="m 120.49982,79.440669 v 4.529225 l -0.029,-0.01511 v 19.519136 l 20.66023,9.64858 -6.77102,-21.875633 -5.90279,-3.099237 -1.67418,-5.408244 z"
               inkscape:transform-center-x="1.8877151e-06"
               style="opacity:1;fill:#ff0000;fill-opacity:1;fill-rule:evenodd;stroke:none;stroke-width:0.529287"
               id="path3237" />
            <path
               id="path3245"
               style="opacity:1;fill:#ff0000;fill-opacity:1;fill-rule:evenodd;stroke:none;stroke-width:0.529287"
               inkscape:transform-center-x="-1.8877151e-06"
               d="m 61.661162,77.985708 v 4.529225 l 0.029,-0.01511 v 19.519137 l -20.66023,9.64858 6.77102,-21.875634 5.90279,-3.099237 1.67418,-5.408244 z"
               inkscape:connector-curvature="0"
               inkscape:transform-center-y="-1.0072103e-06" />
            <path
               transform="scale(0.26458334)"
               d="m 418.88086,176.89258 a 140,140 0 0 1 -0.68359,0.46875 140,140 0 0 1 -0.82422,0.55664 140,140 0 0 1 -0.82813,0.55078 140,140 0 0 1 -0.83398,0.54492 140,140 0 0 1 -0.83594,0.53906 140,140 0 0 1 -0.83984,0.53125 140,140 0 0 1 -0.84375,0.52735 140,140 0 0 1 -0.84766,0.52148 140,140 0 0 1 -0.85156,0.51563 140,140 0 0 1 -0.85547,0.50781 140,140 0 0 1 -0.85938,0.50195 140,140 0 0 1 -0.86132,0.49805 140,140 0 0 1 -0.86524,0.49023 140,140 0 0 1 -0.86914,0.48438 140,140 0 0 1 -0.87305,0.47656 140,140 0 0 1 -0.87695,0.47266 140,140 0 0 1 -0.87891,0.46484 140,140 0 0 1 -0.88281,0.46094 140,140 0 0 1 -0.88476,0.45312 140,140 0 0 1 -0.88868,0.44532 140,140 0 0 1 -0.89257,0.4414 140,140 0 0 1 -0.89649,0.4336 140,140 0 0 1 -0.89844,0.42773 140,140 0 0 1 -0.90039,0.42188 140,140 0 0 1 -0.90429,0.41406 140,140 0 0 1 -0.90821,0.4082 140,140 0 0 1 -0.91015,0.40235 140,140 0 0 1 -0.91211,0.39648 140,140 0 0 1 -0.91602,0.38867 140,140 0 0 1 -0.91797,0.38281 140,140 0 0 1 -0.92187,0.375 140,140 0 0 1 -0.92383,0.36914 140,140 0 0 1 -0.92578,0.36329 140,140 0 0 1 -0.92969,0.35547 140,140 0 0 1 -0.93164,0.35156 140,140 0 0 1 -0.93359,0.34179 140,140 0 0 1 -0.93555,0.33594 140,140 0 0 1 -0.93945,0.33008 140,140 0 0 1 -0.94141,0.32422 140,140 0 0 1 -0.94336,0.31445 140,140 0 0 1 -0.94531,0.31055 140,140 0 0 1 -0.94727,0.30273 140,140 0 0 1 -0.94921,0.29688 140,140 0 0 1 -0.95313,0.28906 140,140 0 0 1 -0.95313,0.2832 140,140 0 0 1 -0.95703,0.27539 140,140 0 0 1 -0.95703,0.26954 140,140 0 0 1 -0.96094,0.26171 140,140 0 0 1 -0.96093,0.25586 140,140 0 0 1 -0.96289,0.24805 140,140 0 0 1 -0.96485,0.24219 140,140 0 0 1 -0.96679,0.23437 140,140 0 0 1 -0.96875,0.22657 140,140 0 0 1 -0.97071,0.22265 140,140 0 0 1 -0.9707,0.21289 140,140 0 0 1 -0.97461,0.20703 140,140 0 0 1 -0.97461,0.20118 140,140 0 0 1 -0.97461,0.19335 140,140 0 0 1 -0.97851,0.18555 140,140 0 0 1 -0.97852,0.17969 140,140 0 0 1 -0.98047,0.17383 140,140 0 0 1 -0.98047,0.16406 140,140 0 0 1 -0.98242,0.16016 140,140 0 0 1 -0.98242,0.15039 140,140 0 0 1 -0.98438,0.14453 140,140 0 0 1 -0.98632,0.13867 140,140 0 0 1 -0.98633,0.13086 140,140 0 0 1 -0.98633,0.12305 140,140 0 0 1 -0.98828,0.11718 140,140 0 0 1 -0.98828,0.10938 140,140 0 0 1 -0.99024,0.10156 140,140 0 0 1 -0.99023,0.0957 140,140 0 0 1 -0.99219,0.0879 140,140 0 0 1 -0.99023,0.082 140,140 0 0 1 -0.99219,0.0742 140,140 0 0 1 -0.99414,0.0684 140,140 0 0 1 -0.99219,0.0586 140,140 0 0 1 -0.99414,0.0547 140,140 0 0 1 -0.99414,0.0449 140,140 0 0 1 -0.99414,0.0391 140,140 0 0 1 -0.99414,0.0332 140,140 0 0 1 -0.99414,0.0234 140,140 0 0 1 -0.99414,0.0195 140,140 0 0 1 -0.9961,0.01 140,140 0 0 1 -0.99414,0.004 140,140 0 0 1 -0.0254,0 140,140 0 0 1 -0.99414,-0.004 140,140 0 0 1 -0.99609,-0.01 140,140 0 0 1 -0.99414,-0.0176 140,140 0 0 1 -0.99414,-0.0254 140,140 0 0 1 -0.9961,-0.0312 140,140 0 0 1 -0.99414,-0.0391 140,140 0 0 1 -0.99219,-0.0469 140,140 0 0 1 -0.99414,-0.0527 140,140 0 0 1 -0.99414,-0.0606 140,140 0 0 1 -0.99218,-0.0664 140,140 0 0 1 -0.99219,-0.0742 140,140 0 0 1 -0.99219,-0.082 140,140 0 0 1 -0.99023,-0.0879 140,140 0 0 1 -0.99024,-0.0957 140,140 0 0 1 -0.99023,-0.10156 140,140 0 0 1 -0.98828,-0.10937 140,140 0 0 1 -0.98828,-0.11719 140,140 0 0 1 -0.98829,-0.12305 140,140 0 0 1 -0.98632,-0.1289 140,140 0 0 1 -0.98438,-0.13868 140,140 0 0 1 -0.98437,-0.14453 140,140 0 0 1 -0.98438,-0.15039 140,140 0 0 1 -0.98242,-0.1582 140,140 0 0 1 -0.98047,-0.16602 140,140 0 0 1 -0.98047,-0.17187 140,140 0 0 1 -0.97851,-0.17969 140,140 0 0 1 -0.97657,-0.1875 140,140 0 0 1 -0.97656,-0.19336 140,140 0 0 1 -0.97461,-0.19922 140,140 0 0 1 -0.97265,-0.20703 140,140 0 0 1 -0.97266,-0.21484 140,140 0 0 1 -0.96875,-0.2207 140,140 0 0 1 -0.96875,-0.22657 140,140 0 0 1 -0.9668,-0.23437 140,140 0 0 1 -0.96484,-0.24219 140,140 0 0 1 -0.96484,-0.24805 140,140 0 0 1 -0.96094,-0.25586 140,140 0 0 1 -0.96094,-0.26172 140,140 0 0 1 -0.95703,-0.26953 140,140 0 0 1 -0.95508,-0.27539 140,140 0 0 1 -0.95508,-0.28125 140,140 0 0 1 -0.95117,-0.29101 140,140 0 0 1 -0.95117,-0.29492 140,140 0 0 1 -0.94727,-0.30274 140,140 0 0 1 -0.94531,-0.31055 140,140 0 0 1 -0.94336,-0.31445 140,140 0 0 1 -0.94141,-0.32422 140,140 0 0 1 -0.93945,-0.32812 140,140 0 0 1 -0.93555,-0.33789 140,140 0 0 1 -0.93359,-0.3418 140,140 0 0 1 -0.93164,-0.34961 140,140 0 0 1 -0.92969,-0.35547 140,140 0 0 1 -0.92578,-0.36328 140,140 0 0 1 -0.92383,-0.36914 140,140 0 0 1 -0.92187,-0.375 140,140 0 0 1 -0.91797,-0.38281 140,140 0 0 1 -0.91602,-0.38867 140,140 0 0 1 -0.91406,-0.39649 140,140 0 0 1 -0.91015,-0.40039 140,140 0 0 1 -0.90625,-0.41016 140,140 0 0 1 -0.9043,-0.41406 140,140 0 0 1 -0.90235,-0.42187 140,140 0 0 1 -0.89843,-0.42578 140,140 0 0 1 -0.89453,-0.43555 140,140 0 0 1 -0.89258,-0.43945 140,140 0 0 1 -0.88867,-0.44727 140,140 0 0 1 -0.88672,-0.45313 140,140 0 0 1 -0.88281,-0.45898 140,140 0 0 1 -0.87891,-0.46484 140,140 0 0 1 -0.87695,-0.47266 140,140 0 0 1 -0.8711,-0.47656 140,140 0 0 1 -0.87109,-0.48438 140,140 0 0 1 -0.86524,-0.49023 140,140 0 0 1 -0.86132,-0.49609 140,140 0 0 1 -0.85938,-0.50391 140,140 0 0 1 -0.85547,-0.50781 140,140 0 0 1 -0.85156,-0.51368 140,140 0 0 1 -0.84766,-0.52148 140,140 0 0 1 -0.84375,-0.52734 140,140 0 0 1 -0.80664,-0.51172 c -24.3643,50.90094 -45.26953,114.41045 -45.26953,183.68164 0,71.55695 23.09339,137.12007 49.40234,188.83789 h 150.62305 c 26.54882,-51.96555 49.97461,-117.70967 49.97461,-188.83789 0,-70.52097 -23.24158,-135.03662 -49.98242,-186.375 z"
               style="opacity:1;fill:#b3b3b3;fill-opacity:1;fill-rule:evenodd;stroke:none;stroke-width:4.06394"
               id="path3178"
               inkscape:connector-curvature="0" />
            <path
               d="m 69.885025,47.515367 a 37.041668,37.041668 0 0 0 0.213423,0.135392 37.041668,37.041668 0 0 0 0.223243,0.139528 37.041668,37.041668 0 0 0 0.224275,0.137975 37.041668,37.041668 0 0 0 0.22531,0.135909 37.041668,37.041668 0 0 0 0.226342,0.134358 37.041668,37.041668 0 0 0 0.227377,0.133326 37.041668,37.041668 0 0 0 0.227893,0.131257 37.041668,37.041668 0 0 0 0.228926,0.129709 37.041668,37.041668 0 0 0 0.230477,0.128157 37.041668,37.041668 0 0 0 0.230477,0.126092 37.041668,37.041668 0 0 0 0.232027,0.125055 37.041668,37.041668 0 0 0 0.232544,0.122992 37.041668,37.041668 0 0 0 0.233578,0.121438 37.041668,37.041668 0 0 0 0.234611,0.119891 37.041668,37.041668 0 0 0 0.235128,0.118338 37.041668,37.041668 0 0 0 0.236161,0.116271 37.041668,37.041668 0 0 0 0.236678,0.115239 37.041668,37.041668 0 0 0 0.237712,0.112654 37.041668,37.041668 0 0 0 0.238745,0.111623 37.041668,37.041668 0 0 0 0.239261,0.109553 37.041668,37.041668 0 0 0 0.239779,0.108522 37.041668,37.041668 0 0 0 0.240812,0.105936 37.041668,37.041668 0 0 0 0.241846,0.104902 37.041668,37.041668 0 0 0 0.242363,0.102836 37.041668,37.041668 0 0 0 0.242879,0.101288 37.041668,37.041668 0 0 0 0.243912,0.09922 37.041668,37.041668 0 0 0 0.24443,0.09767 37.041668,37.041668 0 0 0 0.244946,0.09612 37.041668,37.041668 0 0 0 0.24598,0.09405 37.041668,37.041668 0 0 0 0.246497,0.0925 37.041668,37.041668 0 0 0 0.247013,0.09043 37.041668,37.041668 0 0 0 0.24753,0.0894 37.041668,37.041668 0 0 0 0.248564,0.08682 37.041668,37.041668 0 0 0 0.24908,0.08578 37.041668,37.041668 0 0 0 0.249597,0.0832 37.041668,37.041668 0 0 0 0.250114,0.08217 37.041668,37.041668 0 0 0 0.250631,0.0801 37.041668,37.041668 0 0 0 0.251664,0.07803 37.041668,37.041668 0 0 0 0.251665,0.077 37.041668,37.041668 0 0 0 0.252697,0.07441 37.041668,37.041668 0 0 0 0.252698,0.07286 37.041668,37.041668 0 0 0 0.253215,0.07131 37.041668,37.041668 0 0 0 0.254248,0.06925 37.041668,37.041668 0 0 0 0.254248,0.0677 37.041668,37.041668 0 0 0 0.255281,0.06563 37.041668,37.041668 0 0 0 0.255282,0.06408 37.041668,37.041668 0 0 0 0.255798,0.06201 37.041668,37.041668 0 0 0 0.256315,0.05994 37.041668,37.041668 0 0 0 0.256315,0.05839 37.041668,37.041668 0 0 0 0.257349,0.05685 37.041668,37.041668 0 0 0 0.257349,0.05478 37.041668,37.041668 0 0 0 0.257865,0.05271 37.041668,37.041668 0 0 0 0.258382,0.05116 37.041668,37.041668 0 0 0 0.258382,0.04961 37.041668,37.041668 0 0 0 0.2589,0.04754 37.041668,37.041668 0 0 0 0.259415,0.04547 37.041668,37.041668 0 0 0 0.259416,0.04393 37.041668,37.041668 0 0 0 0.259932,0.04186 37.041668,37.041668 0 0 0 0.26045,0.03979 37.041668,37.041668 0 0 0 0.260449,0.03824 37.041668,37.041668 0 0 0 0.260448,0.03669 37.041668,37.041668 0 0 0 0.260966,0.03411 37.041668,37.041668 0 0 0 0.261483,0.03256 37.041668,37.041668 0 0 0 0.261485,0.031 37.041668,37.041668 0 0 0 0.261482,0.02894 37.041668,37.041668 0 0 0 0.261998,0.02687 37.041668,37.041668 0 0 0 0.262001,0.02532 37.041668,37.041668 0 0 0 0.261999,0.02326 37.041668,37.041668 0 0 0 0.262517,0.02169 37.041668,37.041668 0 0 0 0.262517,0.01963 37.041668,37.041668 0 0 0 0.262514,0.01757 37.041668,37.041668 0 0 0 0.263033,0.01603 37.041668,37.041668 0 0 0 0.263033,0.01394 37.041668,37.041668 0 0 0 0.262517,0.01241 37.041668,37.041668 0 0 0 0.263033,0.01035 37.041668,37.041668 0 0 0 0.263551,0.0083 37.041668,37.041668 0 0 0 0.263033,0.0067 37.041668,37.041668 0 0 0 0.263033,0.0047 37.041668,37.041668 0 0 0 0.263549,0.0026 37.041668,37.041668 0 0 0 0.263032,0.0011 37.041668,37.041668 0 0 0 0.0067,0 37.041668,37.041668 0 0 0 0.263033,-0.0011 37.041668,37.041668 0 0 0 0.263551,-0.0026 37.041668,37.041668 0 0 0 0.263033,-0.0052 37.041668,37.041668 0 0 0 0.263033,-0.0062 37.041668,37.041668 0 0 0 0.263033,-0.0088 37.041668,37.041668 0 0 0 0.263033,-0.01035 37.041668,37.041668 0 0 0 0.263033,-0.01188 37.041668,37.041668 0 0 0 0.263033,-0.01447 37.041668,37.041668 0 0 0 0.262516,-0.01551 37.041668,37.041668 0 0 0 0.263033,-0.0181 37.041668,37.041668 0 0 0 0.262517,-0.01963 37.041668,37.041668 0 0 0 0.261999,-0.0217 37.041668,37.041668 0 0 0 0.262517,-0.02326 37.041668,37.041668 0 0 0 0.261998,-0.02532 37.041668,37.041668 0 0 0 0.262001,-0.02687 37.041668,37.041668 0 0 0 0.261482,-0.02894 37.041668,37.041668 0 0 0 0.261483,-0.03101 37.041668,37.041668 0 0 0 0.260966,-0.03256 37.041668,37.041668 0 0 0 0.260967,-0.03462 37.041668,37.041668 0 0 0 0.260964,-0.03669 37.041668,37.041668 0 0 0 0.26045,-0.03824 37.041668,37.041668 0 0 0 0.259932,-0.03979 37.041668,37.041668 0 0 0 0.259932,-0.04237 37.041668,37.041668 0 0 0 0.259416,-0.04341 37.041668,37.041668 0 0 0 0.259416,-0.04599 37.041668,37.041668 0 0 0 0.2589,-0.04754 37.041668,37.041668 0 0 0 0.258898,-0.04909 37.041668,37.041668 0 0 0 0.257865,-0.05116 37.041668,37.041668 0 0 0 0.257866,-0.05323 37.041668,37.041668 0 0 0 0.257865,-0.05478 37.041668,37.041668 0 0 0 0.256831,-0.05633 37.041668,37.041668 0 0 0 0.256831,-0.05891 37.041668,37.041668 0 0 0 0.256318,-0.05994 37.041668,37.041668 0 0 0 0.255797,-0.06201 37.041668,37.041668 0 0 0 0.255283,-0.06408 37.041668,37.041668 0 0 0 0.254765,-0.06563 37.041668,37.041668 0 0 0 0.254246,-0.0677 37.041668,37.041668 0 0 0 0.254248,-0.06925 37.041668,37.041668 0 0 0 0.253215,-0.07131 37.041668,37.041668 0 0 0 0.253216,-0.07286 37.041668,37.041668 0 0 0 0.25218,-0.07493 37.041668,37.041668 0 0 0 0.25218,-0.07648 37.041668,37.041668 0 0 0 0.25115,-0.07855 37.041668,37.041668 0 0 0 0.25063,-0.0801 37.041668,37.041668 0 0 0 0.25011,-0.08216 37.041668,37.041668 0 0 0 0.2496,-0.0832 37.041668,37.041668 0 0 0 0.24908,-0.08578 37.041668,37.041668 0 0 0 0.24857,-0.08733 37.041668,37.041668 0 0 0 0.24753,-0.08888 37.041668,37.041668 0 0 0 0.24701,-0.09043 37.041668,37.041668 0 0 0 0.2465,-0.09302 37.041668,37.041668 0 0 0 0.24598,-0.09405 37.041668,37.041668 0 0 0 0.24494,-0.09612 37.041668,37.041668 0 0 0 0.24443,-0.09767 37.041668,37.041668 0 0 0 0.24391,-0.09922 37.041668,37.041668 0 0 0 0.24288,-0.101285 37.041668,37.041668 0 0 0 0.24237,-0.102836 37.041668,37.041668 0 0 0 0.24133,-0.104905 37.041668,37.041668 0 0 0 0.24081,-0.106452 37.041668,37.041668 0 0 0 0.24029,-0.108006 37.041668,37.041668 0 0 0 0.23926,-0.109553 37.041668,37.041668 0 0 0 0.23823,-0.11162 37.041668,37.041668 0 0 0 0.23771,-0.113173 37.041668,37.041668 0 0 0 0.2372,-0.11472 37.041668,37.041668 0 0 0 0.23616,-0.11679 37.041668,37.041668 0 0 0 0.23513,-0.117822 37.041668,37.041668 0 0 0 0.23409,-0.119888 37.041668,37.041668 0 0 0 0.23358,-0.121957 37.041668,37.041668 0 0 0 0.23254,-0.122991 37.041668,37.041668 0 0 0 0.23203,-0.125056 37.041668,37.041668 0 0 0 0.23099,-0.126089 37.041668,37.041668 0 0 0 0.22996,-0.128159 37.041668,37.041668 0 0 0 0.22893,-0.129707 37.041668,37.041668 0 0 0 0.22789,-0.131776 37.041668,37.041668 0 0 0 0.22738,-0.132807 37.041668,37.041668 0 0 0 0.22634,-0.134361 37.041668,37.041668 0 0 0 0.22531,-0.136424 37.041668,37.041668 0 0 0 0.22428,-0.137978 37.041668,37.041668 0 0 0 0.22324,-0.139525 37.041668,37.041668 0 0 0 0.22221,-0.14056 37.041668,37.041668 0 0 0 0.22117,-0.142627 37.041668,37.041668 0 0 0 0.22066,-0.144176 37.041668,37.041668 0 0 0 0.21911,-0.14573 37.041668,37.041668 0 0 0 0.21807,-0.147278 37.041668,37.041668 0 0 0 0.18087,-0.124023 c -0.62045,-1.191178 -1.23727,-2.400179 -1.86862,-3.535702 a 33.072918,33.072918 0 0 1 -0.0424,0.02997 33.072918,33.072918 0 0 1 -0.20361,0.143145 33.072918,33.072918 0 0 1 -0.20464,0.141076 33.072918,33.072918 0 0 1 -0.20618,0.140044 33.072918,33.072918 0 0 1 -0.20671,0.137975 33.072918,33.072918 0 0 1 -0.20774,0.136943 33.072918,33.072918 0 0 1 -0.20877,0.134877 33.072918,33.072918 0 0 1 -0.20981,0.133842 33.072918,33.072918 0 0 1 -0.21084,0.131773 33.072918,33.072918 0 0 1 -0.21187,0.130225 33.072918,33.072918 0 0 1 -0.21291,0.128675 33.072918,33.072918 0 0 1 -0.21394,0.12764 33.072918,33.072918 0 0 1 -0.21446,0.125574 33.072918,33.072918 0 0 1 -0.216,0.123508 33.072918,33.072918 0 0 1 -0.21653,0.122473 33.072918,33.072918 0 0 1 -0.21756,0.120922 33.072918,33.072918 0 0 1 -0.21807,0.118856 33.072918,33.072918 0 0 1 -0.21962,0.117306 33.072918,33.072918 0 0 1 -0.22015,0.115755 33.072918,33.072918 0 0 1 -0.22066,0.114205 33.072918,33.072918 0 0 1 -0.2222,0.112138 33.072918,33.072918 0 0 1 -0.22273,0.111104 33.072918,33.072918 0 0 1 -0.22324,0.109038 33.072918,33.072918 0 0 1 -0.22479,0.107487 33.072918,33.072918 0 0 1 -0.2248,0.10542 33.072918,33.072918 0 0 1 -0.22634,0.103868 33.072918,33.072918 0 0 1 -0.22634,0.102319 33.072918,33.072918 0 0 1 -0.22789,0.10077 33.072918,33.072918 0 0 1 -0.2279,0.0987 33.072918,33.072918 0 0 1 -0.22893,0.09715 33.072918,33.072918 0 0 1 -0.22996,0.0956 33.072918,33.072918 0 0 1 -0.23047,0.09354 33.072918,33.072918 0 0 1 -0.231,0.09198 33.072918,33.072918 0 0 1 -0.23202,0.09043 33.072918,33.072918 0 0 1 -0.23255,0.08837 33.072918,33.072918 0 0 1 -0.23306,0.08682 33.072918,33.072918 0 0 1 -0.23358,0.08475 33.072918,33.072918 0 0 1 -0.23461,0.0832 33.072918,33.072918 0 0 1 -0.23512,0.08165 33.072918,33.072918 0 0 1 -0.23565,0.07958 33.072918,33.072918 0 0 1 -0.23616,0.07803 33.072918,33.072918 0 0 1 -0.236678,0.07596 33.072918,33.072918 0 0 1 -0.237196,0.07441 33.072918,33.072918 0 0 1 -0.238228,0.07235 33.072918,33.072918 0 0 1 -0.238228,0.0708 33.072918,33.072918 0 0 1 -0.239263,0.06925 33.072918,33.072918 0 0 1 -0.23926,0.06718 33.072918,33.072918 0 0 1 -0.240297,0.06511 33.072918,33.072918 0 0 1 -0.240295,0.06356 33.072918,33.072918 0 0 1 -0.240813,0.06201 33.072918,33.072918 0 0 1 -0.241845,0.05994 33.072918,33.072918 0 0 1 -0.241845,0.05788 33.072918,33.072918 0 0 1 -0.241845,0.05633 33.072918,33.072918 0 0 1 -0.24288,0.05426 33.072918,33.072918 0 0 1 -0.243395,0.05271 33.072918,33.072918 0 0 1 -0.243399,0.05116 33.072918,33.072918 0 0 1 -0.243911,0.04857 33.072918,33.072918 0 0 1 -0.243914,0.04754 33.072918,33.072918 0 0 1 -0.244946,0.04496 33.072918,33.072918 0 0 1 -0.244946,0.04341 33.072918,33.072918 0 0 1 -0.244946,0.04186 33.072918,33.072918 0 0 1 -0.245462,0.03979 33.072918,33.072918 0 0 1 -0.24598,0.03772 33.072918,33.072918 0 0 1 -0.245981,0.03617 33.072918,33.072918 0 0 1 -0.246496,0.03411 33.072918,33.072918 0 0 1 -0.246497,0.03256 33.072918,33.072918 0 0 1 -0.247012,0.03049 33.072918,33.072918 0 0 1 -0.247015,0.02842 33.072918,33.072918 0 0 1 -0.247528,0.02687 33.072918,33.072918 0 0 1 -0.247531,0.02479 33.072918,33.072918 0 0 1 -0.247531,0.02326 33.072918,33.072918 0 0 1 -0.248047,0.02119 33.072918,33.072918 0 0 1 -0.248047,0.01913 33.072918,33.072918 0 0 1 -0.248047,0.01757 33.072918,33.072918 0 0 1 -0.248047,0.01601 33.072918,33.072918 0 0 1 -0.248563,0.01344 33.072918,33.072918 0 0 1 -0.248562,0.01188 33.072918,33.072918 0 0 1 -0.248566,0.0098 33.072918,33.072918 0 0 1 -0.248563,0.0083 33.072918,33.072918 0 0 1 -0.248562,0.0062 33.072918,33.072918 0 0 1 -0.248566,0.0047 33.072918,33.072918 0 0 1 -0.248563,0.0026 33.072918,33.072918 0 0 1 -0.211357,5.29e-4 33.072918,33.072918 0 0 1 -0.248563,-0.0011 33.072918,33.072918 0 0 1 -0.249081,-0.0026 33.072918,33.072918 0 0 1 -0.248563,-0.0047 33.072918,33.072918 0 0 1 -0.248563,-0.0067 33.072918,33.072918 0 0 1 -0.248565,-0.0083 33.072918,33.072918 0 0 1 -0.248563,-0.01035 33.072918,33.072918 0 0 1 -0.248563,-0.01241 33.072918,33.072918 0 0 1 -0.248565,-0.01394 33.072918,33.072918 0 0 1 -0.248047,-0.01601 33.072918,33.072918 0 0 1 -0.248047,-0.01757 33.072918,33.072918 0 0 1 -0.248047,-0.01963 33.072918,33.072918 0 0 1 -0.248047,-0.02119 33.072918,33.072918 0 0 1 -0.247528,-0.02376 33.072918,33.072918 0 0 1 -0.247531,-0.02479 33.072918,33.072918 0 0 1 -0.247012,-0.02739 33.072918,33.072918 0 0 1 -0.247015,-0.02894 33.072918,33.072918 0 0 1 -0.247013,-0.03049 33.072918,33.072918 0 0 1 -0.246496,-0.03307 33.072918,33.072918 0 0 1 -0.246497,-0.03411 33.072918,33.072918 0 0 1 -0.24598,-0.03669 33.072918,33.072918 0 0 1 -0.245981,-0.03824 33.072918,33.072918 0 0 1 -0.245462,-0.03979 33.072918,33.072918 0 0 1 -0.244947,-0.04186 33.072918,33.072918 0 0 1 -0.244946,-0.04393 33.072918,33.072918 0 0 1 -0.244429,-0.04547 33.072918,33.072918 0 0 1 -0.24443,-0.04754 33.072918,33.072918 0 0 1 -0.243913,-0.04909 33.072918,33.072918 0 0 1 -0.243396,-0.05116 33.072918,33.072918 0 0 1 -0.242879,-0.05271 33.072918,33.072918 0 0 1 -0.242879,-0.05478 33.072918,33.072918 0 0 1 -0.241846,-0.05684 33.072918,33.072918 0 0 1 -0.241846,-0.0584 33.072918,33.072918 0 0 1 -0.241328,-0.05994 33.072918,33.072918 0 0 1 -0.240813,-0.06201 33.072918,33.072918 0 0 1 -0.240812,-0.06408 33.072918,33.072918 0 0 1 -0.239778,-0.06563 33.072918,33.072918 0 0 1 -0.239262,-0.06718 33.072918,33.072918 0 0 1 -0.239262,-0.06925 33.072918,33.072918 0 0 1 -0.238229,-0.07131 33.072918,33.072918 0 0 1 -0.237711,-0.07286 33.072918,33.072918 0 0 1 -0.237195,-0.07441 33.072918,33.072918 0 0 1 -0.237195,-0.07648 33.072918,33.072918 0 0 1 -0.236161,-0.07803 33.072918,33.072918 0 0 1 -0.235128,-0.0801 33.072918,33.072918 0 0 1 -0.235128,-0.08165 33.072918,33.072918 0 0 1 -0.234094,-0.0832 33.072918,33.072918 0 0 1 -0.234094,-0.08527 33.072918,33.072918 0 0 1 -0.233061,-0.08733 33.072918,33.072918 0 0 1 -0.232027,-0.08837 33.072918,33.072918 0 0 1 -0.232027,-0.09043 33.072918,33.072918 0 0 1 -0.230994,-0.0925 33.072918,33.072918 0 0 1 -0.22996,-0.09405 33.072918,33.072918 0 0 1 -0.22996,-0.0956 33.072918,33.072918 0 0 1 -0.228927,-0.09715 33.072918,33.072918 0 0 1 -0.227893,-0.09922 A 33.072918,33.072918 0 0 1 76.298022,46.4782 33.072918,33.072918 0 0 1 76.071162,46.375364 33.072918,33.072918 0 0 1 75.845387,46.271007 33.072918,33.072918 0 0 1 75.620595,46.165071 33.072918,33.072918 0 0 1 75.396319,46.057584 33.072918,33.072918 0 0 1 75.17256,45.948546 33.072918,33.072918 0 0 1 74.950351,45.837443 33.072918,33.072918 0 0 1 74.72866,45.724788 33.072918,33.072918 0 0 1 74.507484,45.610584 33.072918,33.072918 0 0 1 74.287343,45.49431 33.072918,33.072918 0 0 1 74.068235,45.376488 33.072918,33.072918 0 0 1 73.85016,45.257632 33.072918,33.072918 0 0 1 73.632602,45.136709 33.072918,33.072918 0 0 1 73.416078,45.013721 33.072918,33.072918 0 0 1 73.200587,44.889697 33.072918,33.072918 0 0 1 72.98613,44.764123 33.072918,33.072918 0 0 1 72.77219,44.63648 33.072918,33.072918 0 0 1 72.5598,44.50729 33.072918,33.072918 0 0 1 72.347926,44.377067 33.072918,33.072918 0 0 1 72.137086,44.244775 33.072918,33.072918 0 0 1 71.927797,44.110933 33.072918,33.072918 0 0 1 71.719024,43.97554 33.072918,33.072918 0 0 1 71.634274,43.91973 c -0.591868,1.156044 -1.169029,2.383478 -1.749248,3.595646 z"
               style="opacity:1;fill:#800000;fill-opacity:1;fill-rule:evenodd;stroke:none;stroke-width:1.07525"
               id="path3159"
               inkscape:connector-curvature="0" />
            <path
               d="m 71.634272,43.919721 a 33.072918,33.072918 0 0 0 0.08475,0.05581 33.072918,33.072918 0 0 0 0.208773,0.135392 33.072918,33.072918 0 0 0 0.20929,0.133842 33.072918,33.072918 0 0 0 0.21084,0.132292 33.072918,33.072918 0 0 0 0.211873,0.130223 33.072918,33.072918 0 0 0 0.21239,0.12919 33.072918,33.072918 0 0 0 0.21394,0.127643 33.072918,33.072918 0 0 0 0.214458,0.125574 33.072918,33.072918 0 0 0 0.21549,0.124024 33.072918,33.072918 0 0 0 0.216525,0.122989 33.072918,33.072918 0 0 0 0.217557,0.120922 33.072918,33.072918 0 0 0 0.218075,0.118856 33.072918,33.072918 0 0 0 0.219108,0.117822 33.072918,33.072918 0 0 0 0.220142,0.116274 33.072918,33.072918 0 0 0 0.221175,0.114204 33.072918,33.072918 0 0 0 0.221692,0.112655 33.072918,33.072918 0 0 0 0.222208,0.111103 33.072918,33.072918 0 0 0 0.223759,0.109038 33.072918,33.072918 0 0 0 0.224276,0.107487 33.072918,33.072918 0 0 0 0.224793,0.105936 33.072918,33.072918 0 0 0 0.225826,0.104386 33.072918,33.072918 0 0 0 0.226859,0.102836 33.072918,33.072918 0 0 0 0.227377,0.100769 33.072918,33.072918 0 0 0 0.227893,0.09922 33.072918,33.072918 0 0 0 0.228926,0.09715 33.072918,33.072918 0 0 0 0.22996,0.0956 33.072918,33.072918 0 0 0 0.22996,0.09405 33.072918,33.072918 0 0 0 0.230994,0.0925 33.072918,33.072918 0 0 0 0.232027,0.09044 33.072918,33.072918 0 0 0 0.232027,0.08837 33.072918,33.072918 0 0 0 0.233061,0.08733 33.072918,33.072918 0 0 0 0.234094,0.08527 33.072918,33.072918 0 0 0 0.234095,0.0832 33.072918,33.072918 0 0 0 0.235127,0.08165 33.072918,33.072918 0 0 0 0.235128,0.0801 33.072918,33.072918 0 0 0 0.236162,0.07803 33.072918,33.072918 0 0 0 0.237194,0.07648 33.072918,33.072918 0 0 0 0.237195,0.07441 33.072918,33.072918 0 0 0 0.237712,0.07286 33.072918,33.072918 0 0 0 0.238228,0.07131 33.072918,33.072918 0 0 0 0.239262,0.06925 33.072918,33.072918 0 0 0 0.239262,0.06718 33.072918,33.072918 0 0 0 0.239779,0.06563 33.072918,33.072918 0 0 0 0.240812,0.06408 33.072918,33.072918 0 0 0 0.240812,0.06201 33.072918,33.072918 0 0 0 0.241329,0.05994 33.072918,33.072918 0 0 0 0.241846,0.0584 33.072918,33.072918 0 0 0 0.241845,0.05684 33.072918,33.072918 0 0 0 0.242879,0.05478 33.072918,33.072918 0 0 0 0.24288,0.05271 33.072918,33.072918 0 0 0 0.243396,0.05116 33.072918,33.072918 0 0 0 0.243913,0.04909 33.072918,33.072918 0 0 0 0.244429,0.04754 33.072918,33.072918 0 0 0 0.24443,0.04547 33.072918,33.072918 0 0 0 0.244946,0.04393 33.072918,33.072918 0 0 0 0.244947,0.04186 33.072918,33.072918 0 0 0 0.245462,0.03979 33.072918,33.072918 0 0 0 0.24598,0.03824 33.072918,33.072918 0 0 0 0.245981,0.03669 33.072918,33.072918 0 0 0 0.246496,0.03411 33.072918,33.072918 0 0 0 0.246497,0.03307 33.072918,33.072918 0 0 0 0.247012,0.03049 33.072918,33.072918 0 0 0 0.247015,0.02894 33.072918,33.072918 0 0 0 0.247012,0.02739 33.072918,33.072918 0 0 0 0.247531,0.02479 33.072918,33.072918 0 0 0 0.247529,0.02376 33.072918,33.072918 0 0 0 0.248046,0.02119 33.072918,33.072918 0 0 0 0.248047,0.01963 33.072918,33.072918 0 0 0 0.248047,0.01757 33.072918,33.072918 0 0 0 0.248047,0.01601 33.072918,33.072918 0 0 0 0.248566,0.01394 33.072918,33.072918 0 0 0 0.248562,0.01241 33.072918,33.072918 0 0 0 0.248563,0.01035 33.072918,33.072918 0 0 0 0.248566,0.0083 33.072918,33.072918 0 0 0 0.248562,0.0067 33.072918,33.072918 0 0 0 0.248563,0.0047 33.072918,33.072918 0 0 0 0.249082,0.0026 33.072918,33.072918 0 0 0 0.248562,0.0011 33.072918,33.072918 0 0 0 0.211358,-5.29e-4 33.072918,33.072918 0 0 0 0.248562,-0.0026 33.072918,33.072918 0 0 0 0.248566,-0.0047 33.072918,33.072918 0 0 0 0.248563,-0.0062 33.072918,33.072918 0 0 0 0.248563,-0.0083 33.072918,33.072918 0 0 0 0.248565,-0.0098 33.072918,33.072918 0 0 0 0.248563,-0.01188 33.072918,33.072918 0 0 0 0.248563,-0.01344 33.072918,33.072918 0 0 0 0.248046,-0.01601 33.072918,33.072918 0 0 0 0.248047,-0.01757 33.072918,33.072918 0 0 0 0.248047,-0.01913 33.072918,33.072918 0 0 0 0.248047,-0.02119 33.072918,33.072918 0 0 0 0.247531,-0.02326 33.072918,33.072918 0 0 0 0.247531,-0.02479 33.072918,33.072918 0 0 0 0.247528,-0.02687 33.072918,33.072918 0 0 0 0.247015,-0.02842 33.072918,33.072918 0 0 0 0.247013,-0.03049 33.072918,33.072918 0 0 0 0.246496,-0.03256 33.072918,33.072918 0 0 0 0.246497,-0.03411 33.072918,33.072918 0 0 0 0.24598,-0.03617 33.072918,33.072918 0 0 0 0.24598,-0.03772 33.072918,33.072918 0 0 0 0.245462,-0.03979 33.072918,33.072918 0 0 0 0.244946,-0.04186 33.072918,33.072918 0 0 0 0.244946,-0.04341 33.072918,33.072918 0 0 0 0.244946,-0.04496 33.072918,33.072918 0 0 0 0.243914,-0.04754 33.072918,33.072918 0 0 0 0.243912,-0.04857 33.072918,33.072918 0 0 0 0.243398,-0.05116 33.072918,33.072918 0 0 0 0.243395,-0.05271 33.072918,33.072918 0 0 0 0.24288,-0.05426 33.072918,33.072918 0 0 0 0.241845,-0.05633 33.072918,33.072918 0 0 0 0.241845,-0.05788 33.072918,33.072918 0 0 0 0.241845,-0.05994 33.072918,33.072918 0 0 0 0.240813,-0.06201 33.072918,33.072918 0 0 0 0.240295,-0.06356 33.072918,33.072918 0 0 0 0.240297,-0.06511 33.072918,33.072918 0 0 0 0.23926,-0.06718 33.072918,33.072918 0 0 0 0.239263,-0.06925 33.072918,33.072918 0 0 0 0.238228,-0.0708 33.072918,33.072918 0 0 0 0.238228,-0.07235 33.072918,33.072918 0 0 0 0.237197,-0.07441 33.072918,33.072918 0 0 0 0.236678,-0.07596 33.072918,33.072918 0 0 0 0.23616,-0.07803 33.072918,33.072918 0 0 0 0.23564,-0.07958 33.072918,33.072918 0 0 0 0.23513,-0.08165 33.072918,33.072918 0 0 0 0.23461,-0.0832 33.072918,33.072918 0 0 0 0.23358,-0.08475 33.072918,33.072918 0 0 0 0.23306,-0.08681 33.072918,33.072918 0 0 0 0.23255,-0.08837 33.072918,33.072918 0 0 0 0.23202,-0.09043 33.072918,33.072918 0 0 0 0.231,-0.09199 33.072918,33.072918 0 0 0 0.23047,-0.09354 33.072918,33.072918 0 0 0 0.22996,-0.0956 33.072918,33.072918 0 0 0 0.22893,-0.09715 33.072918,33.072918 0 0 0 0.22789,-0.0987 33.072918,33.072918 0 0 0 0.22789,-0.10077 33.072918,33.072918 0 0 0 0.22635,-0.102319 33.072918,33.072918 0 0 0 0.22634,-0.103868 33.072918,33.072918 0 0 0 0.22479,-0.10542 33.072918,33.072918 0 0 0 0.2248,-0.107487 33.072918,33.072918 0 0 0 0.22324,-0.109038 33.072918,33.072918 0 0 0 0.22272,-0.111104 33.072918,33.072918 0 0 0 0.22221,-0.112138 33.072918,33.072918 0 0 0 0.22066,-0.114205 33.072918,33.072918 0 0 0 0.22014,-0.115755 33.072918,33.072918 0 0 0 0.21963,-0.117306 33.072918,33.072918 0 0 0 0.21807,-0.118856 33.072918,33.072918 0 0 0 0.21756,-0.120922 33.072918,33.072918 0 0 0 0.21652,-0.122473 33.072918,33.072918 0 0 0 0.21601,-0.123508 33.072918,33.072918 0 0 0 0.21446,-0.125574 33.072918,33.072918 0 0 0 0.21394,-0.12764 33.072918,33.072918 0 0 0 0.21291,-0.128675 33.072918,33.072918 0 0 0 0.21187,-0.130225 33.072918,33.072918 0 0 0 0.21084,-0.131773 33.072918,33.072918 0 0 0 0.20981,-0.133842 33.072918,33.072918 0 0 0 0.20877,-0.134877 33.072918,33.072918 0 0 0 0.20774,-0.136943 33.072918,33.072918 0 0 0 0.2067,-0.137975 33.072918,33.072918 0 0 0 0.20619,-0.140044 33.072918,33.072918 0 0 0 0.20464,-0.141076 33.072918,33.072918 0 0 0 0.20361,-0.143145 33.072918,33.072918 0 0 0 0.0424,-0.02997 C 99.781624,26.758964 89.819725,16.295567 89.819725,16.295567 c 0,0 -9.536907,10.7317 -18.185453,27.624154 z"
               style="opacity:1;fill:#ff0000;fill-opacity:1;fill-rule:evenodd;stroke:none;stroke-width:1.07525"
               id="path3148"
               inkscape:connector-curvature="0" />
            <circle
               r="13.229167"
               cy="82.485321"
               cx="89.469139"
               id="path3181"
               style="opacity:1;fill:#4d4d4d;fill-opacity:1;fill-rule:evenodd;stroke:none;stroke-width:2.04338" />
            <circle
               style="opacity:1;fill:#00f0e8;fill-opacity:1;fill-rule:evenodd;stroke:none;stroke-width:1.6347"
               id="circle3183"
               cx="89.469139"
               cy="82.485321"
               r="10.583334" />
            <circle
               r="10.583334"
               cy="82.485321"
               cx="89.469139"
               id="circle3201"
               style="opacity:1;fill:url(#linearGradient3233);fill-opacity:1;fill-rule:evenodd;stroke:none;stroke-width:1.6347" />
          </g>
          <g
             id="g3269"
             transform="matrix(0.79531233,0,0,0.79531233,-159.05527,148.30709)">
            <path
               id="path3258"
               style="opacity:1;fill:#ffff00;fill-opacity:1;fill-rule:evenodd;stroke:none;stroke-width:1.09551"
               inkscape:transform-center-x="1.8254218"
               inkscape:transform-center-y="-0.1881736"
               d="m 270.20646,65.266924 c -2.93665,-0.227733 -2.54706,40.566126 -7.10647,39.584746 -4.55939,-0.98138 -9.88517,-62.934601 -9.88517,-62.934601 l 59.28791,1.493144 c 0,0 -2.86284,60.099227 -7.14523,60.840597 -4.28238,0.74137 -11.57923,-35.326654 -14.65463,-35.21832 -3.07542,0.108332 -4.01316,26.099 -6.77911,25.022053 -2.76595,-1.076946 -10.78067,-28.559887 -13.7173,-28.787619 z"
               inkscape:connector-curvature="0"
               sodipodi:nodetypes="zzcczzzz" />
            <path
               sodipodi:nodetypes="zzcczzzz"
               inkscape:connector-curvature="0"
               d="m 269.74987,54.706545 c -2.90851,-0.191591 -2.52265,34.128216 -7.03837,33.302581 -4.51571,-0.825635 -10.07867,-46.092057 -10.07867,-46.092057 l 60.16089,0.766557 c 0,0 -3.98823,44.196285 -8.22958,44.819995 -4.24136,0.623711 -11.46829,-29.720253 -14.51423,-29.629112 -3.04595,0.09114 -3.97471,21.957043 -6.71416,21.051009 -2.73945,-0.906033 -10.67738,-24.027382 -13.58588,-24.218973 z"
               inkscape:transform-center-y="-0.15831019"
               inkscape:transform-center-x="1.8079326"
               style="opacity:1;fill:#ff0000;fill-opacity:1;fill-rule:evenodd;stroke:none;stroke-width:1"
               id="path3261" />
          </g>
        </g>
      </g>
      <path
         transform="matrix(-0.41907142,-0.03372916,-0.03372916,0.41907142,451.97403,16.050921)"
         inkscape:transform-center-y="-0.52254077"
         inkscape:transform-center-x="-0.47164526"
         d="m 389.94952,75.742333 -9.06439,-9.467731 13.14256,-1.324041 6.2033,-11.546433 5.32051,12.090163 12.89823,2.331644 -9.85429,8.796172 1.76824,12.987468 -11.4108,-6.65383 -11.8054,5.695053 z"
         inkscape:randomized="0"
         inkscape:rounded="0"
         inkscape:flatsided="false"
         sodipodi:arg2="-2.7861591"
         sodipodi:arg1="2.8745816"
         sodipodi:r2="19.765713"
         sodipodi:r1="9.8136435"
         sodipodi:cy="73.153008"
         sodipodi:cx="399.41541"
         sodipodi:sides="5"
         id="path3326"
         style="display:inline;opacity:1;fill:#f9f9f9;fill-opacity:1;fill-rule:evenodd;stroke:none;stroke-width:1"
         sodipodi:type="star" />
      <path
         sodipodi:type="star"
         style="display:inline;opacity:1;fill:#f9f9f9;fill-opacity:1;fill-rule:evenodd;stroke:none;stroke-width:1"
         id="path3328"
         sodipodi:sides="5"
         sodipodi:cx="399.41541"
         sodipodi:cy="73.153008"
         sodipodi:r1="9.8136435"
         sodipodi:r2="19.765713"
         sodipodi:arg1="2.8745816"
         sodipodi:arg2="-2.7861591"
         inkscape:flatsided="false"
         inkscape:rounded="0"
         inkscape:randomized="0"
         d="m 389.94952,75.742333 -9.06439,-9.467731 13.14256,-1.324041 6.2033,-11.546433 5.32051,12.090163 12.89823,2.331644 -9.85429,8.796172 1.76824,12.987468 -11.4108,-6.65383 -11.8054,5.695053 z"
         inkscape:transform-center-x="-0.32813411"
         inkscape:transform-center-y="-0.36353859"
         transform="matrix(-0.29155427,-0.02346588,-0.02346588,0.29155427,352.03106,44.574546)" />
      <path
         inkscape:connector-curvature="0"
         d="m 308.10669,30.103895 a 15.875,15.875 0 0 1 15.875,15.874999 15.875,15.875 0 0 1 -15.875,15.875 15.875,15.875 0 0 1 -13.6803,-7.820711 11.241976,11.241976 0 0 0 7.58404,2.94349 11.241976,11.241976 0 0 0 11.24167,-11.241691 11.241976,11.241976 0 0 0 -11.24167,-11.242209 11.241976,11.241976 0 0 0 -6.8957,2.363681 15.875,15.875 0 0 1 12.99196,-6.752559 z"
         style="display:inline;opacity:1;fill:#f9f9f9;fill-opacity:1;fill-rule:evenodd;stroke:none;stroke-width:0.967708"
         id="path3330" />
    </g>
  </g>
</svg>
