<?xml version="1.0" encoding="iso-8859-1"?>
<!-- Generator: Adobe Illustrator 19.0.0, SVG Export Plug-In . SVG Version: 6.00 Build 0)  -->
<svg version="1.1" id="Layer_1" xmlns="http://www.w3.org/2000/svg" xmlns:xlink="http://www.w3.org/1999/xlink" x="0px" y="0px"
	 viewBox="0 0 506 506" style="enable-background:new 0 0 506 506;" xml:space="preserve">
<circle style="fill:#FFD05B;" cx="253" cy="253" r="253"/>
<rect x="102.8" y="248.4" style="fill:#F1543F;" width="308.3" height="162.7"/>
<path style="fill:#FFFFFF;" d="M257,277c-28,0-50.9,22.8-50.9,50.9s22.8,50.9,50.9,50.9c28,0,50.9-22.8,50.9-50.9S285,277,257,277z"
	/>
<g>
	<polygon style="fill:#324A5E;" points="240.4,296.5 240.4,360.7 287.8,328.6 	"/>
	<polygon style="fill:#324A5E;" points="97.3,141 95.1,142.5 103.1,196.5 168,186.7 98.5,141.7 	"/>
	<polygon style="fill:#324A5E;" points="141.4,134 210.8,180.2 265.2,172 195.2,125.9 	"/>
	<polygon style="fill:#324A5E;" points="238.3,119.3 308.1,165.5 362.5,157.2 291.9,111.2 	"/>
	<polygon style="fill:#324A5E;" points="399.8,94.9 336.3,104.5 404.2,150 405.7,150.6 407.8,148.9 	"/>
</g>
<g>
	<polygon style="fill:#FFFFFF;" points="189.5,126.7 259.5,172.8 313.8,164.6 244,118.5 	"/>
	<polygon style="fill:#FFFFFF;" points="94.9,141.1 95.4,144.3 162.2,187.6 216.5,179.3 147.1,133.1 	"/>
	<polygon style="fill:#FFFFFF;" points="405.5,146.2 405.5,146.2 342,103.6 286.1,112.1 356.7,158.1 405.9,150.7 407.3,150.4 
		407.9,147.7 	"/>
</g>
<polygon style="fill:none;stroke:#231F20;stroke-miterlimit:10;" points="164.4,194.3 164.4,194.3 165,193.7 "/>
<g>
	<polygon style="fill:#324A5E;" points="411,193.7 408.6,192.7 345.5,248.4 411.1,248.4 411.1,195.1 	"/>
	<path style="fill:#324A5E;" d="M102.8,192.3v53.4c0,0.9,0.5,1.7,1.4,2.1l1.5,0.5l63.9-55.9h-66.8V192.3z"/>
	<polygon style="fill:#324A5E;" points="311,192.3 247.1,248.4 302.2,248.4 365.4,192.3 	"/>
	<polygon style="fill:#324A5E;" points="213,192.3 148.7,248.4 203.8,248.4 267.8,192.3 	"/>
</g>
<g>
	<polygon style="fill:#FFFFFF;" points="163.6,192.3 103.6,244.9 102.8,245.6 102.8,248.4 153.7,248.4 219,192.3 	"/>
	<polygon style="fill:#FFFFFF;" points="359.5,192.3 296.3,248.4 351.4,248.4 411.1,195.6 411.1,192.3 	"/>
	<polygon style="fill:#FFFFFF;" points="261.9,192.3 197.9,248.4 253,248.4 316.9,192.3 	"/>
</g>
<g>
</g>
<g>
</g>
<g>
</g>
<g>
</g>
<g>
</g>
<g>
</g>
<g>
</g>
<g>
</g>
<g>
</g>
<g>
</g>
<g>
</g>
<g>
</g>
<g>
</g>
<g>
</g>
<g>
</g>
</svg>
