<?xml version="1.0" encoding="UTF-8" standalone="no"?>
<svg
   xmlns:dc="http://purl.org/dc/elements/1.1/"
   xmlns:cc="http://creativecommons.org/ns#"
   xmlns:rdf="http://www.w3.org/1999/02/22-rdf-syntax-ns#"
   xmlns:svg="http://www.w3.org/2000/svg"
   xmlns="http://www.w3.org/2000/svg"
   xmlns:sodipodi="http://sodipodi.sourceforge.net/DTD/sodipodi-0.dtd"
   xmlns:inkscape="http://www.inkscape.org/namespaces/inkscape"
   inkscape:version="1.0beta2 (2b71d25, 2019-12-03)"
   sodipodi:docname="padlock.svg"
   xml:space="preserve"
   style="enable-background:new 0 0 486.733 486.733;"
   viewBox="0 0 486.733 486.733"
   height="486.733px"
   width="486.733px"
   y="0px"
   x="0px"
   id="Capa_1"
   version="1.1"><metadata
   id="metadata1022"><rdf:RDF><cc:Work
       rdf:about=""><dc:format>image/svg+xml</dc:format><dc:type
         rdf:resource="http://purl.org/dc/dcmitype/StillImage" /><dc:title></dc:title></cc:Work></rdf:RDF></metadata><defs
   id="defs1020" /><sodipodi:namedview
   inkscape:current-layer="Capa_1"
   inkscape:window-maximized="0"
   inkscape:window-y="26"
   inkscape:window-x="0"
   inkscape:cy="249.94397"
   inkscape:cx="254.69437"
   inkscape:zoom="1.3683066"
   showgrid="false"
   id="namedview1018"
   inkscape:window-height="874"
   inkscape:window-width="1440"
   inkscape:pageshadow="2"
   inkscape:pageopacity="0"
   guidetolerance="10"
   gridtolerance="10"
   objecttolerance="10"
   borderopacity="1"
   inkscape:document-rotation="0"
   bordercolor="#666666"
   pagecolor="#ffffff" />
<g
   style="fill:#ffffff"
   id="g985">
	<path
   style="fill:#ffffff"
   id="path983"
   d="M403.88,196.563h-9.484v-44.388c0-82.099-65.151-150.681-146.582-152.145c-2.225-0.04-6.671-0.04-8.895,0   C157.486,1.494,92.336,70.076,92.336,152.175v44.388h-9.485c-14.616,0-26.538,15.082-26.538,33.709v222.632   c0,18.606,11.922,33.829,26.539,33.829h321.028c14.616,0,26.539-15.223,26.539-33.829V230.272   C430.419,211.646,418.497,196.563,403.88,196.563z M273.442,341.362v67.271c0,7.703-6.449,14.222-14.158,14.222H227.45   c-7.71,0-14.159-6.519-14.159-14.222v-67.271c-7.477-7.36-11.83-17.537-11.83-28.795c0-21.334,16.491-39.666,37.459-40.513   c2.222-0.09,6.673-0.09,8.895,0c20.968,0.847,37.459,19.179,37.459,40.513C285.272,323.825,280.919,334.002,273.442,341.362z    M331.886,196.563h-84.072h-8.895h-84.072v-44.388c0-48.905,39.744-89.342,88.519-89.342c48.775,0,88.521,40.437,88.521,89.342   V196.563z" />
</g>
<g
   id="g987">
</g>
<g
   id="g989">
</g>
<g
   id="g991">
</g>
<g
   id="g993">
</g>
<g
   id="g995">
</g>
<g
   id="g997">
</g>
<g
   id="g999">
</g>
<g
   id="g1001">
</g>
<g
   id="g1003">
</g>
<g
   id="g1005">
</g>
<g
   id="g1007">
</g>
<g
   id="g1009">
</g>
<g
   id="g1011">
</g>
<g
   id="g1013">
</g>
<g
   id="g1015">
</g>
</svg>
