<?xml version="1.0" encoding="UTF-8" standalone="no"?>
<svg
   xmlns:dc="http://purl.org/dc/elements/1.1/"
   xmlns:cc="http://creativecommons.org/ns#"
   xmlns:rdf="http://www.w3.org/1999/02/22-rdf-syntax-ns#"
   xmlns:svg="http://www.w3.org/2000/svg"
   xmlns="http://www.w3.org/2000/svg"
   xmlns:xlink="http://www.w3.org/1999/xlink"
   xmlns:sodipodi="http://sodipodi.sourceforge.net/DTD/sodipodi-0.dtd"
   xmlns:inkscape="http://www.inkscape.org/namespaces/inkscape"
   sodipodi:docname="powerbutton_green.svg"
   inkscape:version="1.0beta2 (2b71d25, 2019-12-03)"
   id="svg1002"
   version="1.1"
   viewBox="0 0 31.75 31.75"
   height="120"
   width="120">
  <defs
     id="defs996">
    <radialGradient
       inkscape:collect="always"
       xlink:href="#linearGradient884"
       id="radialGradient896"
       gradientUnits="userSpaceOnUse"
       cx="93.317215"
       cy="202.15628"
       fx="93.317215"
       fy="202.15628"
       r="50"
       gradientTransform="matrix(0.30499994,0,0,0.30499994,-12.433372,-45.545901)" />
    <linearGradient
       inkscape:collect="always"
       id="linearGradient884">
      <stop
         style="stop-color:#808080;stop-opacity:1;"
         offset="0"
         id="stop880" />
      <stop
         style="stop-color:#808080;stop-opacity:0;"
         offset="1"
         id="stop882" />
    </linearGradient>
    <radialGradient
       gradientTransform="matrix(0.30499994,0,0,0.30499994,23.538115,-46.101015)"
       inkscape:collect="always"
       xlink:href="#linearGradient940"
       id="radialGradient942"
       cx="-24.622107"
       cy="203.97633"
       fx="-24.622107"
       fy="203.97633"
       r="50"
       gradientUnits="userSpaceOnUse" />
    <linearGradient
       inkscape:collect="always"
       id="linearGradient940">
      <stop
         style="stop-color:#00ff00;stop-opacity:0.28048781"
         offset="0"
         id="stop936" />
      <stop
         style="stop-color:#00ff00;stop-opacity:0;"
         offset="1"
         id="stop938" />
    </linearGradient>
  </defs>
  <sodipodi:namedview
     inkscape:snap-global="true"
     inkscape:snap-bbox="true"
     inkscape:window-maximized="0"
     inkscape:window-y="23"
     inkscape:window-x="0"
     inkscape:window-height="792"
     inkscape:window-width="1440"
     inkscape:snap-nodes="false"
     inkscape:snap-text-baseline="true"
     inkscape:snap-page="true"
     units="px"
     showgrid="false"
     inkscape:document-rotation="0"
     inkscape:current-layer="layer1"
     inkscape:document-units="mm"
     inkscape:cy="51.375908"
     inkscape:cx="62.198958"
     inkscape:zoom="3.8215986"
     inkscape:pageshadow="2"
     inkscape:pageopacity="0.0"
     borderopacity="1.0"
     bordercolor="#666666"
     pagecolor="#ffffff"
     id="base" />
  <metadata
     id="metadata999">
    <rdf:RDF>
      <cc:Work
         rdf:about="">
        <dc:format>image/svg+xml</dc:format>
        <dc:type
           rdf:resource="http://purl.org/dc/dcmitype/StillImage" />
        <dc:title></dc:title>
      </cc:Work>
    </rdf:RDF>
  </metadata>
  <g
     id="layer1"
     inkscape:groupmode="layer"
     inkscape:label="Laag 1">
    <circle
       r="15.249999"
       style="fill:#1d1d1d;fill-opacity:1;fill-rule:evenodd;stroke:#383838;stroke-width:0;stroke-opacity:0.995935"
       id="circle888"
       cx="16.028376"
       cy="16.111755" />
    <circle
       r="15.249999"
       cy="16.111755"
       cx="16.028376"
       id="circle890"
       style="fill:url(#radialGradient896);fill-opacity:1;fill-rule:evenodd;stroke:#383838;stroke-width:0;stroke-opacity:0.995935" />
    <circle
       r="15.249999"
       style="opacity:1;fill:url(#radialGradient942);fill-opacity:1;fill-rule:evenodd;stroke:#383838;stroke-width:0;stroke-opacity:0.995935"
       id="circle916"
       cx="16.028376"
       cy="16.111755" />
    <path
       inkscape:connector-curvature="0"
       d="m 12.627075,10.687153 a 6.4313758,6.3643824 0 0 0 -2.9385769,5.343909 6.4313758,6.3643824 0 0 0 6.4312839,6.364362 6.4313758,6.3643824 0 0 0 6.431413,-6.364362 6.4313758,6.3643824 0 0 0 -2.736046,-5.208804 c -0.06182,0.06582 -0.12074,0.123041 -0.183032,0.191083 -0.245586,0.268218 -0.494076,0.553765 -0.739177,0.85742 -0.177525,0.219939 -0.349115,0.460376 -0.520662,0.699549 a 4.2374153,3.9823678 0 0 1 0.003,0.0018 4.2374153,3.9823678 0 0 1 0.03723,0.02304 4.2374153,3.9823678 0 0 1 0.03699,0.02352 4.2374153,3.9823678 0 0 1 0.03661,0.02379 4.2374153,3.9823678 0 0 1 0.03648,0.02428 4.2374153,3.9823678 0 0 1 0.0361,0.02453 4.2374153,3.9823678 0 0 1 0.03586,0.02493 4.2374153,3.9823678 0 0 1 0.0356,0.02529 4.2374153,3.9823678 0 0 1 0.03521,0.02565 4.2374153,3.9823678 0 0 1 0.0351,0.02593 4.2374153,3.9823678 0 0 1 0.03461,0.02629 4.2374153,3.9823678 0 0 1 0.03447,0.02665 4.2374153,3.9823678 0 0 1 0.03409,0.02705 4.2374153,3.9823678 0 0 1 0.03384,0.0273 4.2374153,3.9823678 0 0 1 0.03346,0.02766 4.2374153,3.9823678 0 0 1 0.03321,0.02805 4.2374153,3.9823678 0 0 1 0.03283,0.0283 4.2374153,3.9823678 0 0 1 0.03259,0.02865 4.2374153,3.9823678 0 0 1 0.0322,0.02895 4.2374153,3.9823678 0 0 1 0.03196,0.02932 4.2374153,3.9823678 0 0 1 0.03158,0.02957 4.2374153,3.9823678 0 0 1 0.03119,0.02996 4.2374153,3.9823678 0 0 1 0.03094,0.03019 4.2374153,3.9823678 0 0 1 0.03058,0.03044 4.2374153,3.9823678 0 0 1 0.0302,0.03082 4.2374153,3.9823678 0 0 1 0.02996,0.03119 4.2374153,3.9823678 0 0 1 0.02957,0.03133 4.2374153,3.9823678 0 0 1 0.02905,0.0317 4.2374153,3.9823678 0 0 1 0.02894,0.03207 4.2374153,3.9823678 0 0 1 0.02843,0.0322 4.2374153,3.9823678 0 0 1 0.02805,0.03257 4.2374153,3.9823678 0 0 1 0.02766,0.03283 4.2374153,3.9823678 0 0 1 0.02741,0.03309 4.2374153,3.9823678 0 0 1 0.02694,0.03333 4.2374153,3.9823678 0 0 1 0.02665,0.03371 4.2374153,3.9823678 0 0 1 0.02629,0.03384 4.2374153,3.9823678 0 0 1 0.02577,0.03408 4.2374153,3.9823678 0 0 1 0.02552,0.03446 4.2374153,3.9823678 0 0 1 0.02504,0.03458 4.2374153,3.9823678 0 0 1 0.02464,0.03497 4.2374153,3.9823678 0 0 1 0.02428,0.0351 4.2374153,3.9823678 0 0 1 0.02392,0.03547 4.2374153,3.9823678 0 0 1 0.02352,0.0356 4.2374153,3.9823678 0 0 1 0.02315,0.03586 4.2374153,3.9823678 0 0 1 0.02262,0.03599 4.2374153,3.9823678 0 0 1 0.02238,0.03636 4.2374153,3.9823678 0 0 1 0.02187,0.03648 4.2374153,3.9823678 0 0 1 0.02138,0.03673 4.2374153,3.9823678 0 0 1 0.02112,0.03699 4.2374153,3.9823678 0 0 1 0.02062,0.03711 4.2374153,3.9823678 0 0 1 0.02025,0.03736 4.2374153,3.9823678 0 0 1 0.01987,0.0375 4.2374153,3.9823678 0 0 1 0.01937,0.03774 4.2374153,3.9823678 0 0 1 0.019,0.03799 4.2374153,3.9823678 0 0 1 0.01851,0.03811 4.2374153,3.9823678 0 0 1 0.0181,0.03825 4.2374153,3.9823678 0 0 1 0.01775,0.03849 4.2374153,3.9823678 0 0 1 0.01724,0.03862 4.2374153,3.9823678 0 0 1 0.01683,0.03886 4.2374153,3.9823678 0 0 1 0.01635,0.039 4.2374153,3.9823678 0 0 1 0.016,0.03912 4.2374153,3.9823678 0 0 1 0.0155,0.03925 4.2374153,3.9823678 0 0 1 0.01509,0.0395 4.2374153,3.9823678 0 0 1 0.01457,0.03961 4.2374153,3.9823678 0 0 1 0.01422,0.03963 4.2374153,3.9823678 0 0 1 0.01368,0.03987 4.2374153,3.9823678 0 0 1 0.01332,0.03999 4.2374153,3.9823678 0 0 1 0.01284,0.04025 4.2374153,3.9823678 0 0 1 0.01231,0.04025 4.2374153,3.9823678 0 0 1 0.01196,0.04038 4.2374153,3.9823678 0 0 1 0.01146,0.04037 4.2374153,3.9823678 0 0 1 0.01112,0.04064 4.2374153,3.9823678 0 0 1 0.01054,0.04075 4.2374153,3.9823678 0 0 1 0.01018,0.04075 4.2374153,3.9823678 0 0 1 0.0097,0.04101 4.2374153,3.9823678 0 0 1 0.0091,0.04101 4.2374153,3.9823678 0 0 1 0.0087,0.04101 4.2374153,3.9823678 0 0 1 0.0084,0.04126 4.2374153,3.9823678 0 0 1 0.0079,0.04126 4.2374153,3.9823678 0 0 1 0.0075,0.04125 4.2374153,3.9823678 0 0 1 0.0069,0.04151 4.2374153,3.9823678 0 0 1 0.0065,0.04139 4.2374153,3.9823678 0 0 1 0.006,0.04152 4.2374153,3.9823678 0 0 1 0.0054,0.04164 4.2374153,3.9823678 0 0 1 0.0049,0.04164 4.2374153,3.9823678 0 0 1 0.0045,0.04164 4.2374153,3.9823678 0 0 1 0.004,0.04176 4.2374153,3.9823678 0 0 1 0.0036,0.04176 4.2374153,3.9823678 0 0 1 0.0031,0.0419 4.2374153,3.9823678 0 0 1 0.0027,0.04176 4.2374153,3.9823678 0 0 1 0.0021,0.0419 4.2374153,3.9823678 0 0 1 0.0018,0.04189 4.2374153,3.9823678 0 0 1 0.0015,0.0419 4.2374153,3.9823678 0 0 1 6.39e-4,0.04189 4.2374153,3.9823678 0 0 1 2.44e-4,0.04188 4.2374153,3.9823678 0 0 1 0,0.01065 4.2374153,3.9823678 0 0 1 -2.44e-4,0.04189 4.2374153,3.9823678 0 0 1 -6.39e-4,0.04188 4.2374153,3.9823678 0 0 1 -0.0011,0.04201 4.2374153,3.9823678 0 0 1 -0.0018,0.04176 4.2374153,3.9823678 0 0 1 -0.0021,0.04189 4.2374153,3.9823678 0 0 1 -0.0025,0.0419 4.2374153,3.9823678 0 0 1 -0.003,0.04176 4.2374153,3.9823678 0 0 1 -0.0035,0.04176 4.2374153,3.9823678 0 0 1 -0.0039,0.04175 4.2374153,3.9823678 0 0 1 -0.0044,0.04177 4.2374153,3.9823678 0 0 1 -0.0048,0.04163 4.2374153,3.9823678 0 0 1 -0.0053,0.04165 4.2374153,3.9823678 0 0 1 -0.006,0.04151 4.2374153,3.9823678 0 0 1 -0.0063,0.04152 4.2374153,3.9823678 0 0 1 -0.0068,0.04138 4.2374153,3.9823678 0 0 1 -0.0072,0.04139 4.2374153,3.9823678 0 0 1 -0.0078,0.04125 4.2374153,3.9823678 0 0 1 -0.0082,0.04113 4.2374153,3.9823678 0 0 1 -0.0086,0.04113 4.2374153,3.9823678 0 0 1 -0.009,0.04113 4.2374153,3.9823678 0 0 1 -0.0096,0.04088 4.2374153,3.9823678 0 0 1 -0.01011,0.04087 4.2374153,3.9823678 0 0 1 -0.01045,0.04064 4.2374153,3.9823678 0 0 1 -0.011,0.04075 4.2374153,3.9823678 0 0 1 -0.01135,0.04052 4.2374153,3.9823678 0 0 1 -0.01183,0.04037 4.2374153,3.9823678 0 0 1 -0.01231,0.04025 4.2374153,3.9823678 0 0 1 -0.01273,0.04025 4.2374153,3.9823678 0 0 1 -0.01321,0.03999 4.2374153,3.9823678 0 0 1 -0.01357,0.03987 4.2374153,3.9823678 0 0 1 -0.01409,0.03976 4.2374153,3.9823678 0 0 1 -0.01445,0.03963 4.2374153,3.9823678 0 0 1 -0.01497,0.0395 4.2374153,3.9823678 0 0 1 -0.0155,0.03938 4.2374153,3.9823678 0 0 1 -0.01573,0.03912 4.2374153,3.9823678 0 0 1 -0.01634,0.039 4.2374153,3.9823678 0 0 1 -0.01671,0.03886 4.2374153,3.9823678 0 0 1 -0.01712,0.03874 4.2374153,3.9823678 0 0 1 -0.01763,0.03849 4.2374153,3.9823678 0 0 1 -0.01799,0.03837 4.2374153,3.9823678 0 0 1 -0.01836,0.03811 4.2374153,3.9823678 0 0 1 -0.01887,0.038 4.2374153,3.9823678 0 0 1 -0.01937,0.03787 4.2374153,3.9823678 0 0 1 -0.01961,0.0375 4.2374153,3.9823678 0 0 1 -0.02013,0.0375 4.2374153,3.9823678 0 0 1 -0.02062,0.03712 4.2374153,3.9823678 0 0 1 -0.02089,0.03699 4.2374153,3.9823678 0 0 1 -0.02141,0.03686 4.2374153,3.9823678 0 0 1 -0.02187,0.03661 4.2374153,3.9823678 0 0 1 -0.02213,0.03636 4.2374153,3.9823678 0 0 1 -0.02264,0.0361 4.2374153,3.9823678 0 0 1 -0.02304,0.03587 4.2374153,3.9823678 0 0 1 -0.02339,0.03572 4.2374153,3.9823678 0 0 1 -0.02379,0.03534 4.2374153,3.9823678 0 0 1 -0.02415,0.03522 4.2374153,3.9823678 0 0 1 -0.02464,0.03498 4.2374153,3.9823678 0 0 1 -0.02493,0.03472 4.2374153,3.9823678 0 0 1 -0.0254,0.03447 4.2374153,3.9823678 0 0 1 -0.02579,0.03421 4.2374153,3.9823678 0 0 1 -0.02605,0.03397 4.2374153,3.9823678 0 0 1 -0.02654,0.03371 4.2374153,3.9823678 0 0 1 -0.02693,0.03346 4.2374153,3.9823678 0 0 1 -0.0273,0.03321 4.2374153,3.9823678 0 0 1 -0.02755,0.03283 4.2374153,3.9823678 0 0 1 -0.02805,0.03257 4.2374153,3.9823678 0 0 1 -0.0283,0.03233 4.2374153,3.9823678 0 0 1 -0.0288,0.03208 4.2374153,3.9823678 0 0 1 -0.02906,0.03183 4.2374153,3.9823678 0 0 1 -0.02942,0.03146 4.2374153,3.9823678 0 0 1 -0.02982,0.03119 4.2374153,3.9823678 0 0 1 -0.03007,0.03095 4.2374153,3.9823678 0 0 1 -0.03057,0.03057 4.2374153,3.9823678 0 0 1 -0.03082,0.03032 4.2374153,3.9823678 0 0 1 -0.03107,0.02996 4.2374153,3.9823678 0 0 1 -0.03158,0.02968 4.2374153,3.9823678 0 0 1 -0.03184,0.02932 4.2374153,3.9823678 0 0 1 -0.03207,0.02905 4.2374153,3.9823678 0 0 1 -0.03245,0.02882 4.2374153,3.9823678 0 0 1 -0.03283,0.02831 4.2374153,3.9823678 0 0 1 -0.03308,0.02817 4.2374153,3.9823678 0 0 1 -0.03346,0.02766 4.2374153,3.9823678 0 0 1 -0.03371,0.02742 4.2374153,3.9823678 0 0 1 -0.03409,0.02705 4.2374153,3.9823678 0 0 1 -0.0342,0.02678 4.2374153,3.9823678 0 0 1 -0.03471,0.02641 4.2374153,3.9823678 0 0 1 -0.03485,0.02606 4.2374153,3.9823678 0 0 1 -0.03522,0.02565 4.2374153,3.9823678 0 0 1 -0.0356,0.0254 4.2374153,3.9823678 0 0 1 -0.03571,0.02504 4.2374153,3.9823678 0 0 1 -0.0361,0.02464 4.2374153,3.9823678 0 0 1 -0.03636,0.02427 4.2374153,3.9823678 0 0 1 -0.03662,0.02392 4.2374153,3.9823678 0 0 1 -0.03686,0.02364 4.2374153,3.9823678 0 0 1 -0.03712,0.02315 4.2374153,3.9823678 0 0 1 -0.03737,0.02292 4.2374153,3.9823678 0 0 1 -0.03773,0.02237 4.2374153,3.9823678 0 0 1 -0.03787,0.02214 4.2374153,3.9823678 0 0 1 -0.03813,0.02176 4.2374153,3.9823678 0 0 1 -0.03837,0.02126 4.2374153,3.9823678 0 0 1 -0.03861,0.02101 4.2374153,3.9823678 0 0 1 -0.03886,0.0205 4.2374153,3.9823678 0 0 1 -0.03913,0.02025 4.2374153,3.9823678 0 0 1 -0.03926,0.01974 4.2374153,3.9823678 0 0 1 -0.0395,0.01936 4.2374153,3.9823678 0 0 1 -0.03975,0.01912 4.2374153,3.9823678 0 0 1 -0.03999,0.01861 4.2374153,3.9823678 0 0 1 -0.04013,0.01825 4.2374153,3.9823678 0 0 1 -0.04037,0.01775 4.2374153,3.9823678 0 0 1 -0.04052,0.01749 4.2374153,3.9823678 0 0 1 -0.04075,0.01699 4.2374153,3.9823678 0 0 1 -0.04101,0.01658 4.2374153,3.9823678 0 0 1 -0.04101,0.01624 4.2374153,3.9823678 0 0 1 -0.04139,0.01584 4.2374153,3.9823678 0 0 1 -0.04138,0.01537 4.2374153,3.9823678 0 0 1 -0.04176,0.0151 4.2374153,3.9823678 0 0 1 -0.04175,0.01457 4.2374153,3.9823678 0 0 1 -0.04201,0.01409 4.2374153,3.9823678 0 0 1 -0.04203,0.01368 4.2374153,3.9823678 0 0 1 -0.04239,0.01332 4.2374153,3.9823678 0 0 1 -0.0424,0.01297 4.2374153,3.9823678 0 0 1 -0.04253,0.01247 4.2374153,3.9823678 0 0 1 -0.04277,0.01208 4.2374153,3.9823678 0 0 1 -0.04277,0.01172 4.2374153,3.9823678 0 0 1 -0.04302,0.01124 4.2374153,3.9823678 0 0 1 -0.04302,0.01077 4.2374153,3.9823678 0 0 1 -0.04328,0.01034 4.2374153,3.9823678 0 0 1 -0.04328,0.01002 4.2374153,3.9823678 0 0 1 -0.04339,0.0096 4.2374153,3.9823678 0 0 1 -0.04366,0.009 4.2374153,3.9823678 0 0 1 -0.04352,0.0087 4.2374153,3.9823678 0 0 1 -0.04378,0.0082 4.2374153,3.9823678 0 0 1 -0.04378,0.0079 4.2374153,3.9823678 0 0 1 -0.0439,0.0075 4.2374153,3.9823678 0 0 1 -0.04404,0.0069 4.2374153,3.9823678 0 0 1 -0.04404,0.0065 4.2374153,3.9823678 0 0 1 -0.04416,0.0061 4.2374153,3.9823678 0 0 1 -0.04415,0.0056 4.2374153,3.9823678 0 0 1 -0.04427,0.005 4.2374153,3.9823678 0 0 1 -0.04427,0.0047 4.2374153,3.9823678 0 0 1 -0.0444,0.0041 4.2374153,3.9823678 0 0 1 -0.0444,0.0037 4.2374153,3.9823678 0 0 1 -0.0444,0.0033 4.2374153,3.9823678 0 0 1 -0.04454,0.003 4.2374153,3.9823678 0 0 1 -0.04453,0.0025 4.2374153,3.9823678 0 0 1 -0.04453,0.0021 4.2374153,3.9823678 0 0 1 -0.04453,0.0018 4.2374153,3.9823678 0 0 1 -0.04466,0.0011 4.2374153,3.9823678 0 0 1 -0.04453,6.4e-4 4.2374153,3.9823678 0 0 1 -0.04453,6.41e-4 4.2374153,3.9823678 0 0 1 -0.01146,0 4.2374153,3.9823678 0 0 1 -0.04453,-2.43e-4 4.2374153,3.9823678 0 0 1 -0.04466,-6.39e-4 4.2374153,3.9823678 0 0 1 -0.04453,-0.0011 4.2374153,3.9823678 0 0 1 -0.04466,-0.0015 4.2374153,3.9823678 0 0 1 -0.04453,-0.0018 4.2374153,3.9823678 0 0 1 -0.04453,-0.0025 4.2374153,3.9823678 0 0 1 -0.0444,-0.0027 4.2374153,3.9823678 0 0 1 -0.04453,-0.0032 4.2374153,3.9823678 0 0 1 -0.0444,-0.0037 4.2374153,3.9823678 0 0 1 -0.0444,-0.0041 4.2374153,3.9823678 0 0 1 -0.04427,-0.0046 4.2374153,3.9823678 0 0 1 -0.04427,-0.0049 4.2374153,3.9823678 0 0 1 -0.04416,-0.0054 4.2374153,3.9823678 0 0 1 -0.04416,-0.006 4.2374153,3.9823678 0 0 1 -0.04416,-0.0065 4.2374153,3.9823678 0 0 1 -0.0439,-0.0068 4.2374153,3.9823678 0 0 1 -0.04404,-0.0075 4.2374153,3.9823678 0 0 1 -0.04378,-0.0077 4.2374153,3.9823678 0 0 1 -0.04378,-0.0081 4.2374153,3.9823678 0 0 1 -0.04367,-0.0086 4.2374153,3.9823678 0 0 1 -0.04352,-0.0089 4.2374153,3.9823678 0 0 1 -0.04353,-0.0095 4.2374153,3.9823678 0 0 1 -0.04327,-0.0099 4.2374153,3.9823678 0 0 1 -0.04328,-0.01035 4.2374153,3.9823678 0 0 1 -0.04315,-0.01065 4.2374153,3.9823678 0 0 1 -0.04302,-0.01112 4.2374153,3.9823678 0 0 1 -0.04277,-0.01159 4.2374153,3.9823678 0 0 1 -0.04277,-0.01196 4.2374153,3.9823678 0 0 1 -0.04265,-0.01231 4.2374153,3.9823678 0 0 1 -0.0424,-0.01284 4.2374153,3.9823678 0 0 1 -0.04239,-0.01321 4.2374153,3.9823678 0 0 1 -0.04215,-0.01368 4.2374153,3.9823678 0 0 1 -0.04203,-0.01398 4.2374153,3.9823678 0 0 1 -0.04188,-0.01446 4.2374153,3.9823678 0 0 1 -0.04164,-0.01497 4.2374153,3.9823678 0 0 1 -0.04152,-0.01522 4.2374153,3.9823678 0 0 1 -0.04138,-0.01573 4.2374153,3.9823678 0 0 1 -0.04113,-0.0161 4.2374153,3.9823678 0 0 1 -0.04101,-0.01659 4.2374153,3.9823678 0 0 1 -0.04075,-0.01684 4.2374153,3.9823678 0 0 1 -0.04064,-0.01736 4.2374153,3.9823678 0 0 1 -0.04038,-0.01775 4.2374153,3.9823678 0 0 1 -0.04025,-0.0181 4.2374153,3.9823678 0 0 1 -0.03999,-0.01851 4.2374153,3.9823678 0 0 1 -0.03975,-0.01896 4.2374153,3.9823678 0 0 1 -0.03962,-0.01924 4.2374153,3.9823678 0 0 1 -0.03938,-0.01973 4.2374153,3.9823678 0 0 1 -0.03913,-0.02001 4.2374153,3.9823678 0 0 1 -0.03886,-0.0205 4.2374153,3.9823678 0 0 1 -0.03873,-0.02089 4.2374153,3.9823678 0 0 1 -0.03837,-0.02125 4.2374153,3.9823678 0 0 1 -0.03824,-0.02166 4.2374153,3.9823678 0 0 1 -0.038,-0.02198 4.2374153,3.9823678 0 0 1 -0.03762,-0.02226 4.2374153,3.9823678 0 0 1 -0.0375,-0.02276 4.2374153,3.9823678 0 0 1 -0.03723,-0.02315 4.2374153,3.9823678 0 0 1 -0.03699,-0.02352 4.2374153,3.9823678 0 0 1 -0.03662,-0.02379 4.2374153,3.9823678 0 0 1 -0.03648,-0.02428 4.2374153,3.9823678 0 0 1 -0.0361,-0.02453 4.2374153,3.9823678 0 0 1 -0.03586,-0.02493 4.2374153,3.9823678 0 0 1 -0.03559,-0.02529 4.2374153,3.9823678 0 0 1 -0.03522,-0.02552 4.2374153,3.9823678 0 0 1 -0.03497,-0.02605 4.2374153,3.9823678 0 0 1 -0.03471,-0.02629 4.2374153,3.9823678 0 0 1 -0.03447,-0.02665 4.2374153,3.9823678 0 0 1 -0.03408,-0.02705 4.2374153,3.9823678 0 0 1 -0.03383,-0.0273 4.2374153,3.9823678 0 0 1 -0.03347,-0.02766 4.2374153,3.9823678 0 0 1 -0.03321,-0.02793 4.2374153,3.9823678 0 0 1 -0.03283,-0.0283 4.2374153,3.9823678 0 0 1 -0.03257,-0.02866 4.2374153,3.9823678 0 0 1 -0.03219,-0.02895 4.2374153,3.9823678 0 0 1 -0.03196,-0.02932 4.2374153,3.9823678 0 0 1 -0.03158,-0.02957 4.2374153,3.9823678 0 0 1 -0.03119,-0.02996 4.2374153,3.9823678 0 0 1 -0.03095,-0.03021 4.2374153,3.9823678 0 0 1 -0.03058,-0.03057 4.2374153,3.9823678 0 0 1 -0.03019,-0.03082 4.2374153,3.9823678 0 0 1 -0.02994,-0.03107 4.2374153,3.9823678 0 0 1 -0.02957,-0.03145 4.2374153,3.9823678 0 0 1 -0.02904,-0.0317 4.2374153,3.9823678 0 0 1 -0.02881,-0.03195 4.2374153,3.9823678 0 0 1 -0.02854,-0.03233 4.2374153,3.9823678 0 0 1 -0.02805,-0.03258 4.2374153,3.9823678 0 0 1 -0.02767,-0.03271 4.2374153,3.9823678 0 0 1 -0.02743,-0.03321 4.2374153,3.9823678 0 0 1 -0.02691,-0.03333 4.2374153,3.9823678 0 0 1 -0.02666,-0.03359 4.2374153,3.9823678 0 0 1 -0.02629,-0.03397 4.2374153,3.9823678 0 0 1 -0.02579,-0.03408 4.2374153,3.9823678 0 0 1 -0.02541,-0.03447 4.2374153,3.9823678 0 0 1 -0.02515,-0.03457 4.2374153,3.9823678 0 0 1 -0.02465,-0.03498 4.2374153,3.9823678 0 0 1 -0.02427,-0.03511 4.2374153,3.9823678 0 0 1 -0.02391,-0.03535 4.2374153,3.9823678 0 0 1 -0.02353,-0.0356 4.2374153,3.9823678 0 0 1 -0.02315,-0.03585 4.2374153,3.9823678 0 0 1 -0.02263,-0.0361 4.2374153,3.9823678 0 0 1 -0.02238,-0.03636 4.2374153,3.9823678 0 0 1 -0.02189,-0.03648 4.2374153,3.9823678 0 0 1 -0.02138,-0.03673 4.2374153,3.9823678 0 0 1 -0.02112,-0.03685 4.2374153,3.9823678 0 0 1 -0.02063,-0.03723 4.2374153,3.9823678 0 0 1 -0.02025,-0.03736 4.2374153,3.9823678 0 0 1 -0.01988,-0.0375 4.2374153,3.9823678 0 0 1 -0.01937,-0.03773 4.2374153,3.9823678 0 0 1 -0.019,-0.038 4.2374153,3.9823678 0 0 1 -0.01849,-0.03812 4.2374153,3.9823678 0 0 1 -0.01811,-0.03825 4.2374153,3.9823678 0 0 1 -0.01774,-0.03848 4.2374153,3.9823678 0 0 1 -0.01724,-0.03862 4.2374153,3.9823678 0 0 1 -0.01686,-0.03887 4.2374153,3.9823678 0 0 1 -0.01636,-0.03886 4.2374153,3.9823678 0 0 1 -0.01597,-0.03925 4.2374153,3.9823678 0 0 1 -0.01546,-0.03925 4.2374153,3.9823678 0 0 1 -0.0151,-0.03938 4.2374153,3.9823678 0 0 1 -0.01458,-0.03963 4.2374153,3.9823678 0 0 1 -0.01422,-0.03975 4.2374153,3.9823678 0 0 1 -0.0137,-0.03987 4.2374153,3.9823678 0 0 1 -0.01333,-0.03999 4.2374153,3.9823678 0 0 1 -0.01284,-0.04013 4.2374153,3.9823678 0 0 1 -0.01232,-0.04025 4.2374153,3.9823678 0 0 1 -0.01195,-0.04037 4.2374153,3.9823678 0 0 1 -0.01146,-0.04052 4.2374153,3.9823678 0 0 1 -0.01112,-0.04063 4.2374153,3.9823678 0 0 1 -0.01054,-0.04075 4.2374153,3.9823678 0 0 1 -0.01018,-0.04075 4.2374153,3.9823678 0 0 1 -0.0097,-0.04088 4.2374153,3.9823678 0 0 1 -0.0091,-0.04101 4.2374153,3.9823678 0 0 1 -0.0087,-0.04113 4.2374153,3.9823678 0 0 1 -0.0083,-0.04113 4.2374153,3.9823678 0 0 1 -0.0079,-0.04126 4.2374153,3.9823678 0 0 1 -0.0075,-0.04139 4.2374153,3.9823678 0 0 1 -0.0069,-0.04139 4.2374153,3.9823678 0 0 1 -0.0065,-0.04151 4.2374153,3.9823678 0 0 1 -0.006,-0.04152 4.2374153,3.9823678 0 0 1 -0.0054,-0.04164 4.2374153,3.9823678 0 0 1 -0.0049,-0.04163 4.2374153,3.9823678 0 0 1 -0.0045,-0.04163 4.2374153,3.9823678 0 0 1 -0.004,-0.04177 4.2374153,3.9823678 0 0 1 -0.0036,-0.04177 4.2374153,3.9823678 0 0 1 -0.0031,-0.04175 4.2374153,3.9823678 0 0 1 -0.0027,-0.04189 4.2374153,3.9823678 0 0 1 -0.0022,-0.04189 4.2374153,3.9823678 0 0 1 -0.0017,-0.04176 4.2374153,3.9823678 0 0 1 -0.0012,-0.04189 4.2374153,3.9823678 0 0 1 -8.84e-4,-0.04202 4.2374153,3.9823678 0 0 1 -3.97e-4,-0.04189 4.2374153,3.9823678 0 0 1 0,-0.01065 4.2374153,3.9823678 0 0 1 2.43e-4,-0.0419 4.2374153,3.9823678 0 0 1 6.41e-4,-0.04189 4.2374153,3.9823678 0 0 1 0.0012,-0.0419 4.2374153,3.9823678 0 0 1 0.0016,-0.04188 4.2374153,3.9823678 0 0 1 0.0021,-0.0419 4.2374153,3.9823678 0 0 1 0.0025,-0.04189 4.2374153,3.9823678 0 0 1 0.003,-0.04176 4.2374153,3.9823678 0 0 1 0.0035,-0.04175 4.2374153,3.9823678 0 0 1 0.0039,-0.04176 4.2374153,3.9823678 0 0 1 0.0044,-0.04165 4.2374153,3.9823678 0 0 1 0.0048,-0.04175 4.2374153,3.9823678 0 0 1 0.0053,-0.04152 4.2374153,3.9823678 0 0 1 0.006,-0.04164 4.2374153,3.9823678 0 0 1 0.0063,-0.04138 4.2374153,3.9823678 0 0 1 0.0068,-0.04152 4.2374153,3.9823678 0 0 1 0.0071,-0.04126 4.2374153,3.9823678 0 0 1 0.0079,-0.04138 4.2374153,3.9823678 0 0 1 0.0082,-0.04113 4.2374153,3.9823678 0 0 1 0.0086,-0.04113 4.2374153,3.9823678 0 0 1 0.009,-0.04101 4.2374153,3.9823678 0 0 1 0.0096,-0.04101 4.2374153,3.9823678 0 0 1 0.01011,-0.04075 4.2374153,3.9823678 0 0 1 0.01045,-0.04075 4.2374153,3.9823678 0 0 1 0.01101,-0.04064 4.2374153,3.9823678 0 0 1 0.01135,-0.04051 4.2374153,3.9823678 0 0 1 0.01183,-0.04051 4.2374153,3.9823678 0 0 1 0.01233,-0.04024 4.2374153,3.9823678 0 0 1 0.0127,-0.04013 4.2374153,3.9823678 0 0 1 0.01321,-0.03999 4.2374153,3.9823678 0 0 1 0.01358,-0.03999 4.2374153,3.9823678 0 0 1 0.01409,-0.03976 4.2374153,3.9823678 0 0 1 0.01446,-0.03961 4.2374153,3.9823678 0 0 1 0.01496,-0.0395 4.2374153,3.9823678 0 0 1 0.01546,-0.03926 4.2374153,3.9823678 0 0 1 0.01572,-0.03925 4.2374153,3.9823678 0 0 1 0.01636,-0.039 4.2374153,3.9823678 0 0 1 0.01673,-0.03887 4.2374153,3.9823678 0 0 1 0.01712,-0.03873 4.2374153,3.9823678 0 0 1 0.01761,-0.03849 4.2374153,3.9823678 0 0 1 0.01798,-0.03837 4.2374153,3.9823678 0 0 1 0.01849,-0.03813 4.2374153,3.9823678 0 0 1 0.01875,-0.03799 4.2374153,3.9823678 0 0 1 0.01936,-0.03773 4.2374153,3.9823678 0 0 1 0.01962,-0.03761 4.2374153,3.9823678 0 0 1 0.02025,-0.03737 4.2374153,3.9823678 0 0 1 0.02051,-0.03723 4.2374153,3.9823678 0 0 1 0.02087,-0.03699 4.2374153,3.9823678 0 0 1 0.0214,-0.03673 4.2374153,3.9823678 0 0 1 0.02189,-0.03662 4.2374153,3.9823678 0 0 1 0.02213,-0.03636 4.2374153,3.9823678 0 0 1 0.02265,-0.03612 4.2374153,3.9823678 0 0 1 0.02302,-0.03599 4.2374153,3.9823678 0 0 1 0.0234,-0.0356 4.2374153,3.9823678 0 0 1 0.02378,-0.03547 4.2374153,3.9823678 0 0 1 0.02415,-0.03522 4.2374153,3.9823678 0 0 1 0.02465,-0.03497 4.2374153,3.9823678 0 0 1 0.02492,-0.03471 4.2374153,3.9823678 0 0 1 0.02541,-0.03445 4.2374153,3.9823678 0 0 1 0.02579,-0.03422 4.2374153,3.9823678 0 0 1 0.02605,-0.03397 4.2374153,3.9823678 0 0 1 0.02654,-0.03371 4.2374153,3.9823678 0 0 1 0.02691,-0.03346 4.2374153,3.9823678 0 0 1 0.0273,-0.0331 4.2374153,3.9823678 0 0 1 0.02755,-0.03296 4.2374153,3.9823678 0 0 1 0.02805,-0.03257 4.2374153,3.9823678 0 0 1 0.0283,-0.03233 4.2374153,3.9823678 0 0 1 0.02881,-0.03207 4.2374153,3.9823678 0 0 1 0.02906,-0.03184 4.2374153,3.9823678 0 0 1 0.02944,-0.03145 4.2374153,3.9823678 0 0 1 0.02981,-0.03119 4.2374153,3.9823678 0 0 1 0.03006,-0.03082 4.2374153,3.9823678 0 0 1 0.03057,-0.0307 4.2374153,3.9823678 0 0 1 0.03082,-0.03019 4.2374153,3.9823678 0 0 1 0.03107,-0.03007 4.2374153,3.9823678 0 0 1 0.03157,-0.02968 4.2374153,3.9823678 0 0 1 0.03183,-0.02932 4.2374153,3.9823678 0 0 1 0.03207,-0.02905 4.2374153,3.9823678 0 0 1 0.03246,-0.02865 4.2374153,3.9823678 0 0 1 0.03283,-0.02842 4.2374153,3.9823678 0 0 1 0.0331,-0.02805 4.2374153,3.9823678 0 0 1 0.03346,-0.02778 4.2374153,3.9823678 0 0 1 0.03371,-0.02742 4.2374153,3.9823678 0 0 1 0.03408,-0.02705 4.2374153,3.9823678 0 0 1 0.03433,-0.0268 4.2374153,3.9823678 0 0 1 0.03458,-0.02641 4.2374153,3.9823678 0 0 1 0.03485,-0.02605 4.2374153,3.9823678 0 0 1 0.03522,-0.02565 4.2374153,3.9823678 0 0 1 0.03558,-0.0254 4.2374153,3.9823678 0 0 1 0.03571,-0.02504 4.2374153,3.9823678 0 0 1 0.03612,-0.02464 4.2374153,3.9823678 0 0 1 0.03636,-0.02428 4.2374153,3.9823678 0 0 1 0.03662,-0.02392 4.2374153,3.9823678 0 0 1 0.03685,-0.02352 4.2374153,3.9823678 0 0 1 0.03712,-0.02328 4.2374153,3.9823678 0 0 1 0.03737,-0.02275 4.2374153,3.9823678 0 0 1 0.03773,-0.02251 4.2374153,3.9823678 0 0 1 0.03786,-0.02211 4.2374153,3.9823678 0 0 1 0.03812,-0.02166 4.2374153,3.9823678 0 0 1 0.03837,-0.02141 4.2374153,3.9823678 0 0 1 0.03861,-0.02089 4.2374153,3.9823678 0 0 1 0.03887,-0.02065 4.2374153,3.9823678 0 0 1 0.03849,-0.01972 c -0.02266,-0.03324 -0.04126,-0.06886 -0.06426,-0.101905 -0.227561,-0.327046 -0.470877,-0.644888 -0.730368,-0.953153 -0.192308,-0.228447 -0.402962,-0.446074 -0.613252,-0.663945 z"
       style="fill:#00ff00;fill-rule:evenodd;stroke:#383838;stroke-width:0;stroke-opacity:0.995935"
       id="path892" />
    <rect
       rx="0.73028642"
       ry="0.64612836"
       y="7.9103146"
       x="15.139863"
       height="8.1637688"
       width="2.2420979"
       id="rect894"
       style="fill:#00ff00;fill-rule:evenodd;stroke:#383838;stroke-width:0;stroke-opacity:0.995935" />
  </g>
</svg>
