<?xml version="1.0" encoding="UTF-8" standalone="no"?>
<svg
   xmlns:dc="http://purl.org/dc/elements/1.1/"
   xmlns:cc="http://creativecommons.org/ns#"
   xmlns:rdf="http://www.w3.org/1999/02/22-rdf-syntax-ns#"
   xmlns:svg="http://www.w3.org/2000/svg"
   xmlns="http://www.w3.org/2000/svg"
   xmlns:xlink="http://www.w3.org/1999/xlink"
   xmlns:sodipodi="http://sodipodi.sourceforge.net/DTD/sodipodi-0.dtd"
   xmlns:inkscape="http://www.inkscape.org/namespaces/inkscape"
   sodipodi:docname="powerbutton_yellow.svg"
   inkscape:version="1.0beta2 (2b71d25, 2019-12-03)"
   id="svg1002"
   version="1.1"
   viewBox="0 0 31.75 31.75"
   height="120"
   width="120">
  <defs
     id="defs996">
    <radialGradient
       gradientTransform="matrix(0.305,0,0,0.305,62.303609,-46.139059)"
       inkscape:collect="always"
       xlink:href="#linearGradient958"
       id="radialGradient960"
       cx="-151.72208"
       cy="204.10104"
       fx="-151.72208"
       fy="204.10104"
       r="50"
       gradientUnits="userSpaceOnUse" />
    <linearGradient
       inkscape:collect="always"
       id="linearGradient958">
      <stop
         style="stop-color:#ff7f2a;stop-opacity:0.70731705"
         offset="0"
         id="stop954" />
      <stop
         style="stop-color:#ff7f2a;stop-opacity:0;"
         offset="1"
         id="stop956" />
    </linearGradient>
  </defs>
  <sodipodi:namedview
     inkscape:snap-global="true"
     inkscape:snap-bbox="true"
     inkscape:window-maximized="0"
     inkscape:window-y="23"
     inkscape:window-x="0"
     inkscape:window-height="792"
     inkscape:window-width="1440"
     inkscape:snap-nodes="true"
     inkscape:snap-text-baseline="true"
     inkscape:snap-page="true"
     units="px"
     showgrid="false"
     inkscape:document-rotation="0"
     inkscape:current-layer="layer1"
     inkscape:document-units="mm"
     inkscape:cy="75.792885"
     inkscape:cx="29.325932"
     inkscape:zoom="2.8706008"
     inkscape:pageshadow="2"
     inkscape:pageopacity="0.0"
     borderopacity="1.0"
     bordercolor="#666666"
     pagecolor="#ffffff"
     id="base" />
  <metadata
     id="metadata999">
    <rdf:RDF>
      <cc:Work
         rdf:about="">
        <dc:format>image/svg+xml</dc:format>
        <dc:type
           rdf:resource="http://purl.org/dc/dcmitype/StillImage" />
        <dc:title></dc:title>
      </cc:Work>
    </rdf:RDF>
  </metadata>
  <g
     style="display:inline;opacity:1"
     id="layer1"
     inkscape:groupmode="layer"
     inkscape:label="Laag 1">
    <circle
       style="display:inline;fill:#1d1d1d;fill-opacity:1;fill-rule:evenodd;stroke:#383838;stroke-width:0;stroke-opacity:0.995935"
       id="circle944"
       cx="16.028376"
       cy="16.111757"
       r="15.25" />
    <circle
       r="15.25"
       cy="16.111757"
       cx="16.028376"
       id="circle946"
       style="display:inline;fill:url(#radialGradient960);fill-opacity:1;fill-rule:evenodd;stroke:#383838;stroke-width:0;stroke-opacity:0.995935" />
    <path
       inkscape:connector-curvature="0"
       d="m 12.627076,10.687155 a 6.4313763,6.3643828 0 0 0 -2.9385772,5.343908 6.4313763,6.3643828 0 0 0 6.4312842,6.364365 6.4313763,6.3643828 0 0 0 6.431414,-6.364365 6.4313763,6.3643828 0 0 0 -2.736048,-5.208805 c -0.06182,0.06582 -0.120737,0.123042 -0.183031,0.191085 -0.245586,0.268217 -0.494076,0.553764 -0.739177,0.857419 -0.177525,0.219939 -0.349115,0.460377 -0.520662,0.699548 a 4.2374156,3.9823682 0 0 1 0.003,0.0018 4.2374156,3.9823682 0 0 1 0.03723,0.02303 4.2374156,3.9823682 0 0 1 0.03698,0.02351 4.2374156,3.9823682 0 0 1 0.0366,0.02379 4.2374156,3.9823682 0 0 1 0.03648,0.02428 4.2374156,3.9823682 0 0 1 0.0361,0.02452 4.2374156,3.9823682 0 0 1 0.03585,0.02492 4.2374156,3.9823682 0 0 1 0.0356,0.02528 4.2374156,3.9823682 0 0 1 0.03523,0.02565 4.2374156,3.9823682 0 0 1 0.0351,0.02593 4.2374156,3.9823682 0 0 1 0.03459,0.02629 4.2374156,3.9823682 0 0 1 0.03447,0.02666 4.2374156,3.9823682 0 0 1 0.03409,0.02705 4.2374156,3.9823682 0 0 1 0.03384,0.0273 4.2374156,3.9823682 0 0 1 0.03346,0.02766 4.2374156,3.9823682 0 0 1 0.03321,0.02806 4.2374156,3.9823682 0 0 1 0.03283,0.0283 4.2374156,3.9823682 0 0 1 0.03258,0.02867 4.2374156,3.9823682 0 0 1 0.0322,0.02895 4.2374156,3.9823682 0 0 1 0.03195,0.02931 4.2374156,3.9823682 0 0 1 0.03158,0.02955 4.2374156,3.9823682 0 0 1 0.0312,0.02995 4.2374156,3.9823682 0 0 1 0.03094,0.03019 4.2374156,3.9823682 0 0 1 0.03057,0.03044 4.2374156,3.9823682 0 0 1 0.03019,0.03082 4.2374156,3.9823682 0 0 1 0.02995,0.0312 4.2374156,3.9823682 0 0 1 0.02955,0.03132 4.2374156,3.9823682 0 0 1 0.02907,0.0317 4.2374156,3.9823682 0 0 1 0.02894,0.03208 4.2374156,3.9823682 0 0 1 0.02843,0.03221 4.2374156,3.9823682 0 0 1 0.02806,0.03258 4.2374156,3.9823682 0 0 1 0.02766,0.03283 4.2374156,3.9823682 0 0 1 0.02742,0.03308 4.2374156,3.9823682 0 0 1 0.02693,0.03334 4.2374156,3.9823682 0 0 1 0.02666,0.03371 4.2374156,3.9823682 0 0 1 0.02629,0.03384 4.2374156,3.9823682 0 0 1 0.02577,0.03409 4.2374156,3.9823682 0 0 1 0.02553,0.03447 4.2374156,3.9823682 0 0 1 0.02504,0.03459 4.2374156,3.9823682 0 0 1 0.02464,0.03497 4.2374156,3.9823682 0 0 1 0.02428,0.0351 4.2374156,3.9823682 0 0 1 0.02391,0.03547 4.2374156,3.9823682 0 0 1 0.02352,0.0356 4.2374156,3.9823682 0 0 1 0.02315,0.03585 4.2374156,3.9823682 0 0 1 0.02263,0.03598 4.2374156,3.9823682 0 0 1 0.02239,0.03636 4.2374156,3.9823682 0 0 1 0.02187,0.03648 4.2374156,3.9823682 0 0 1 0.02138,0.03673 4.2374156,3.9823682 0 0 1 0.02114,0.03698 4.2374156,3.9823682 0 0 1 0.02062,0.03711 4.2374156,3.9823682 0 0 1 0.02025,0.03736 4.2374156,3.9823682 0 0 1 0.01989,0.03749 4.2374156,3.9823682 0 0 1 0.01937,0.03774 4.2374156,3.9823682 0 0 1 0.019,0.03799 4.2374156,3.9823682 0 0 1 0.01851,0.03811 4.2374156,3.9823682 0 0 1 0.01812,0.03824 4.2374156,3.9823682 0 0 1 0.01775,0.03849 4.2374156,3.9823682 0 0 1 0.01723,0.03862 4.2374156,3.9823682 0 0 1 0.01684,0.03887 4.2374156,3.9823682 0 0 1 0.01635,0.03899 4.2374156,3.9823682 0 0 1 0.01598,0.03913 4.2374156,3.9823682 0 0 1 0.01549,0.03925 4.2374156,3.9823682 0 0 1 0.0151,0.0395 4.2374156,3.9823682 0 0 1 0.01458,0.03962 4.2374156,3.9823682 0 0 1 0.01421,0.03963 4.2374156,3.9823682 0 0 1 0.01369,0.03988 4.2374156,3.9823682 0 0 1 0.01333,0.04 4.2374156,3.9823682 0 0 1 0.01284,0.04025 4.2374156,3.9823682 0 0 1 0.01232,0.04025 4.2374156,3.9823682 0 0 1 0.01196,0.04038 4.2374156,3.9823682 0 0 1 0.01144,0.04038 4.2374156,3.9823682 0 0 1 0.01107,0.04063 4.2374156,3.9823682 0 0 1 0.01055,0.04076 4.2374156,3.9823682 0 0 1 0.01019,0.04076 4.2374156,3.9823682 0 0 1 0.0097,0.04101 4.2374156,3.9823682 0 0 1 0.0092,0.04101 4.2374156,3.9823682 0 0 1 0.0087,0.04101 4.2374156,3.9823682 0 0 1 0.0083,0.04126 4.2374156,3.9823682 0 0 1 0.0078,0.04126 4.2374156,3.9823682 0 0 1 0.0074,0.04126 4.2374156,3.9823682 0 0 1 0.0069,0.04151 4.2374156,3.9823682 0 0 1 0.0064,0.04139 4.2374156,3.9823682 0 0 1 0.0059,0.04151 4.2374156,3.9823682 0 0 1 0.0055,0.04164 4.2374156,3.9823682 0 0 1 0.005,0.04164 4.2374156,3.9823682 0 0 1 0.0045,0.04164 4.2374156,3.9823682 0 0 1 0.0041,0.04176 4.2374156,3.9823682 0 0 1 0.0037,0.04177 4.2374156,3.9823682 0 0 1 0.0031,0.04189 4.2374156,3.9823682 0 0 1 0.0027,0.04176 4.2374156,3.9823682 0 0 1 0.0021,0.04189 4.2374156,3.9823682 0 0 1 0.0018,0.04189 4.2374156,3.9823682 0 0 1 0.0015,0.04189 4.2374156,3.9823682 0 0 1 6.4e-4,0.04189 4.2374156,3.9823682 0 0 1 2.42e-4,0.04189 4.2374156,3.9823682 0 0 1 0,0.01067 4.2374156,3.9823682 0 0 1 -2.42e-4,0.04189 4.2374156,3.9823682 0 0 1 -6.4e-4,0.04189 4.2374156,3.9823682 0 0 1 -0.0012,0.04202 4.2374156,3.9823682 0 0 1 -0.0018,0.04176 4.2374156,3.9823682 0 0 1 -0.0021,0.04189 4.2374156,3.9823682 0 0 1 -0.0024,0.04189 4.2374156,3.9823682 0 0 1 -0.003,0.04177 4.2374156,3.9823682 0 0 1 -0.0035,0.04176 4.2374156,3.9823682 0 0 1 -0.004,0.04176 4.2374156,3.9823682 0 0 1 -0.0044,0.04177 4.2374156,3.9823682 0 0 1 -0.0049,0.04164 4.2374156,3.9823682 0 0 1 -0.0054,0.04164 4.2374156,3.9823682 0 0 1 -0.0059,0.04151 4.2374156,3.9823682 0 0 1 -0.0063,0.04151 4.2374156,3.9823682 0 0 1 -0.0068,0.04139 4.2374156,3.9823682 0 0 1 -0.0072,0.04139 4.2374156,3.9823682 0 0 1 -0.0078,0.04126 4.2374156,3.9823682 0 0 1 -0.0082,0.04113 4.2374156,3.9823682 0 0 1 -0.0085,0.04114 4.2374156,3.9823682 0 0 1 -0.0091,0.04114 4.2374156,3.9823682 0 0 1 -0.0096,0.04088 4.2374156,3.9823682 0 0 1 -0.01007,0.04089 4.2374156,3.9823682 0 0 1 -0.01043,0.04063 4.2374156,3.9823682 0 0 1 -0.01095,0.04076 4.2374156,3.9823682 0 0 1 -0.01132,0.04051 4.2374156,3.9823682 0 0 1 -0.01183,0.04038 4.2374156,3.9823682 0 0 1 -0.01232,0.04026 4.2374156,3.9823682 0 0 1 -0.01272,0.04025 4.2374156,3.9823682 0 0 1 -0.01321,0.04 4.2374156,3.9823682 0 0 1 -0.01357,0.03988 4.2374156,3.9823682 0 0 1 -0.01409,0.03975 4.2374156,3.9823682 0 0 1 -0.01446,0.03963 4.2374156,3.9823682 0 0 1 -0.01498,0.0395 4.2374156,3.9823682 0 0 1 -0.01549,0.03937 4.2374156,3.9823682 0 0 1 -0.01574,0.03912 4.2374156,3.9823682 0 0 1 -0.01635,0.039 4.2374156,3.9823682 0 0 1 -0.01671,0.03887 4.2374156,3.9823682 0 0 1 -0.01711,0.03874 4.2374156,3.9823682 0 0 1 -0.01763,0.03849 4.2374156,3.9823682 0 0 1 -0.01799,0.03837 4.2374156,3.9823682 0 0 1 -0.01836,0.03811 4.2374156,3.9823682 0 0 1 -0.01888,0.03799 4.2374156,3.9823682 0 0 1 -0.01937,0.03786 4.2374156,3.9823682 0 0 1 -0.01961,0.03749 4.2374156,3.9823682 0 0 1 -0.02013,0.03748 4.2374156,3.9823682 0 0 1 -0.02062,0.03711 4.2374156,3.9823682 0 0 1 -0.02089,0.03699 4.2374156,3.9823682 0 0 1 -0.02141,0.03686 4.2374156,3.9823682 0 0 1 -0.02187,0.03661 4.2374156,3.9823682 0 0 1 -0.02214,0.03636 4.2374156,3.9823682 0 0 1 -0.02263,0.0361 4.2374156,3.9823682 0 0 1 -0.02303,0.03585 4.2374156,3.9823682 0 0 1 -0.02339,0.03573 4.2374156,3.9823682 0 0 1 -0.02379,0.03534 4.2374156,3.9823682 0 0 1 -0.02416,0.03522 4.2374156,3.9823682 0 0 1 -0.02464,0.03497 4.2374156,3.9823682 0 0 1 -0.02492,0.03472 4.2374156,3.9823682 0 0 1 -0.02541,0.03446 4.2374156,3.9823682 0 0 1 -0.0258,0.03422 4.2374156,3.9823682 0 0 1 -0.02605,0.03396 4.2374156,3.9823682 0 0 1 -0.02653,0.03371 4.2374156,3.9823682 0 0 1 -0.02693,0.03346 4.2374156,3.9823682 0 0 1 -0.0273,0.03321 4.2374156,3.9823682 0 0 1 -0.02754,0.03283 4.2374156,3.9823682 0 0 1 -0.02806,0.03258 4.2374156,3.9823682 0 0 1 -0.0283,0.03233 4.2374156,3.9823682 0 0 1 -0.02879,0.03208 4.2374156,3.9823682 0 0 1 -0.02907,0.03182 4.2374156,3.9823682 0 0 1 -0.02943,0.03145 4.2374156,3.9823682 0 0 1 -0.02983,0.0312 4.2374156,3.9823682 0 0 1 -0.03007,0.03094 4.2374156,3.9823682 0 0 1 -0.03057,0.03057 4.2374156,3.9823682 0 0 1 -0.03082,0.03032 4.2374156,3.9823682 0 0 1 -0.03107,0.02995 4.2374156,3.9823682 0 0 1 -0.03157,0.02968 4.2374156,3.9823682 0 0 1 -0.03183,0.02931 4.2374156,3.9823682 0 0 1 -0.03208,0.02907 4.2374156,3.9823682 0 0 1 -0.03246,0.02882 4.2374156,3.9823682 0 0 1 -0.03283,0.0283 4.2374156,3.9823682 0 0 1 -0.03308,0.02818 4.2374156,3.9823682 0 0 1 -0.03346,0.02766 4.2374156,3.9823682 0 0 1 -0.03371,0.02742 4.2374156,3.9823682 0 0 1 -0.03409,0.02705 4.2374156,3.9823682 0 0 1 -0.03422,0.02678 4.2374156,3.9823682 0 0 1 -0.03472,0.02641 4.2374156,3.9823682 0 0 1 -0.03485,0.02605 4.2374156,3.9823682 0 0 1 -0.03522,0.02565 4.2374156,3.9823682 0 0 1 -0.0356,0.02541 4.2374156,3.9823682 0 0 1 -0.03572,0.02504 4.2374156,3.9823682 0 0 1 -0.0361,0.02464 4.2374156,3.9823682 0 0 1 -0.03635,0.02428 4.2374156,3.9823682 0 0 1 -0.03661,0.02391 4.2374156,3.9823682 0 0 1 -0.03686,0.02364 4.2374156,3.9823682 0 0 1 -0.03711,0.02315 4.2374156,3.9823682 0 0 1 -0.03736,0.02291 4.2374156,3.9823682 0 0 1 -0.03774,0.02239 4.2374156,3.9823682 0 0 1 -0.03786,0.02214 4.2374156,3.9823682 0 0 1 -0.03812,0.02175 4.2374156,3.9823682 0 0 1 -0.03837,0.02126 4.2374156,3.9823682 0 0 1 -0.03862,0.02101 4.2374156,3.9823682 0 0 1 -0.03887,0.0205 4.2374156,3.9823682 0 0 1 -0.03912,0.02025 4.2374156,3.9823682 0 0 1 -0.03925,0.01973 4.2374156,3.9823682 0 0 1 -0.0395,0.01937 4.2374156,3.9823682 0 0 1 -0.03975,0.01912 4.2374156,3.9823682 0 0 1 -0.04,0.01861 4.2374156,3.9823682 0 0 1 -0.04013,0.01824 4.2374156,3.9823682 0 0 1 -0.04038,0.01775 4.2374156,3.9823682 0 0 1 -0.04051,0.01748 4.2374156,3.9823682 0 0 1 -0.04076,0.01699 4.2374156,3.9823682 0 0 1 -0.04101,0.01659 4.2374156,3.9823682 0 0 1 -0.04101,0.01623 4.2374156,3.9823682 0 0 1 -0.04139,0.01586 4.2374156,3.9823682 0 0 1 -0.04139,0.01537 4.2374156,3.9823682 0 0 1 -0.04176,0.0151 4.2374156,3.9823682 0 0 1 -0.04177,0.01458 4.2374156,3.9823682 0 0 1 -0.04201,0.01409 4.2374156,3.9823682 0 0 1 -0.04202,0.01369 4.2374156,3.9823682 0 0 1 -0.04239,0.01333 4.2374156,3.9823682 0 0 1 -0.04239,0.01296 4.2374156,3.9823682 0 0 1 -0.04252,0.01247 4.2374156,3.9823682 0 0 1 -0.04277,0.01208 4.2374156,3.9823682 0 0 1 -0.04277,0.01171 4.2374156,3.9823682 0 0 1 -0.04302,0.01119 4.2374156,3.9823682 0 0 1 -0.04302,0.0108 4.2374156,3.9823682 0 0 1 -0.04327,0.01031 4.2374156,3.9823682 0 0 1 -0.04327,0.0099 4.2374156,3.9823682 0 0 1 -0.0434,0.0096 4.2374156,3.9823682 0 0 1 -0.04365,0.0091 4.2374156,3.9823682 0 0 1 -0.04353,0.0087 4.2374156,3.9823682 0 0 1 -0.04377,0.0082 4.2374156,3.9823682 0 0 1 -0.04378,0.0078 4.2374156,3.9823682 0 0 1 -0.0439,0.0074 4.2374156,3.9823682 0 0 1 -0.04403,0.0069 4.2374156,3.9823682 0 0 1 -0.04403,0.0064 4.2374156,3.9823682 0 0 1 -0.04415,0.006 4.2374156,3.9823682 0 0 1 -0.04415,0.0056 4.2374156,3.9823682 0 0 1 -0.04428,0.0052 4.2374156,3.9823682 0 0 1 -0.04428,0.0048 4.2374156,3.9823682 0 0 1 -0.04441,0.0043 4.2374156,3.9823682 0 0 1 -0.04441,0.0038 4.2374156,3.9823682 0 0 1 -0.0444,0.0034 4.2374156,3.9823682 0 0 1 -0.04453,0.0031 4.2374156,3.9823682 0 0 1 -0.04453,0.0024 4.2374156,3.9823682 0 0 1 -0.04453,0.0021 4.2374156,3.9823682 0 0 1 -0.04453,0.0018 4.2374156,3.9823682 0 0 1 -0.04466,0.0012 4.2374156,3.9823682 0 0 1 -0.04453,6.41e-4 4.2374156,3.9823682 0 0 1 -0.04453,6.4e-4 4.2374156,3.9823682 0 0 1 -0.01144,0 4.2374156,3.9823682 0 0 1 -0.04453,-2.42e-4 4.2374156,3.9823682 0 0 1 -0.04466,-6.4e-4 4.2374156,3.9823682 0 0 1 -0.04453,-0.0012 4.2374156,3.9823682 0 0 1 -0.04466,-0.0015 4.2374156,3.9823682 0 0 1 -0.04453,-0.0018 4.2374156,3.9823682 0 0 1 -0.04453,-0.0024 4.2374156,3.9823682 0 0 1 -0.0444,-0.0027 4.2374156,3.9823682 0 0 1 -0.04453,-0.0033 4.2374156,3.9823682 0 0 1 -0.0444,-0.0038 4.2374156,3.9823682 0 0 1 -0.04441,-0.0042 4.2374156,3.9823682 0 0 1 -0.04428,-0.0046 4.2374156,3.9823682 0 0 1 -0.04428,-0.005 4.2374156,3.9823682 0 0 1 -0.04415,-0.0055 4.2374156,3.9823682 0 0 1 -0.04415,-0.0059 4.2374156,3.9823682 0 0 1 -0.04415,-0.0064 4.2374156,3.9823682 0 0 1 -0.0439,-0.0068 4.2374156,3.9823682 0 0 1 -0.04403,-0.0073 4.2374156,3.9823682 0 0 1 -0.04378,-0.0077 4.2374156,3.9823682 0 0 1 -0.04378,-0.0081 4.2374156,3.9823682 0 0 1 -0.04365,-0.0085 4.2374156,3.9823682 0 0 1 -0.04353,-0.0089 4.2374156,3.9823682 0 0 1 -0.04352,-0.0095 4.2374156,3.9823682 0 0 1 -0.04327,-0.0098 4.2374156,3.9823682 0 0 1 -0.04327,-0.01031 4.2374156,3.9823682 0 0 1 -0.04315,-0.01067 4.2374156,3.9823682 0 0 1 -0.04302,-0.01107 4.2374156,3.9823682 0 0 1 -0.04277,-0.01156 4.2374156,3.9823682 0 0 1 -0.04277,-0.01196 4.2374156,3.9823682 0 0 1 -0.04264,-0.01232 4.2374156,3.9823682 0 0 1 -0.04239,-0.01284 4.2374156,3.9823682 0 0 1 -0.04239,-0.01321 4.2374156,3.9823682 0 0 1 -0.04214,-0.01369 4.2374156,3.9823682 0 0 1 -0.04202,-0.01397 4.2374156,3.9823682 0 0 1 -0.04189,-0.01446 4.2374156,3.9823682 0 0 1 -0.04164,-0.01497 4.2374156,3.9823682 0 0 1 -0.04151,-0.01522 4.2374156,3.9823682 0 0 1 -0.04139,-0.01574 4.2374156,3.9823682 0 0 1 -0.04114,-0.0161 4.2374156,3.9823682 0 0 1 -0.04101,-0.01659 4.2374156,3.9823682 0 0 1 -0.04076,-0.01684 4.2374156,3.9823682 0 0 1 -0.04063,-0.01735 4.2374156,3.9823682 0 0 1 -0.04038,-0.01775 4.2374156,3.9823682 0 0 1 -0.04026,-0.01812 4.2374156,3.9823682 0 0 1 -0.04,-0.01851 4.2374156,3.9823682 0 0 1 -0.03975,-0.01897 4.2374156,3.9823682 0 0 1 -0.03962,-0.01924 4.2374156,3.9823682 0 0 1 -0.03938,-0.01973 4.2374156,3.9823682 0 0 1 -0.03912,-0.02001 4.2374156,3.9823682 0 0 1 -0.03887,-0.0205 4.2374156,3.9823682 0 0 1 -0.03875,-0.02089 4.2374156,3.9823682 0 0 1 -0.03837,-0.02126 4.2374156,3.9823682 0 0 1 -0.03824,-0.02165 4.2374156,3.9823682 0 0 1 -0.03799,-0.02199 4.2374156,3.9823682 0 0 1 -0.03761,-0.02227 4.2374156,3.9823682 0 0 1 -0.03749,-0.02275 4.2374156,3.9823682 0 0 1 -0.03723,-0.02315 4.2374156,3.9823682 0 0 1 -0.03698,-0.02351 4.2374156,3.9823682 0 0 1 -0.03661,-0.02379 4.2374156,3.9823682 0 0 1 -0.03648,-0.02428 4.2374156,3.9823682 0 0 1 -0.0361,-0.02452 4.2374156,3.9823682 0 0 1 -0.03585,-0.02492 4.2374156,3.9823682 0 0 1 -0.0356,-0.02528 4.2374156,3.9823682 0 0 1 -0.03522,-0.02553 4.2374156,3.9823682 0 0 1 -0.03497,-0.02605 4.2374156,3.9823682 0 0 1 -0.03472,-0.02629 4.2374156,3.9823682 0 0 1 -0.03447,-0.02666 4.2374156,3.9823682 0 0 1 -0.03409,-0.02705 4.2374156,3.9823682 0 0 1 -0.03384,-0.0273 4.2374156,3.9823682 0 0 1 -0.03346,-0.02766 4.2374156,3.9823682 0 0 1 -0.03321,-0.02794 4.2374156,3.9823682 0 0 1 -0.03283,-0.0283 4.2374156,3.9823682 0 0 1 -0.03258,-0.02867 4.2374156,3.9823682 0 0 1 -0.0322,-0.02895 4.2374156,3.9823682 0 0 1 -0.03195,-0.02931 4.2374156,3.9823682 0 0 1 -0.03158,-0.02955 4.2374156,3.9823682 0 0 1 -0.0312,-0.02995 4.2374156,3.9823682 0 0 1 -0.03094,-0.03019 4.2374156,3.9823682 0 0 1 -0.03057,-0.03057 4.2374156,3.9823682 0 0 1 -0.03019,-0.03082 4.2374156,3.9823682 0 0 1 -0.02995,-0.03107 4.2374156,3.9823682 0 0 1 -0.02955,-0.03145 4.2374156,3.9823682 0 0 1 -0.02907,-0.0317 4.2374156,3.9823682 0 0 1 -0.02879,-0.03195 4.2374156,3.9823682 0 0 1 -0.02855,-0.03233 4.2374156,3.9823682 0 0 1 -0.02806,-0.03258 4.2374156,3.9823682 0 0 1 -0.02766,-0.0327 4.2374156,3.9823682 0 0 1 -0.02742,-0.03321 4.2374156,3.9823682 0 0 1 -0.02693,-0.03334 4.2374156,3.9823682 0 0 1 -0.02666,-0.03359 4.2374156,3.9823682 0 0 1 -0.02629,-0.03396 4.2374156,3.9823682 0 0 1 -0.0258,-0.03409 4.2374156,3.9823682 0 0 1 -0.02541,-0.03447 4.2374156,3.9823682 0 0 1 -0.02516,-0.03459 4.2374156,3.9823682 0 0 1 -0.02464,-0.03497 4.2374156,3.9823682 0 0 1 -0.02428,-0.0351 4.2374156,3.9823682 0 0 1 -0.02391,-0.03535 4.2374156,3.9823682 0 0 1 -0.02352,-0.0356 4.2374156,3.9823682 0 0 1 -0.02315,-0.03585 4.2374156,3.9823682 0 0 1 -0.02263,-0.0361 4.2374156,3.9823682 0 0 1 -0.02239,-0.03636 4.2374156,3.9823682 0 0 1 -0.0219,-0.03648 4.2374156,3.9823682 0 0 1 -0.02138,-0.03673 4.2374156,3.9823682 0 0 1 -0.02114,-0.03686 4.2374156,3.9823682 0 0 1 -0.02062,-0.03724 4.2374156,3.9823682 0 0 1 -0.02025,-0.03736 4.2374156,3.9823682 0 0 1 -0.01989,-0.03749 4.2374156,3.9823682 0 0 1 -0.01937,-0.03774 4.2374156,3.9823682 0 0 1 -0.019,-0.03799 4.2374156,3.9823682 0 0 1 -0.01848,-0.03811 4.2374156,3.9823682 0 0 1 -0.01812,-0.03824 4.2374156,3.9823682 0 0 1 -0.01775,-0.03849 4.2374156,3.9823682 0 0 1 -0.01723,-0.03862 4.2374156,3.9823682 0 0 1 -0.01687,-0.03887 4.2374156,3.9823682 0 0 1 -0.01635,-0.03887 4.2374156,3.9823682 0 0 1 -0.01598,-0.03925 4.2374156,3.9823682 0 0 1 -0.01546,-0.03925 4.2374156,3.9823682 0 0 1 -0.0151,-0.03938 4.2374156,3.9823682 0 0 1 -0.01461,-0.03963 4.2374156,3.9823682 0 0 1 -0.01421,-0.03975 4.2374156,3.9823682 0 0 1 -0.01373,-0.03988 4.2374156,3.9823682 0 0 1 -0.01333,-0.04 4.2374156,3.9823682 0 0 1 -0.01284,-0.04013 4.2374156,3.9823682 0 0 1 -0.01232,-0.04025 4.2374156,3.9823682 0 0 1 -0.01196,-0.04038 4.2374156,3.9823682 0 0 1 -0.01144,-0.04051 4.2374156,3.9823682 0 0 1 -0.01107,-0.04063 4.2374156,3.9823682 0 0 1 -0.01055,-0.04076 4.2374156,3.9823682 0 0 1 -0.01019,-0.04076 4.2374156,3.9823682 0 0 1 -0.0097,-0.04088 4.2374156,3.9823682 0 0 1 -0.0092,-0.04101 4.2374156,3.9823682 0 0 1 -0.0087,-0.04114 4.2374156,3.9823682 0 0 1 -0.0083,-0.04114 4.2374156,3.9823682 0 0 1 -0.0078,-0.04126 4.2374156,3.9823682 0 0 1 -0.0074,-0.04139 4.2374156,3.9823682 0 0 1 -0.0069,-0.04139 4.2374156,3.9823682 0 0 1 -0.0064,-0.04151 4.2374156,3.9823682 0 0 1 -0.0059,-0.04151 4.2374156,3.9823682 0 0 1 -0.0055,-0.04164 4.2374156,3.9823682 0 0 1 -0.005,-0.04163 4.2374156,3.9823682 0 0 1 -0.0045,-0.04164 4.2374156,3.9823682 0 0 1 -0.0041,-0.04177 4.2374156,3.9823682 0 0 1 -0.0037,-0.04176 4.2374156,3.9823682 0 0 1 -0.0031,-0.04176 4.2374156,3.9823682 0 0 1 -0.0027,-0.04189 4.2374156,3.9823682 0 0 1 -0.0021,-0.04189 4.2374156,3.9823682 0 0 1 -0.0018,-0.04176 4.2374156,3.9823682 0 0 1 -0.0012,-0.04189 4.2374156,3.9823682 0 0 1 -9.15e-4,-0.04202 4.2374156,3.9823682 0 0 1 -3.35e-4,-0.04189 4.2374156,3.9823682 0 0 1 0,-0.01067 4.2374156,3.9823682 0 0 1 2.42e-4,-0.04189 4.2374156,3.9823682 0 0 1 6.4e-4,-0.04189 4.2374156,3.9823682 0 0 1 0.0012,-0.04189 4.2374156,3.9823682 0 0 1 0.0015,-0.04189 4.2374156,3.9823682 0 0 1 0.0021,-0.04189 4.2374156,3.9823682 0 0 1 0.0024,-0.04189 4.2374156,3.9823682 0 0 1 0.003,-0.04177 4.2374156,3.9823682 0 0 1 0.0035,-0.04176 4.2374156,3.9823682 0 0 1 0.004,-0.04177 4.2374156,3.9823682 0 0 1 0.0044,-0.04164 4.2374156,3.9823682 0 0 1 0.0049,-0.04176 4.2374156,3.9823682 0 0 1 0.0054,-0.04151 4.2374156,3.9823682 0 0 1 0.0059,-0.04164 4.2374156,3.9823682 0 0 1 0.0063,-0.04139 4.2374156,3.9823682 0 0 1 0.0068,-0.04151 4.2374156,3.9823682 0 0 1 0.0072,-0.04126 4.2374156,3.9823682 0 0 1 0.0078,-0.04139 4.2374156,3.9823682 0 0 1 0.0082,-0.04114 4.2374156,3.9823682 0 0 1 0.0086,-0.04114 4.2374156,3.9823682 0 0 1 0.0091,-0.04101 4.2374156,3.9823682 0 0 1 0.0095,-0.04101 4.2374156,3.9823682 0 0 1 0.01006,-0.04076 4.2374156,3.9823682 0 0 1 0.01043,-0.04076 4.2374156,3.9823682 0 0 1 0.01095,-0.04063 4.2374156,3.9823682 0 0 1 0.01131,-0.04051 4.2374156,3.9823682 0 0 1 0.01183,-0.0405 4.2374156,3.9823682 0 0 1 0.01232,-0.04026 4.2374156,3.9823682 0 0 1 0.01272,-0.04013 4.2374156,3.9823682 0 0 1 0.01321,-0.04 4.2374156,3.9823682 0 0 1 0.01357,-0.04 4.2374156,3.9823682 0 0 1 0.01409,-0.03975 4.2374156,3.9823682 0 0 1 0.01446,-0.03962 4.2374156,3.9823682 0 0 1 0.01497,-0.0395 4.2374156,3.9823682 0 0 1 0.01546,-0.03925 4.2374156,3.9823682 0 0 1 0.01574,-0.03925 4.2374156,3.9823682 0 0 1 0.01635,-0.039 4.2374156,3.9823682 0 0 1 0.01674,-0.03887 4.2374156,3.9823682 0 0 1 0.01711,-0.03874 4.2374156,3.9823682 0 0 1 0.0176,-0.03849 4.2374156,3.9823682 0 0 1 0.01799,-0.03837 4.2374156,3.9823682 0 0 1 0.01848,-0.03812 4.2374156,3.9823682 0 0 1 0.01876,-0.03799 4.2374156,3.9823682 0 0 1 0.01937,-0.03774 4.2374156,3.9823682 0 0 1 0.01964,-0.03761 4.2374156,3.9823682 0 0 1 0.02025,-0.03736 4.2374156,3.9823682 0 0 1 0.0205,-0.03724 4.2374156,3.9823682 0 0 1 0.02089,-0.03699 4.2374156,3.9823682 0 0 1 0.02138,-0.03673 4.2374156,3.9823682 0 0 1 0.0219,-0.03661 4.2374156,3.9823682 0 0 1 0.02214,-0.03636 4.2374156,3.9823682 0 0 1 0.02263,-0.0361 4.2374156,3.9823682 0 0 1 0.02303,-0.03597 4.2374156,3.9823682 0 0 1 0.02339,-0.0356 4.2374156,3.9823682 0 0 1 0.02376,-0.03547 4.2374156,3.9823682 0 0 1 0.02416,-0.03523 4.2374156,3.9823682 0 0 1 0.02464,-0.03497 4.2374156,3.9823682 0 0 1 0.02492,-0.03472 4.2374156,3.9823682 0 0 1 0.02541,-0.03447 4.2374156,3.9823682 0 0 1 0.0258,-0.03422 4.2374156,3.9823682 0 0 1 0.02605,-0.03396 4.2374156,3.9823682 0 0 1 0.02654,-0.03371 4.2374156,3.9823682 0 0 1 0.02693,-0.03346 4.2374156,3.9823682 0 0 1 0.0273,-0.03309 4.2374156,3.9823682 0 0 1 0.02754,-0.03296 4.2374156,3.9823682 0 0 1 0.02806,-0.03258 4.2374156,3.9823682 0 0 1 0.0283,-0.03233 4.2374156,3.9823682 0 0 1 0.02879,-0.03208 4.2374156,3.9823682 0 0 1 0.02907,-0.03183 4.2374156,3.9823682 0 0 1 0.02943,-0.03145 4.2374156,3.9823682 0 0 1 0.02983,-0.0312 4.2374156,3.9823682 0 0 1 0.03007,-0.03082 4.2374156,3.9823682 0 0 1 0.03057,-0.03069 4.2374156,3.9823682 0 0 1 0.03082,-0.03019 4.2374156,3.9823682 0 0 1 0.03107,-0.03007 4.2374156,3.9823682 0 0 1 0.03157,-0.02968 4.2374156,3.9823682 0 0 1 0.03183,-0.02931 4.2374156,3.9823682 0 0 1 0.03208,-0.02907 4.2374156,3.9823682 0 0 1 0.03246,-0.02867 4.2374156,3.9823682 0 0 1 0.03283,-0.02843 4.2374156,3.9823682 0 0 1 0.03309,-0.02806 4.2374156,3.9823682 0 0 1 0.03346,-0.02778 4.2374156,3.9823682 0 0 1 0.03371,-0.02742 4.2374156,3.9823682 0 0 1 0.03409,-0.02705 4.2374156,3.9823682 0 0 1 0.03434,-0.02681 4.2374156,3.9823682 0 0 1 0.03459,-0.02641 4.2374156,3.9823682 0 0 1 0.03485,-0.02605 4.2374156,3.9823682 0 0 1 0.03522,-0.02565 4.2374156,3.9823682 0 0 1 0.0356,-0.02541 4.2374156,3.9823682 0 0 1 0.03573,-0.02504 4.2374156,3.9823682 0 0 1 0.0361,-0.02464 4.2374156,3.9823682 0 0 1 0.03636,-0.02428 4.2374156,3.9823682 0 0 1 0.03661,-0.02391 4.2374156,3.9823682 0 0 1 0.03686,-0.02352 4.2374156,3.9823682 0 0 1 0.03711,-0.02327 4.2374156,3.9823682 0 0 1 0.03736,-0.02275 4.2374156,3.9823682 0 0 1 0.03774,-0.02251 4.2374156,3.9823682 0 0 1 0.03787,-0.02211 4.2374156,3.9823682 0 0 1 0.03812,-0.02165 4.2374156,3.9823682 0 0 1 0.03837,-0.02141 4.2374156,3.9823682 0 0 1 0.03862,-0.02089 4.2374156,3.9823682 0 0 1 0.03887,-0.02065 4.2374156,3.9823682 0 0 1 0.03849,-0.01973 c -0.02266,-0.03324 -0.04127,-0.06886 -0.06427,-0.101901 C 13.74284,11.977812 13.499523,11.659969 13.240032,11.351705 13.047727,11.123257 12.837069,10.90563 12.626781,10.68776 Z"
       style="display:inline;fill:#ff9c0d;fill-opacity:1;fill-rule:evenodd;stroke:#383838;stroke-width:0;stroke-opacity:0.995935"
       id="path948" />
    <rect
       rx="0.73028642"
       ry="0.64612848"
       y="7.9103165"
       x="15.139866"
       height="8.1637688"
       width="2.2420981"
       id="rect950"
       style="display:inline;fill:#ff9c0d;fill-opacity:1;fill-rule:evenodd;stroke:#383838;stroke-width:0;stroke-opacity:0.995935" />
  </g>
</svg>
