<?xml version="1.0" encoding="UTF-8" standalone="no"?>
<svg
   xmlns:dc="http://purl.org/dc/elements/1.1/"
   xmlns:cc="http://creativecommons.org/ns#"
   xmlns:rdf="http://www.w3.org/1999/02/22-rdf-syntax-ns#"
   xmlns:svg="http://www.w3.org/2000/svg"
   xmlns="http://www.w3.org/2000/svg"
   xmlns:xlink="http://www.w3.org/1999/xlink"
   xmlns:sodipodi="http://sodipodi.sourceforge.net/DTD/sodipodi-0.dtd"
   xmlns:inkscape="http://www.inkscape.org/namespaces/inkscape"
   sodipodi:docname="powerbutton_red.svg"
   inkscape:version="1.0beta2 (2b71d25, 2019-12-03)"
   id="svg1002"
   version="1.1"
   viewBox="0 0 31.75 31.75"
   height="120"
   width="120">
  <defs
     id="defs996">
    <radialGradient
       inkscape:collect="always"
       xlink:href="#linearGradient930"
       id="radialGradient932"
       cx="93.317215"
       cy="202.15628"
       fx="93.317215"
       fy="202.15628"
       r="50"
       gradientUnits="userSpaceOnUse"
       gradientTransform="matrix(0.30626582,0.00439537,-0.00433182,0.30183937,-11.963635,-45.847145)" />
    <linearGradient
       inkscape:collect="always"
       id="linearGradient930">
      <stop
         style="stop-color:#ff0000;stop-opacity:0.47154471"
         offset="0"
         id="stop926" />
      <stop
         style="stop-color:#ff0000;stop-opacity:0;"
         offset="1"
         id="stop928" />
    </linearGradient>
  </defs>
  <sodipodi:namedview
     inkscape:window-maximized="0"
     inkscape:window-y="23"
     inkscape:window-x="0"
     inkscape:window-height="792"
     inkscape:window-width="1440"
     inkscape:snap-nodes="false"
     inkscape:snap-text-baseline="true"
     inkscape:snap-page="true"
     units="px"
     showgrid="false"
     inkscape:document-rotation="0"
     inkscape:current-layer="layer1"
     inkscape:document-units="mm"
     inkscape:cy="74.311198"
     inkscape:cx="106.46325"
     inkscape:zoom="2.5494349"
     inkscape:pageshadow="2"
     inkscape:pageopacity="0.0"
     borderopacity="1.0"
     bordercolor="#666666"
     pagecolor="#ffffff"
     id="base" />
  <metadata
     id="metadata999">
    <rdf:RDF>
      <cc:Work
         rdf:about="">
        <dc:format>image/svg+xml</dc:format>
        <dc:type
           rdf:resource="http://purl.org/dc/dcmitype/StillImage" />
        <dc:title></dc:title>
      </cc:Work>
    </rdf:RDF>
  </metadata>
  <g
     id="layer1"
     inkscape:groupmode="layer"
     inkscape:label="Laag 1">
    <circle
       r="15.093525"
       cy="15.581738"
       cx="15.740531"
       id="circle868"
       style="fill:#1d1d1d;fill-opacity:1;fill-rule:evenodd;stroke:#383838;stroke-width:0;stroke-opacity:0.995935" />
    <circle
       r="15.093525"
       style="fill:url(#radialGradient932);fill-opacity:1;fill-rule:evenodd;stroke:#383838;stroke-width:0;stroke-opacity:0.995935"
       id="path866"
       cx="15.740531"
       cy="15.581738" />
    <path
       id="path843"
       style="fill:#ff0000;fill-rule:evenodd;stroke:#383838;stroke-width:0;stroke-opacity:0.995935"
       d="m 12.374129,10.212798 a 6.3653852,6.2990792 0 0 0 -2.9084252,5.289076 6.3653852,6.2990792 0 0 0 6.3652952,6.299062 6.3653852,6.2990792 0 0 0 6.36542,-6.299062 6.3653852,6.2990792 0 0 0 -2.707974,-5.155359 c -0.06117,0.06514 -0.119499,0.121781 -0.181152,0.189124 -0.243067,0.265466 -0.489004,0.548083 -0.731591,0.848623 -0.175704,0.217682 -0.345534,0.455652 -0.515321,0.692371 a 4.1939364,3.941506 0 0 1 0.0031,0.0018 4.1939364,3.941506 0 0 1 0.03685,0.02279 4.1939364,3.941506 0 0 1 0.03661,0.02327 4.1939364,3.941506 0 0 1 0.03623,0.02354 4.1939364,3.941506 0 0 1 0.0361,0.02404 4.1939364,3.941506 0 0 1 0.03572,0.02426 4.1939364,3.941506 0 0 1 0.03549,0.02465 4.1939364,3.941506 0 0 1 0.03525,0.02503 4.1939364,3.941506 0 0 1 0.03486,0.02539 4.1939364,3.941506 0 0 1 0.03473,0.02566 4.1939364,3.941506 0 0 1 0.03425,0.02603 4.1939364,3.941506 0 0 1 0.03412,0.0264 4.1939364,3.941506 0 0 1 0.03373,0.02677 4.1939364,3.941506 0 0 1 0.03349,0.02702 4.1939364,3.941506 0 0 1 0.03313,0.02737 4.1939364,3.941506 0 0 1 0.03287,0.02777 4.1939364,3.941506 0 0 1 0.03248,0.028 4.1939364,3.941506 0 0 1 0.03225,0.02838 4.1939364,3.941506 0 0 1 0.03186,0.02865 4.1939364,3.941506 0 0 1 0.03163,0.029 4.1939364,3.941506 0 0 1 0.03124,0.02924 4.1939364,3.941506 0 0 1 0.03089,0.02964 4.1939364,3.941506 0 0 1 0.03063,0.02989 4.1939364,3.941506 0 0 1 0.03026,0.03012 4.1939364,3.941506 0 0 1 0.02988,0.03051 4.1939364,3.941506 0 0 1 0.02964,0.03088 4.1939364,3.941506 0 0 1 0.02925,0.031 4.1939364,3.941506 0 0 1 0.02876,0.03137 4.1939364,3.941506 0 0 1 0.02865,0.03175 4.1939364,3.941506 0 0 1 0.02813,0.03187 4.1939364,3.941506 0 0 1 0.02777,0.03225 4.1939364,3.941506 0 0 1 0.02738,0.03248 4.1939364,3.941506 0 0 1 0.02714,0.03275 4.1939364,3.941506 0 0 1 0.02665,0.033 4.1939364,3.941506 0 0 1 0.0264,0.03337 4.1939364,3.941506 0 0 1 0.02603,0.03349 4.1939364,3.941506 0 0 1 0.02551,0.03373 4.1939364,3.941506 0 0 1 0.02527,0.03412 4.1939364,3.941506 0 0 1 0.0248,0.03425 4.1939364,3.941506 0 0 1 0.02437,0.03462 4.1939364,3.941506 0 0 1 0.02404,0.03474 4.1939364,3.941506 0 0 1 0.02368,0.03511 4.1939364,3.941506 0 0 1 0.02328,0.03525 4.1939364,3.941506 0 0 1 0.02291,0.03548 4.1939364,3.941506 0 0 1 0.02238,0.0356 4.1939364,3.941506 0 0 1 0.02215,0.03598 4.1939364,3.941506 0 0 1 0.02165,0.03609 4.1939364,3.941506 0 0 1 0.02116,0.03635 4.1939364,3.941506 0 0 1 0.02093,0.03661 4.1939364,3.941506 0 0 1 0.02041,0.03674 4.1939364,3.941506 0 0 1 0.02004,0.03699 4.1939364,3.941506 0 0 1 0.01968,0.03709 4.1939364,3.941506 0 0 1 0.01919,0.03736 4.1939364,3.941506 0 0 1 0.0188,0.03761 4.1939364,3.941506 0 0 1 0.01832,0.03773 4.1939364,3.941506 0 0 1 0.01793,0.03786 4.1939364,3.941506 0 0 1 0.01756,0.03807 4.1939364,3.941506 0 0 1 0.01705,0.03822 4.1939364,3.941506 0 0 1 0.01667,0.03848 4.1939364,3.941506 0 0 1 0.01618,0.03859 4.1939364,3.941506 0 0 1 0.01582,0.03872 4.1939364,3.941506 0 0 1 0.01533,0.03885 4.1939364,3.941506 0 0 1 0.01495,0.0391 4.1939364,3.941506 0 0 1 0.01444,0.03921 4.1939364,3.941506 0 0 1 0.01406,0.03922 4.1939364,3.941506 0 0 1 0.01355,0.03947 4.1939364,3.941506 0 0 1 0.01318,0.0396 4.1939364,3.941506 0 0 1 0.0127,0.03985 4.1939364,3.941506 0 0 1 0.01221,0.03985 4.1939364,3.941506 0 0 1 0.01182,0.03996 4.1939364,3.941506 0 0 1 0.01132,0.03996 4.1939364,3.941506 0 0 1 0.01096,0.04023 4.1939364,3.941506 0 0 1 0.01048,0.04034 4.1939364,3.941506 0 0 1 0.01009,0.04033 4.1939364,3.941506 0 0 1 0.0097,0.04057 4.1939364,3.941506 0 0 1 0.0092,0.04057 4.1939364,3.941506 0 0 1 0.0088,0.04058 4.1939364,3.941506 0 0 1 0.0082,0.04084 4.1939364,3.941506 0 0 1 0.0078,0.04084 4.1939364,3.941506 0 0 1 0.0074,0.04084 4.1939364,3.941506 0 0 1 0.007,0.04108 4.1939364,3.941506 0 0 1 0.0064,0.04098 4.1939364,3.941506 0 0 1 0.0059,0.04108 4.1939364,3.941506 0 0 1 0.0055,0.04121 4.1939364,3.941506 0 0 1 0.0051,0.04121 4.1939364,3.941506 0 0 1 0.0044,0.04121 4.1939364,3.941506 0 0 1 0.004,0.04133 4.1939364,3.941506 0 0 1 0.0036,0.04133 4.1939364,3.941506 0 0 1 0.0031,0.04146 4.1939364,3.941506 0 0 1 0.0027,0.04133 4.1939364,3.941506 0 0 1 0.0021,0.04146 4.1939364,3.941506 0 0 1 0.0018,0.04146 4.1939364,3.941506 0 0 1 0.0015,0.04146 4.1939364,3.941506 0 0 1 6.32e-4,0.04146 4.1939364,3.941506 0 0 1 2.4e-4,0.04146 4.1939364,3.941506 0 0 1 0,0.01059 4.1939364,3.941506 0 0 1 -2.4e-4,0.04146 4.1939364,3.941506 0 0 1 -6.32e-4,0.04146 4.1939364,3.941506 0 0 1 -0.0012,0.04159 4.1939364,3.941506 0 0 1 -0.0018,0.04133 4.1939364,3.941506 0 0 1 -0.0021,0.04146 4.1939364,3.941506 0 0 1 -0.0024,0.04146 4.1939364,3.941506 0 0 1 -0.0031,0.04133 4.1939364,3.941506 0 0 1 -0.0035,0.04133 4.1939364,3.941506 0 0 1 -0.0039,0.04133 4.1939364,3.941506 0 0 1 -0.0043,0.04133 4.1939364,3.941506 0 0 1 -0.0049,0.04121 4.1939364,3.941506 0 0 1 -0.0054,0.04121 4.1939364,3.941506 0 0 1 -0.0059,0.04109 4.1939364,3.941506 0 0 1 -0.0062,0.04108 4.1939364,3.941506 0 0 1 -0.0067,0.04096 4.1939364,3.941506 0 0 1 -0.0073,0.04098 4.1939364,3.941506 0 0 1 -0.0078,0.04084 4.1939364,3.941506 0 0 1 -0.0081,0.0407 4.1939364,3.941506 0 0 1 -0.0085,0.0407 4.1939364,3.941506 0 0 1 -0.0091,0.0407 4.1939364,3.941506 0 0 1 -0.0095,0.04046 4.1939364,3.941506 0 0 1 -0.01,0.04046 4.1939364,3.941506 0 0 1 -0.01027,0.04022 4.1939364,3.941506 0 0 1 -0.01083,0.04034 4.1939364,3.941506 0 0 1 -0.0112,0.04009 4.1939364,3.941506 0 0 1 -0.01172,0.03996 4.1939364,3.941506 0 0 1 -0.01221,0.03986 4.1939364,3.941506 0 0 1 -0.01259,0.03985 4.1939364,3.941506 0 0 1 -0.01307,0.0396 4.1939364,3.941506 0 0 1 -0.01344,0.03947 4.1939364,3.941506 0 0 1 -0.01394,0.03934 4.1939364,3.941506 0 0 1 -0.01431,0.03922 4.1939364,3.941506 0 0 1 -0.01482,0.0391 4.1939364,3.941506 0 0 1 -0.01533,0.03897 4.1939364,3.941506 0 0 1 -0.01559,0.03872 4.1939364,3.941506 0 0 1 -0.01618,0.03859 4.1939364,3.941506 0 0 1 -0.01654,0.03847 4.1939364,3.941506 0 0 1 -0.01694,0.03834 4.1939364,3.941506 0 0 1 -0.01745,0.03809 4.1939364,3.941506 0 0 1 -0.0178,0.03798 4.1939364,3.941506 0 0 1 -0.01817,0.03773 4.1939364,3.941506 0 0 1 -0.01869,0.03761 4.1939364,3.941506 0 0 1 -0.01918,0.03747 4.1939364,3.941506 0 0 1 -0.01942,0.03711 4.1939364,3.941506 0 0 1 -0.01991,0.0371 4.1939364,3.941506 0 0 1 -0.02041,0.03673 4.1939364,3.941506 0 0 1 -0.02067,0.03661 4.1939364,3.941506 0 0 1 -0.02121,0.03648 4.1939364,3.941506 0 0 1 -0.02164,0.03623 4.1939364,3.941506 0 0 1 -0.02191,0.03598 4.1939364,3.941506 0 0 1 -0.02238,0.03572 4.1939364,3.941506 0 0 1 -0.02279,0.03547 4.1939364,3.941506 0 0 1 -0.02315,0.03538 4.1939364,3.941506 0 0 1 -0.02355,0.03496 4.1939364,3.941506 0 0 1 -0.02391,0.03486 4.1939364,3.941506 0 0 1 -0.02439,0.03462 4.1939364,3.941506 0 0 1 -0.02465,0.03436 4.1939364,3.941506 0 0 1 -0.02516,0.03412 4.1939364,3.941506 0 0 1 -0.02553,0.03387 4.1939364,3.941506 0 0 1 -0.02577,0.0336 4.1939364,3.941506 0 0 1 -0.02626,0.03336 4.1939364,3.941506 0 0 1 -0.02665,0.03313 4.1939364,3.941506 0 0 1 -0.02702,0.03289 4.1939364,3.941506 0 0 1 -0.02726,0.03249 4.1939364,3.941506 0 0 1 -0.02777,0.03225 4.1939364,3.941506 0 0 1 -0.02801,0.032 4.1939364,3.941506 0 0 1 -0.0285,0.03176 4.1939364,3.941506 0 0 1 -0.02876,0.03149 4.1939364,3.941506 0 0 1 -0.02912,0.03111 4.1939364,3.941506 0 0 1 -0.02952,0.03087 4.1939364,3.941506 0 0 1 -0.02977,0.03063 4.1939364,3.941506 0 0 1 -0.03025,0.03025 4.1939364,3.941506 0 0 1 -0.03051,0.03001 4.1939364,3.941506 0 0 1 -0.03075,0.02964 4.1939364,3.941506 0 0 1 -0.03124,0.02937 4.1939364,3.941506 0 0 1 -0.03149,0.029 4.1939364,3.941506 0 0 1 -0.03176,0.02876 4.1939364,3.941506 0 0 1 -0.03213,0.02853 4.1939364,3.941506 0 0 1 -0.03248,0.02801 4.1939364,3.941506 0 0 1 -0.03275,0.0279 4.1939364,3.941506 0 0 1 -0.03313,0.02737 4.1939364,3.941506 0 0 1 -0.03336,0.02714 4.1939364,3.941506 0 0 1 -0.03374,0.02677 4.1939364,3.941506 0 0 1 -0.03385,0.02651 4.1939364,3.941506 0 0 1 -0.03436,0.02615 4.1939364,3.941506 0 0 1 -0.03449,0.02577 4.1939364,3.941506 0 0 1 -0.03486,0.02539 4.1939364,3.941506 0 0 1 -0.03525,0.02514 4.1939364,3.941506 0 0 1 -0.03536,0.02478 4.1939364,3.941506 0 0 1 -0.03573,0.02438 4.1939364,3.941506 0 0 1 -0.03598,0.02404 4.1939364,3.941506 0 0 1 -0.03624,0.02368 4.1939364,3.941506 0 0 1 -0.03648,0.0234 4.1939364,3.941506 0 0 1 -0.03674,0.02291 4.1939364,3.941506 0 0 1 -0.03698,0.02267 4.1939364,3.941506 0 0 1 -0.03737,0.02215 4.1939364,3.941506 0 0 1 -0.03747,0.02191 4.1939364,3.941506 0 0 1 -0.03774,0.02154 4.1939364,3.941506 0 0 1 -0.03797,0.02104 4.1939364,3.941506 0 0 1 -0.03821,0.0208 4.1939364,3.941506 0 0 1 -0.03848,0.02029 4.1939364,3.941506 0 0 1 -0.03872,0.02004 4.1939364,3.941506 0 0 1 -0.03885,0.01952 4.1939364,3.941506 0 0 1 -0.0391,0.01919 4.1939364,3.941506 0 0 1 -0.03934,0.01892 4.1939364,3.941506 0 0 1 -0.03959,0.01843 4.1939364,3.941506 0 0 1 -0.03972,0.01806 4.1939364,3.941506 0 0 1 -0.03997,0.01756 4.1939364,3.941506 0 0 1 -0.0401,0.0173 4.1939364,3.941506 0 0 1 -0.04034,0.01682 4.1939364,3.941506 0 0 1 -0.04057,0.01642 4.1939364,3.941506 0 0 1 -0.04058,0.01607 4.1939364,3.941506 0 0 1 -0.04096,0.01569 4.1939364,3.941506 0 0 1 -0.04098,0.0152 4.1939364,3.941506 0 0 1 -0.04133,0.01495 4.1939364,3.941506 0 0 1 -0.04133,0.01444 4.1939364,3.941506 0 0 1 -0.04159,0.01394 4.1939364,3.941506 0 0 1 -0.04159,0.01355 4.1939364,3.941506 0 0 1 -0.04197,0.01318 4.1939364,3.941506 0 0 1 -0.04194,0.01283 4.1939364,3.941506 0 0 1 -0.04209,0.01235 4.1939364,3.941506 0 0 1 -0.04234,0.01195 4.1939364,3.941506 0 0 1 -0.04233,0.01158 4.1939364,3.941506 0 0 1 -0.04259,0.01108 4.1939364,3.941506 0 0 1 -0.04258,0.01067 4.1939364,3.941506 0 0 1 -0.04282,0.01018 4.1939364,3.941506 0 0 1 -0.04282,0.0099 4.1939364,3.941506 0 0 1 -0.04295,0.0095 4.1939364,3.941506 0 0 1 -0.0432,0.0091 4.1939364,3.941506 0 0 1 -0.04308,0.0086 4.1939364,3.941506 0 0 1 -0.04333,0.0081 4.1939364,3.941506 0 0 1 -0.04333,0.0078 4.1939364,3.941506 0 0 1 -0.04345,0.0074 4.1939364,3.941506 0 0 1 -0.04357,0.0069 4.1939364,3.941506 0 0 1 -0.04358,0.0064 4.1939364,3.941506 0 0 1 -0.04371,0.006 4.1939364,3.941506 0 0 1 -0.0437,0.0056 4.1939364,3.941506 0 0 1 -0.04382,0.0052 4.1939364,3.941506 0 0 1 -0.04382,0.0046 4.1939364,3.941506 0 0 1 -0.04396,0.0042 4.1939364,3.941506 0 0 1 -0.04395,0.0037 4.1939364,3.941506 0 0 1 -0.04396,0.0034 4.1939364,3.941506 0 0 1 -0.04408,0.0031 4.1939364,3.941506 0 0 1 -0.04408,0.0024 4.1939364,3.941506 0 0 1 -0.04408,0.0021 4.1939364,3.941506 0 0 1 -0.04408,0.0018 4.1939364,3.941506 0 0 1 -0.0442,0.0012 4.1939364,3.941506 0 0 1 -0.04408,6.33e-4 4.1939364,3.941506 0 0 1 -0.04408,6.34e-4 4.1939364,3.941506 0 0 1 -0.01133,0 4.1939364,3.941506 0 0 1 -0.04409,-2.4e-4 4.1939364,3.941506 0 0 1 -0.04419,-6.32e-4 4.1939364,3.941506 0 0 1 -0.04408,-0.0012 4.1939364,3.941506 0 0 1 -0.0442,-0.0015 4.1939364,3.941506 0 0 1 -0.04408,-0.0018 4.1939364,3.941506 0 0 1 -0.04408,-0.0024 4.1939364,3.941506 0 0 1 -0.04395,-0.0027 4.1939364,3.941506 0 0 1 -0.04408,-0.0033 4.1939364,3.941506 0 0 1 -0.04395,-0.0037 4.1939364,3.941506 0 0 1 -0.04395,-0.0041 4.1939364,3.941506 0 0 1 -0.04382,-0.0045 4.1939364,3.941506 0 0 1 -0.04382,-0.0051 4.1939364,3.941506 0 0 1 -0.0437,-0.0055 4.1939364,3.941506 0 0 1 -0.0437,-0.0059 4.1939364,3.941506 0 0 1 -0.0437,-0.0064 4.1939364,3.941506 0 0 1 -0.04345,-0.0067 4.1939364,3.941506 0 0 1 -0.04357,-0.0074 4.1939364,3.941506 0 0 1 -0.04333,-0.0077 4.1939364,3.941506 0 0 1 -0.04333,-0.008 4.1939364,3.941506 0 0 1 -0.04321,-0.0085 4.1939364,3.941506 0 0 1 -0.04308,-0.0089 4.1939364,3.941506 0 0 1 -0.04307,-0.0094 4.1939364,3.941506 0 0 1 -0.04282,-0.0098 4.1939364,3.941506 0 0 1 -0.04282,-0.01018 4.1939364,3.941506 0 0 1 -0.0427,-0.01059 4.1939364,3.941506 0 0 1 -0.04258,-0.01095 4.1939364,3.941506 0 0 1 -0.04234,-0.01144 4.1939364,3.941506 0 0 1 -0.04232,-0.01183 4.1939364,3.941506 0 0 1 -0.04221,-0.0122 4.1939364,3.941506 0 0 1 -0.04196,-0.01272 4.1939364,3.941506 0 0 1 -0.04195,-0.01307 4.1939364,3.941506 0 0 1 -0.0417,-0.01355 4.1939364,3.941506 0 0 1 -0.04159,-0.01383 4.1939364,3.941506 0 0 1 -0.04147,-0.01431 4.1939364,3.941506 0 0 1 -0.04121,-0.01482 4.1939364,3.941506 0 0 1 -0.04109,-0.01507 4.1939364,3.941506 0 0 1 -0.04098,-0.01559 4.1939364,3.941506 0 0 1 -0.0407,-0.01594 4.1939364,3.941506 0 0 1 -0.04059,-0.01642 4.1939364,3.941506 0 0 1 -0.04034,-0.01666 4.1939364,3.941506 0 0 1 -0.04021,-0.01718 4.1939364,3.941506 0 0 1 -0.03996,-0.01756 4.1939364,3.941506 0 0 1 -0.03985,-0.01794 4.1939364,3.941506 0 0 1 -0.0396,-0.01832 4.1939364,3.941506 0 0 1 -0.03933,-0.01877 4.1939364,3.941506 0 0 1 -0.03922,-0.01906 4.1939364,3.941506 0 0 1 -0.03897,-0.01952 4.1939364,3.941506 0 0 1 -0.03872,-0.0198 4.1939364,3.941506 0 0 1 -0.03849,-0.02029 4.1939364,3.941506 0 0 1 -0.03834,-0.02067 4.1939364,3.941506 0 0 1 -0.03797,-0.02104 4.1939364,3.941506 0 0 1 -0.03786,-0.02144 4.1939364,3.941506 0 0 1 -0.03761,-0.02177 4.1939364,3.941506 0 0 1 -0.03722,-0.02203 4.1939364,3.941506 0 0 1 -0.03711,-0.02252 4.1939364,3.941506 0 0 1 -0.03684,-0.02292 4.1939364,3.941506 0 0 1 -0.03661,-0.02327 4.1939364,3.941506 0 0 1 -0.03623,-0.02355 4.1939364,3.941506 0 0 1 -0.03609,-0.02403 4.1939364,3.941506 0 0 1 -0.03572,-0.02427 4.1939364,3.941506 0 0 1 -0.03549,-0.02465 4.1939364,3.941506 0 0 1 -0.03524,-0.02503 4.1939364,3.941506 0 0 1 -0.03486,-0.02527 4.1939364,3.941506 0 0 1 -0.03462,-0.02577 4.1939364,3.941506 0 0 1 -0.03436,-0.02603 4.1939364,3.941506 0 0 1 -0.03411,-0.02638 4.1939364,3.941506 0 0 1 -0.03373,-0.02677 4.1939364,3.941506 0 0 1 -0.0335,-0.02702 4.1939364,3.941506 0 0 1 -0.03312,-0.02737 4.1939364,3.941506 0 0 1 -0.03288,-0.02764 4.1939364,3.941506 0 0 1 -0.0325,-0.02801 4.1939364,3.941506 0 0 1 -0.03225,-0.02838 4.1939364,3.941506 0 0 1 -0.03186,-0.02867 4.1939364,3.941506 0 0 1 -0.03163,-0.029 4.1939364,3.941506 0 0 1 -0.03124,-0.02924 4.1939364,3.941506 0 0 1 -0.03087,-0.02964 4.1939364,3.941506 0 0 1 -0.03063,-0.02989 4.1939364,3.941506 0 0 1 -0.03025,-0.03025 4.1939364,3.941506 0 0 1 -0.02988,-0.03051 4.1939364,3.941506 0 0 1 -0.02964,-0.03076 4.1939364,3.941506 0 0 1 -0.02925,-0.03111 4.1939364,3.941506 0 0 1 -0.02875,-0.03137 4.1939364,3.941506 0 0 1 -0.02852,-0.03162 4.1939364,3.941506 0 0 1 -0.02827,-0.032 4.1939364,3.941506 0 0 1 -0.02776,-0.03225 4.1939364,3.941506 0 0 1 -0.02739,-0.03237 4.1939364,3.941506 0 0 1 -0.02714,-0.03289 4.1939364,3.941506 0 0 1 -0.02664,-0.033 4.1939364,3.941506 0 0 1 -0.0264,-0.03324 4.1939364,3.941506 0 0 1 -0.02603,-0.0336 4.1939364,3.941506 0 0 1 -0.02552,-0.03373 4.1939364,3.941506 0 0 1 -0.02516,-0.03412 4.1939364,3.941506 0 0 1 -0.0249,-0.03425 4.1939364,3.941506 0 0 1 -0.02438,-0.03461 4.1939364,3.941506 0 0 1 -0.02404,-0.03475 4.1939364,3.941506 0 0 1 -0.02367,-0.03497 4.1939364,3.941506 0 0 1 -0.02328,-0.03524 4.1939364,3.941506 0 0 1 -0.02291,-0.03548 4.1939364,3.941506 0 0 1 -0.0224,-0.03572 4.1939364,3.941506 0 0 1 -0.02215,-0.03598 4.1939364,3.941506 0 0 1 -0.02167,-0.03609 4.1939364,3.941506 0 0 1 -0.02117,-0.03634 4.1939364,3.941506 0 0 1 -0.02092,-0.03649 4.1939364,3.941506 0 0 1 -0.02042,-0.03684 4.1939364,3.941506 0 0 1 -0.02004,-0.03698 4.1939364,3.941506 0 0 1 -0.01967,-0.03709 4.1939364,3.941506 0 0 1 -0.01919,-0.03736 4.1939364,3.941506 0 0 1 -0.01878,-0.03761 4.1939364,3.941506 0 0 1 -0.01831,-0.03773 4.1939364,3.941506 0 0 1 -0.01793,-0.03786 4.1939364,3.941506 0 0 1 -0.01754,-0.03809 4.1939364,3.941506 0 0 1 -0.01707,-0.03822 4.1939364,3.941506 0 0 1 -0.01671,-0.03847 4.1939364,3.941506 0 0 1 -0.01619,-0.03849 4.1939364,3.941506 0 0 1 -0.01582,-0.03884 4.1939364,3.941506 0 0 1 -0.01531,-0.03885 4.1939364,3.941506 0 0 1 -0.01493,-0.03898 4.1939364,3.941506 0 0 1 -0.01445,-0.03922 4.1939364,3.941506 0 0 1 -0.01406,-0.03933 4.1939364,3.941506 0 0 1 -0.01358,-0.03947 4.1939364,3.941506 0 0 1 -0.01319,-0.03959 4.1939364,3.941506 0 0 1 -0.0127,-0.03973 4.1939364,3.941506 0 0 1 -0.01221,-0.03985 4.1939364,3.941506 0 0 1 -0.01182,-0.03996 4.1939364,3.941506 0 0 1 -0.01133,-0.0401 4.1939364,3.941506 0 0 1 -0.01095,-0.04021 4.1939364,3.941506 0 0 1 -0.01048,-0.04034 4.1939364,3.941506 0 0 1 -0.01009,-0.04033 4.1939364,3.941506 0 0 1 -0.0096,-0.04046 4.1939364,3.941506 0 0 1 -0.0092,-0.04057 4.1939364,3.941506 0 0 1 -0.0086,-0.0407 4.1939364,3.941506 0 0 1 -0.0082,-0.04071 4.1939364,3.941506 0 0 1 -0.0078,-0.04084 4.1939364,3.941506 0 0 1 -0.0074,-0.04097 4.1939364,3.941506 0 0 1 -0.0069,-0.04097 4.1939364,3.941506 0 0 1 -0.0064,-0.04108 4.1939364,3.941506 0 0 1 -0.0059,-0.04108 4.1939364,3.941506 0 0 1 -0.0055,-0.04121 4.1939364,3.941506 0 0 1 -0.0051,-0.04121 4.1939364,3.941506 0 0 1 -0.0044,-0.04121 4.1939364,3.941506 0 0 1 -0.004,-0.04133 4.1939364,3.941506 0 0 1 -0.0036,-0.04133 4.1939364,3.941506 0 0 1 -0.0031,-0.04133 4.1939364,3.941506 0 0 1 -0.0025,-0.04146 4.1939364,3.941506 0 0 1 -0.0022,-0.04146 4.1939364,3.941506 0 0 1 -0.0017,-0.04133 4.1939364,3.941506 0 0 1 -0.0012,-0.04146 4.1939364,3.941506 0 0 1 -8.44e-4,-0.04159 4.1939364,3.941506 0 0 1 -3.93e-4,-0.04146 4.1939364,3.941506 0 0 1 0,-0.01059 4.1939364,3.941506 0 0 1 2.39e-4,-0.04146 4.1939364,3.941506 0 0 1 6.35e-4,-0.04146 4.1939364,3.941506 0 0 1 0.0012,-0.04146 4.1939364,3.941506 0 0 1 0.0016,-0.04146 4.1939364,3.941506 0 0 1 0.0021,-0.04146 4.1939364,3.941506 0 0 1 0.0024,-0.04146 4.1939364,3.941506 0 0 1 0.0031,-0.04133 4.1939364,3.941506 0 0 1 0.0035,-0.04132 4.1939364,3.941506 0 0 1 0.0039,-0.04133 4.1939364,3.941506 0 0 1 0.0043,-0.04121 4.1939364,3.941506 0 0 1 0.0049,-0.04133 4.1939364,3.941506 0 0 1 0.0054,-0.04108 4.1939364,3.941506 0 0 1 0.0059,-0.04121 4.1939364,3.941506 0 0 1 0.0062,-0.04098 4.1939364,3.941506 0 0 1 0.0067,-0.04108 4.1939364,3.941506 0 0 1 0.0072,-0.04084 4.1939364,3.941506 0 0 1 0.0078,-0.04097 4.1939364,3.941506 0 0 1 0.0081,-0.04071 4.1939364,3.941506 0 0 1 0.0085,-0.0407 4.1939364,3.941506 0 0 1 0.0091,-0.04057 4.1939364,3.941506 0 0 1 0.0095,-0.04057 4.1939364,3.941506 0 0 1 0.01,-0.04033 4.1939364,3.941506 0 0 1 0.01027,-0.04034 4.1939364,3.941506 0 0 1 0.01082,-0.04021 4.1939364,3.941506 0 0 1 0.0112,-0.0401 4.1939364,3.941506 0 0 1 0.01171,-0.04009 4.1939364,3.941506 0 0 1 0.01221,-0.03986 4.1939364,3.941506 0 0 1 0.01256,-0.03973 4.1939364,3.941506 0 0 1 0.01307,-0.0396 4.1939364,3.941506 0 0 1 0.01345,-0.0396 4.1939364,3.941506 0 0 1 0.01394,-0.03934 4.1939364,3.941506 0 0 1 0.01431,-0.03922 4.1939364,3.941506 0 0 1 0.01483,-0.0391 4.1939364,3.941506 0 0 1 0.01531,-0.03884 4.1939364,3.941506 0 0 1 0.01557,-0.03884 4.1939364,3.941506 0 0 1 0.01619,-0.03859 4.1939364,3.941506 0 0 1 0.01656,-0.03847 4.1939364,3.941506 0 0 1 0.01694,-0.03834 4.1939364,3.941506 0 0 1 0.01741,-0.03809 4.1939364,3.941506 0 0 1 0.01781,-0.03797 4.1939364,3.941506 0 0 1 0.0183,-0.03774 4.1939364,3.941506 0 0 1 0.01855,-0.03761 4.1939364,3.941506 0 0 1 0.01918,-0.03736 4.1939364,3.941506 0 0 1 0.01942,-0.03723 4.1939364,3.941506 0 0 1 0.02004,-0.03698 4.1939364,3.941506 0 0 1 0.0203,-0.03685 4.1939364,3.941506 0 0 1 0.02066,-0.03661 4.1939364,3.941506 0 0 1 0.02118,-0.03636 4.1939364,3.941506 0 0 1 0.02167,-0.03622 4.1939364,3.941506 0 0 1 0.02191,-0.03599 4.1939364,3.941506 0 0 1 0.02241,-0.03572 4.1939364,3.941506 0 0 1 0.02278,-0.0356 4.1939364,3.941506 0 0 1 0.02315,-0.03525 4.1939364,3.941506 0 0 1 0.02354,-0.03511 4.1939364,3.941506 0 0 1 0.02391,-0.03487 4.1939364,3.941506 0 0 1 0.02438,-0.03462 4.1939364,3.941506 0 0 1 0.02465,-0.03436 4.1939364,3.941506 0 0 1 0.02514,-0.03412 4.1939364,3.941506 0 0 1 0.02552,-0.03386 4.1939364,3.941506 0 0 1 0.02577,-0.0336 4.1939364,3.941506 0 0 1 0.02626,-0.03337 4.1939364,3.941506 0 0 1 0.02664,-0.03312 4.1939364,3.941506 0 0 1 0.02702,-0.03275 4.1939364,3.941506 0 0 1 0.02727,-0.03262 4.1939364,3.941506 0 0 1 0.02776,-0.03225 4.1939364,3.941506 0 0 1 0.02801,-0.032 4.1939364,3.941506 0 0 1 0.02852,-0.03175 4.1939364,3.941506 0 0 1 0.02875,-0.03149 4.1939364,3.941506 0 0 1 0.02913,-0.03112 4.1939364,3.941506 0 0 1 0.02951,-0.03087 4.1939364,3.941506 0 0 1 0.02976,-0.0305 4.1939364,3.941506 0 0 1 0.03025,-0.03038 4.1939364,3.941506 0 0 1 0.03051,-0.02989 4.1939364,3.941506 0 0 1 0.03075,-0.02978 4.1939364,3.941506 0 0 1 0.03124,-0.02937 4.1939364,3.941506 0 0 1 0.0315,-0.02901 4.1939364,3.941506 0 0 1 0.03175,-0.02877 4.1939364,3.941506 0 0 1 0.03213,-0.02838 4.1939364,3.941506 0 0 1 0.03248,-0.02814 4.1939364,3.941506 0 0 1 0.03275,-0.02777 4.1939364,3.941506 0 0 1 0.03313,-0.0275 4.1939364,3.941506 0 0 1 0.03336,-0.02714 4.1939364,3.941506 0 0 1 0.03373,-0.02677 4.1939364,3.941506 0 0 1 0.03399,-0.02653 4.1939364,3.941506 0 0 1 0.03425,-0.02615 4.1939364,3.941506 0 0 1 0.03449,-0.02577 4.1939364,3.941506 0 0 1 0.03486,-0.02539 4.1939364,3.941506 0 0 1 0.03524,-0.02514 4.1939364,3.941506 0 0 1 0.03537,-0.02479 4.1939364,3.941506 0 0 1 0.03572,-0.02439 4.1939364,3.941506 0 0 1 0.03598,-0.02404 4.1939364,3.941506 0 0 1 0.03623,-0.02368 4.1939364,3.941506 0 0 1 0.03648,-0.02328 4.1939364,3.941506 0 0 1 0.03674,-0.02303 4.1939364,3.941506 0 0 1 0.03698,-0.02252 4.1939364,3.941506 0 0 1 0.03735,-0.02228 4.1939364,3.941506 0 0 1 0.03747,-0.02189 4.1939364,3.941506 0 0 1 0.03773,-0.02144 4.1939364,3.941506 0 0 1 0.03797,-0.02119 4.1939364,3.941506 0 0 1 0.03821,-0.02067 4.1939364,3.941506 0 0 1 0.03849,-0.02044 4.1939364,3.941506 0 0 1 0.0381,-0.01953 c -0.02241,-0.03291 -0.04085,-0.06815 -0.0636,-0.10085 -0.225326,-0.32353 -0.466145,-0.638113 -0.722972,-0.943214 -0.190335,-0.226102 -0.398828,-0.441497 -0.60696,-0.657132 z"
       inkscape:connector-curvature="0" />
    <rect
       style="fill:#ff2a2a;fill-rule:evenodd;stroke:#383838;stroke-width:0;stroke-opacity:0.995935"
       id="rect860"
       width="2.2190924"
       height="8.0800018"
       x="14.861133"
       y="7.4644508"
       ry="0.63949865"
       rx="0.72279316" />
  </g>
</svg>
