<?xml version="1.0" encoding="UTF-8" standalone="no"?>
<svg
   xmlns:dc="http://purl.org/dc/elements/1.1/"
   xmlns:cc="http://creativecommons.org/ns#"
   xmlns:rdf="http://www.w3.org/1999/02/22-rdf-syntax-ns#"
   xmlns:svg="http://www.w3.org/2000/svg"
   xmlns="http://www.w3.org/2000/svg"
   xmlns:sodipodi="http://sodipodi.sourceforge.net/DTD/sodipodi-0.dtd"
   xmlns:inkscape="http://www.inkscape.org/namespaces/inkscape"
   width="210mm"
   height="297mm"
   viewBox="0 0 210 297"
   version="1.1"
   id="svg1391"
   inkscape:version="1.0beta2 (2b71d25, 2019-12-03)"
   sodipodi:docname="spaceheader.svg">
  <defs
     id="defs1385">
    <clipPath
       id="clipPath951"
       clipPathUnits="userSpaceOnUse">
      <path
         inkscape:connector-curvature="0"
         id="path949"
         d="m 113.622,417.713 c -8.918,0 -16.147,-7.229 -16.147,-16.147 v 0 -98.019 h 306.46 v 98.019 c 0,8.918 -7.229,16.147 -16.147,16.147 v 0 z" />
    </clipPath>
    <clipPath
       id="clipPath1039"
       clipPathUnits="userSpaceOnUse">
      <path
         inkscape:connector-curvature="0"
         id="path1037"
         d="m 147.583,377.295 h 48.121 v -53.083 h -48.121 z" />
    </clipPath>
    <clipPath
       id="clipPath1063"
       clipPathUnits="userSpaceOnUse">
      <path
         inkscape:connector-curvature="0"
         id="path1061"
         d="M 286.316,406.397 H 371.16 V 362.995 H 286.316 Z" />
    </clipPath>
    <clipPath
       id="clipPath1079"
       clipPathUnits="userSpaceOnUse">
      <path
         inkscape:connector-curvature="0"
         id="path1077"
         d="m 290.03,350.313 h 78.465 V 321.536 H 290.03 Z" />
    </clipPath>
    <clipPath
       id="clipPath1099"
       clipPathUnits="userSpaceOnUse">
      <path
         inkscape:connector-curvature="0"
         id="path1097"
         d="m 286.301,406.248 h 75.036 v -84.713 h -75.036 z" />
    </clipPath>
  </defs>
  <sodipodi:namedview
     inkscape:snap-page="true"
     id="base"
     pagecolor="#ffffff"
     bordercolor="#666666"
     borderopacity="1.0"
     inkscape:pageopacity="0.0"
     inkscape:pageshadow="2"
     inkscape:zoom="0.76585769"
     inkscape:cx="412.1847"
     inkscape:cy="340.98907"
     inkscape:document-units="mm"
     inkscape:current-layer="layer1"
     inkscape:document-rotation="0"
     showgrid="false"
     inkscape:window-width="1440"
     inkscape:window-height="792"
     inkscape:window-x="0"
     inkscape:window-y="23"
     inkscape:window-maximized="0" />
  <metadata
     id="metadata1388">
    <rdf:RDF>
      <cc:Work
         rdf:about="">
        <dc:format>image/svg+xml</dc:format>
        <dc:type
           rdf:resource="http://purl.org/dc/dcmitype/StillImage" />
        <dc:title></dc:title>
      </cc:Work>
    </rdf:RDF>
  </metadata>
  <g
     inkscape:label="Laag 1"
     inkscape:groupmode="layer"
     id="layer1">
    <g
       transform="matrix(0.68533211,0,0,-0.68533211,-66.824673,286.24225)"
       id="g945">
      <g
         clip-path="url(#clipPath951)"
         id="g947">
        <g
           transform="translate(387.7881,417.7134)"
           id="g953">
          <path
             inkscape:connector-curvature="0"
             id="path955"
             style="fill:#04114d;fill-opacity:1;fill-rule:nonzero;stroke:none"
             d="m 0,0 h -274.166 c -8.917,0 -16.147,-7.23 -16.147,-16.148 v -98.019 h 306.46 v 98.019 C 16.147,-7.23 8.918,0 0,0" />
        </g>
        <g
           transform="translate(247.438,407.0464)"
           id="g957">
          <path
             inkscape:connector-curvature="0"
             id="path959"
             style="fill:#1b1464;fill-opacity:1;fill-rule:nonzero;stroke:none"
             d="m 0,0 c -1.468,2.127 -4.383,2.662 -6.51,1.193 l -38.435,-26.527 c -2.352,-1.623 -5.574,-1.033 -7.196,1.318 l -0.28,0.406 c -1.623,2.352 -1.033,5.573 1.319,7.196 l 10.052,6.938 c 2.127,1.468 2.661,4.383 1.193,6.511 -1.468,2.127 -4.383,2.661 -6.511,1.193 l -6.726,-4.643 c -2.352,-1.623 -5.573,-1.032 -7.197,1.319 -1.622,2.351 -1.032,5.573 1.32,7.196 l 26.595,18.356 c 2.127,1.468 2.661,4.383 1.193,6.51 -1.468,2.128 -4.383,2.662 -6.511,1.193 L -72.046,4.449 c -2.24,-1.546 -5.308,-0.983 -6.854,1.256 -1.545,2.24 -0.983,5.308 1.256,6.854 l 14.485,9.997 c 2.128,1.468 2.662,4.383 1.194,6.51 -1.469,2.128 -4.384,2.662 -6.511,1.194 l -110.693,-76.401 c -2.127,-1.468 -2.662,-4.383 -1.193,-6.51 1.468,-2.127 4.383,-2.662 6.51,-1.193 l 30.806,21.261 c 2.239,1.546 5.307,0.984 6.853,-1.255 1.546,-2.24 0.983,-5.308 -1.256,-6.854 l -10.938,-7.549 c -2.127,-1.468 -2.661,-4.383 -1.193,-6.51 1.468,-2.128 4.383,-2.662 6.511,-1.194 l 35.949,24.813 c 2.351,1.622 5.573,1.032 7.196,-1.32 1.623,-2.351 1.032,-5.572 -1.319,-7.195 l -67.911,-47.071 c -2.127,-1.468 -2.662,-4.383 -1.193,-6.511 1.468,-2.127 4.383,-2.661 6.51,-1.193 l 18.297,12.827 c 2.352,1.623 5.573,1.032 7.196,-1.319 l 0.28,-0.405 c 1.623,-2.351 1.032,-5.573 -1.319,-7.196 l -6.45,-4.452 c -2.127,-1.468 -2.662,-4.383 -1.193,-6.511 1.468,-2.127 4.383,-2.661 6.51,-1.193 L -1.193,-6.51 C 0.934,-5.042 1.468,-2.127 0,0" />
        </g>
        <g
           transform="translate(286.4561,354.3711)"
           id="g961">
          <path
             inkscape:connector-curvature="0"
             id="path963"
             style="fill:#1b1464;fill-opacity:1;fill-rule:nonzero;stroke:none"
             d="m 0,0 c -0.724,1.048 -2.16,1.312 -3.208,0.588 l -18.941,-13.073 c -1.159,-0.8 -2.747,-0.509 -3.546,0.65 l -0.138,0.2 c -0.8,1.158 -0.509,2.746 0.649,3.546 l 4.955,3.419 c 1.047,0.724 1.311,2.16 0.587,3.209 -0.723,1.048 -2.16,1.311 -3.208,0.587 l -3.315,-2.288 c -1.159,-0.799 -2.746,-0.508 -3.546,0.651 -0.8,1.158 -0.509,2.746 0.649,3.546 l 13.107,9.046 c 1.049,0.723 1.311,2.16 0.588,3.208 -0.724,1.048 -2.16,1.312 -3.208,0.588 L -35.505,2.192 c -1.103,-0.761 -2.615,-0.484 -3.377,0.62 -0.762,1.103 -0.485,2.615 0.619,3.377 l 7.138,4.927 c 1.049,0.723 1.312,2.16 0.588,3.208 -0.724,1.049 -2.16,1.312 -3.208,0.588 l -54.55,-37.65 c -1.049,-0.724 -1.312,-2.16 -0.589,-3.209 0.724,-1.048 2.16,-1.311 3.209,-0.588 l 15.181,10.478 c 1.104,0.762 2.616,0.485 3.377,-0.619 0.762,-1.103 0.485,-2.616 -0.619,-3.377 l -5.39,-3.72 c -1.048,-0.724 -1.312,-2.161 -0.588,-3.209 0.724,-1.048 2.16,-1.311 3.209,-0.588 l 17.716,12.228 c 1.159,0.8 2.746,0.509 3.546,-0.65 0.8,-1.159 0.509,-2.747 -0.65,-3.547 L -83.36,-42.735 c -1.049,-0.724 -1.312,-2.161 -0.588,-3.208 0.723,-1.049 2.16,-1.312 3.208,-0.589 l 9.017,6.322 c 1.159,0.799 2.746,0.508 3.546,-0.65 l 0.138,-0.2 c 0.8,-1.159 0.509,-2.747 -0.649,-3.546 l -3.179,-2.194 c -1.049,-0.724 -1.312,-2.16 -0.589,-3.209 0.724,-1.048 2.161,-1.311 3.209,-0.588 L -0.588,-3.208 C 0.461,-2.485 0.724,-1.048 0,0" />
        </g>
        <g
           transform="translate(436.5566,381.4258)"
           id="g965">
          <path
             inkscape:connector-curvature="0"
             id="path967"
             style="fill:#1b1464;fill-opacity:1;fill-rule:nonzero;stroke:none"
             d="m 0,0 c -1.046,1.516 -3.123,1.896 -4.639,0.85 l -27.385,-18.901 c -1.675,-1.157 -3.971,-0.736 -5.127,0.94 l -0.2,0.288 c -1.156,1.676 -0.735,3.971 0.94,5.128 l 7.162,4.943 c 1.517,1.046 1.896,3.123 0.851,4.639 -1.046,1.516 -3.123,1.896 -4.639,0.85 l -4.793,-3.308 c -1.676,-1.157 -3.971,-0.736 -5.127,0.94 -1.156,1.675 -0.736,3.971 0.939,5.127 l 18.95,13.079 c 1.515,1.046 1.896,3.123 0.85,4.639 -1.047,1.515 -3.123,1.896 -4.639,0.85 L -51.334,3.17 c -1.596,-1.101 -3.782,-0.701 -4.883,0.895 -1.101,1.596 -0.701,3.782 0.895,4.883 l 10.321,7.123 c 1.516,1.047 1.897,3.123 0.85,4.639 -1.046,1.516 -3.123,1.897 -4.639,0.851 l -78.87,-54.437 c -1.517,-1.046 -1.897,-3.123 -0.851,-4.639 1.046,-1.516 3.123,-1.897 4.639,-0.85 l 21.949,15.149 c 1.596,1.102 3.782,0.701 4.884,-0.895 1.101,-1.595 0.7,-3.782 -0.896,-4.883 l -7.793,-5.379 c -1.515,-1.046 -1.896,-3.123 -0.85,-4.638 1.047,-1.516 3.123,-1.897 4.639,-0.851 l 25.615,17.679 c 1.675,1.157 3.97,0.736 5.127,-0.94 1.156,-1.675 0.735,-3.97 -0.94,-5.127 l -48.387,-33.538 c -1.517,-1.046 -1.897,-3.123 -0.851,-4.639 1.046,-1.516 3.123,-1.896 4.639,-0.85 l 13.037,9.139 c 1.676,1.157 3.97,0.736 5.127,-0.94 l 0.2,-0.289 c 1.156,-1.675 0.735,-3.97 -0.941,-5.127 l -4.595,-3.172 c -1.516,-1.046 -1.897,-3.123 -0.851,-4.639 1.047,-1.515 3.124,-1.896 4.64,-0.85 L -0.85,-4.639 C 0.666,-3.593 1.047,-1.516 0,0" />
        </g>
        <g
           transform="translate(365.7539,407.2148)"
           id="g969">
          <path
             inkscape:connector-curvature="0"
             id="path971"
             style="fill:#ffffff;fill-opacity:1;fill-rule:nonzero;stroke:none"
             d="M 0,0 0.649,-1.853 2.501,-2.501 0.649,-3.151 0,-5.003 l -0.649,1.852 -1.853,0.65 1.853,0.648 z" />
        </g>
        <g
           transform="translate(278.8662,336.5288)"
           id="g973">
          <path
             inkscape:connector-curvature="0"
             id="path975"
             style="fill:#ffffff;fill-opacity:1;fill-rule:nonzero;stroke:none"
             d="M 0,0 0.649,-1.852 2.502,-2.501 0.649,-3.151 0,-5.003 l -0.649,1.852 -1.852,0.65 1.852,0.649 z" />
        </g>
        <g
           transform="translate(121.1025,382.4595)"
           id="g977">
          <path
             inkscape:connector-curvature="0"
             id="path979"
             style="fill:#ffffff;fill-opacity:1;fill-rule:nonzero;stroke:none"
             d="M 0,0 0.649,-1.852 2.501,-2.501 0.649,-3.15 0,-5.003 l -0.649,1.853 -1.852,0.649 1.852,0.649 z" />
        </g>
        <g
           transform="translate(382.585,334.0273)"
           id="g981">
          <path
             inkscape:connector-curvature="0"
             id="path983"
             style="fill:#ffffff;fill-opacity:1;fill-rule:nonzero;stroke:none"
             d="M 0,0 1.337,-3.814 5.151,-5.151 1.337,-6.488 0,-10.302 l -1.337,3.814 -3.814,1.337 3.814,1.337 z" />
        </g>
        <g
           transform="translate(219.7759,409.8643)"
           id="g985">
          <path
             inkscape:connector-curvature="0"
             id="path987"
             style="fill:#ffffff;fill-opacity:1;fill-rule:nonzero;stroke:none"
             d="M 0,0 0.842,-2.402 3.244,-3.244 0.842,-4.086 0,-6.488 l -0.842,2.402 -2.402,0.842 2.402,0.842 z" />
        </g>
        <g
           transform="translate(273.8086,406.8398)"
           id="g989">
          <path
             inkscape:connector-curvature="0"
             id="path991"
             style="fill:#ffffff;fill-opacity:1;fill-rule:nonzero;stroke:none"
             d="M 0,0 1.313,-3.745 5.058,-5.057 1.313,-6.37 0,-10.115 l -1.312,3.745 -3.745,1.313 3.745,1.312 z" />
        </g>
        <g
           transform="translate(147.562,325.2886)"
           id="g993">
          <path
             inkscape:connector-curvature="0"
             id="path995"
             style="fill:#ffffff;fill-opacity:1;fill-rule:nonzero;stroke:none"
             d="M 0,0 0.827,-2.358 3.185,-3.185 0.827,-4.012 0,-6.37 l -0.827,2.358 -2.358,0.827 2.358,0.827 z" />
        </g>
        <g
           transform="translate(137.082,403.9238)"
           id="g997">
          <path
             inkscape:connector-curvature="0"
             id="path999"
             style="fill:#ffffff;fill-opacity:1;fill-rule:nonzero;stroke:none"
             d="M 0,0 0.852,-2.431 3.283,-3.283 0.852,-4.135 0,-6.566 l -0.853,2.431 -2.43,0.852 2.43,0.852 z" />
        </g>
        <g
           transform="translate(245.5391,384.5063)"
           id="g1001">
          <path
             inkscape:connector-curvature="0"
             id="path1003"
             style="fill:#ffffff;fill-opacity:1;fill-rule:nonzero;stroke:none"
             d="M 0,0 0.915,-2.61 3.525,-3.525 0.915,-4.44 0,-7.05 l -0.915,2.61 -2.61,0.915 2.61,0.915 z" />
        </g>
        <g
           transform="translate(210.6436,364.4839)"
           id="g1005">
          <path
             inkscape:connector-curvature="0"
             id="path1007"
             style="fill:#ffffff;fill-opacity:1;fill-rule:nonzero;stroke:none"
             d="m 0,0 1,-2.854 2.854,-1 -2.854,-1 -1,-2.854 -1,2.854 -2.854,1 2.854,1 z" />
        </g>
        <g
           transform="translate(118.6011,336.1763)"
           id="g1009">
          <path
             inkscape:connector-curvature="0"
             id="path1011"
             style="fill:#ffffff;fill-opacity:1;fill-rule:nonzero;stroke:none"
             d="M 0,0 0.558,-1.591 2.149,-2.149 0.558,-2.707 0,-4.298 l -0.558,1.591 -1.591,0.558 1.591,0.558 z" />
        </g>
        <g
           transform="translate(177.502,397.3579)"
           id="g1013">
          <path
             inkscape:connector-curvature="0"
             id="path1015"
             style="fill:#ffffff;fill-opacity:1;fill-rule:nonzero;stroke:none"
             d="M 0,0 0.859,-2.451 3.311,-3.311 0.859,-4.169 0,-6.621 l -0.859,2.452 -2.451,0.858 2.451,0.86 z" />
        </g>
        <g
           transform="translate(200.8013,350.8213)"
           id="g1017">
          <path
             inkscape:connector-curvature="0"
             id="path1019"
             style="fill:#2e3192;fill-opacity:1;fill-rule:nonzero;stroke:none"
             d="m 0,0 c 0,14.696 -11.914,26.609 -26.609,26.609 -14.696,0 -26.61,-11.913 -26.61,-26.609 0,-14.696 11.914,-26.609 26.61,-26.609 C -11.914,-26.609 0,-14.696 0,0" />
        </g>
        <g
           transform="translate(200.2178,356.3794)"
           id="g1021">
          <path
             inkscape:connector-curvature="0"
             id="path1023"
             style="fill:#0071bc;fill-opacity:1;fill-rule:nonzero;stroke:none"
             d="m 0,0 c -2.556,12.027 -13.236,21.051 -26.026,21.051 -14.696,0 -26.609,-11.913 -26.609,-26.609 0,-3.369 0.628,-6.59 1.77,-9.557 4.254,1.209 10.677,3.353 20.239,6.92 C -16.601,-2.964 -6.931,-0.627 0,0" />
        </g>
        <g
           transform="translate(174.1919,324.2124)"
           id="g1025">
          <path
             inkscape:connector-curvature="0"
             id="path1027"
             style="fill:#29abe2;fill-opacity:1;fill-rule:nonzero;stroke:none"
             d="M 0,0 C 10.809,0 20.113,6.445 24.278,15.703 20.203,15.844 15.655,16.248 10.836,17.088 -1.025,19.157 -13.158,13.293 -20.019,9.081 -15.142,3.515 -7.982,0 0,0" />
        </g>
        <g
           transform="translate(147.7881,354.1392)"
           id="g1029">
          <path
             inkscape:connector-curvature="0"
             id="path1031"
             style="fill:#29abe2;fill-opacity:1;fill-rule:nonzero;stroke:none"
             d="m 0,0 c 8.502,0.961 17.515,3.235 25.767,7.812 7.34,4.072 13.165,7.054 17.755,9.241 -4.627,3.892 -10.598,6.239 -17.118,6.239 C 12.832,23.292 1.633,13.13 0,0" />
        </g>
        <g
           id="g1033">
          <g
             id="g1035" />
          <g
             id="g1047">
            <g
               id="g1045"
               opacity="0.149994"
               clip-path="url(#clipPath1039)">
              <g
                 id="g1043"
                 transform="translate(185.3174,332.8408)">
                <path
                   inkscape:connector-curvature="0"
                   id="path1041"
                   style="fill:#262525;fill-opacity:1;fill-rule:nonzero;stroke:none"
                   d="m 0,0 c -13.463,0 -24.377,10.915 -24.377,24.377 0,8.329 4.176,15.68 10.548,20.077 -13.426,-1.354 -23.906,-12.69 -23.906,-26.474 0,-14.695 11.914,-26.608 26.61,-26.608 8.84,0 16.672,4.312 21.511,10.947 C 7.235,0.833 3.715,0 0,0" />
              </g>
            </g>
          </g>
        </g>
        <g
           transform="translate(370.4375,356.1924)"
           id="g1049">
          <path
             inkscape:connector-curvature="0"
             id="path1051"
             style="fill:#ea3f3f;fill-opacity:1;fill-rule:nonzero;stroke:none"
             d="M 0,0 C 4.293,23.033 -10.898,45.186 -33.932,49.479 -56.965,53.772 -79.117,38.581 -83.41,15.548 -87.703,-7.485 -72.512,-29.638 -49.479,-33.931 -26.446,-38.225 -4.294,-23.033 0,0" />
        </g>
        <g
           transform="translate(369.0312,350.6924)"
           id="g1053">
          <path
             inkscape:connector-curvature="0"
             id="path1055"
             style="fill:#ea3f3f;fill-opacity:1;fill-rule:nonzero;stroke:none"
             d="m 0,0 c -0.958,-2.921 -2.216,-5.685 -3.732,-8.256 -1.71,-0.224 -3.469,-0.424 -5.273,-0.599 -10.372,-1.011 -22.231,-1.235 -34.745,-0.376 -10.258,0.706 -19.94,2.069 -28.637,3.87 -2.319,0.479 -4.567,0.989 -6.738,1.528 -1.251,2.826 -2.196,5.801 -2.803,8.874 2.084,-0.487 4.305,-0.955 6.65,-1.401 9.261,-1.764 20.423,-3.176 32.466,-4.002 C -28.6,-1.339 -15.511,-1.342 -5.231,-0.52 -3.394,-0.372 -1.646,-0.2 0,0" />
        </g>
        <g
           id="g1057">
          <g
             id="g1059" />
          <g
             id="g1071">
            <g
               id="g1069"
               opacity="0.770004"
               clip-path="url(#clipPath1063)">
              <g
                 id="g1067"
                 transform="translate(371.1475,362.9951)">
                <path
                   inkscape:connector-curvature="0"
                   id="path1065"
                   style="fill:#ffce33;fill-opacity:1;fill-rule:nonzero;stroke:none"
                   d="M 0,0 C 0.493,20.444 -13.891,38.808 -34.642,42.676 -57.675,46.97 -79.827,31.778 -84.12,8.745 -84.548,6.453 -84.778,4.171 -84.831,1.914 -73.334,4.108 -56.179,5.427 -32.837,2.311 -20.042,0.603 -9.13,-0.015 0,0" />
              </g>
            </g>
          </g>
        </g>
        <g
           id="g1073">
          <g
             id="g1075" />
          <g
             id="g1087">
            <g
               id="g1085"
               opacity="0.729996"
               clip-path="url(#clipPath1079)">
              <g
                 id="g1083"
                 transform="translate(368.4951,349.1685)">
                <path
                   inkscape:connector-curvature="0"
                   id="path1081"
                   style="fill:#c61a1a;fill-opacity:1;fill-rule:nonzero;stroke:none"
                   d="m 0,0 c -7.042,-19 -26.938,-30.746 -47.536,-26.907 -14.2,2.647 -25.419,12.081 -30.929,24.324 6.773,2.64 18.162,4.705 37.094,3.243 C -26.15,-0.514 -11.897,-0.493 0,0" />
              </g>
            </g>
          </g>
        </g>
        <g
           transform="translate(291.332,384.0093)"
           id="g1089">
          <path
             inkscape:connector-curvature="0"
             id="path1091"
             style="fill:#fc7044;fill-opacity:1;fill-rule:nonzero;stroke:none"
             d="M 0,0 C 5.114,0.082 10.739,0.083 16.934,-0.01 40.267,-0.362 58.045,1.9 71.484,5.211 65.329,13.521 56.142,19.618 45.174,21.662 26.545,25.134 8.494,15.859 0,0" />
        </g>
        <g
           id="g1093">
          <g
             id="g1095" />
          <g
             id="g1107">
            <g
               id="g1105"
               opacity="0.149994"
               clip-path="url(#clipPath1099)">
              <g
                 id="g1103"
                 transform="translate(338.9902,334.4458)">
                <path
                   inkscape:connector-curvature="0"
                   id="path1101"
                   style="fill:#262525;fill-opacity:1;fill-rule:nonzero;stroke:none"
                   d="m 0,0 c -21.326,3.975 -35.393,24.486 -31.417,45.813 2.083,11.174 8.707,20.353 17.607,25.99 -18.573,-1.55 -34.573,-15.302 -38.153,-34.509 -4.293,-23.033 10.899,-45.185 33.931,-49.479 15.637,-2.914 30.866,3.153 40.379,14.557 C 15.523,-0.488 7.817,-1.457 0,0" />
              </g>
            </g>
          </g>
        </g>
        <g
           transform="translate(397.9844,356.2295)"
           id="g1109">
          <path
             inkscape:connector-curvature="0"
             id="path1111"
             style="fill:#f7931e;fill-opacity:1;fill-rule:nonzero;stroke:none"
             d="m 0,0 c 0.388,5.64 -10.477,11.413 -27.578,15.74 0.39,-2.025 0.632,-4.094 0.72,-6.192 9.368,-2.648 14.979,-5.696 14.779,-8.602 -0.207,-3.013 -6.61,-5.242 -16.874,-6.483 -1.647,-0.2 -3.394,-0.372 -5.232,-0.52 -10.279,-0.822 -23.368,-0.819 -37.58,0.158 -12.044,0.826 -23.205,2.238 -32.466,4.002 -2.345,0.446 -4.566,0.914 -6.65,1.401 -11.962,2.797 -19.382,6.218 -19.153,9.549 0.221,3.229 7.573,5.651 19.165,6.912 0.404,2.056 0.953,4.047 1.631,5.965 -19.437,-1.758 -32.479,-6.165 -32.891,-12.16 -0.436,-6.355 13.215,-13.981 34.051,-19.141 2.171,-0.538 4.419,-1.048 6.738,-1.527 8.696,-1.801 18.379,-3.164 28.637,-3.871 12.514,-0.858 24.373,-0.634 34.745,0.376 1.804,0.176 3.562,0.376 5.272,0.6 C -13.404,-11.285 -0.409,-5.944 0,0" />
        </g>
        <g
           transform="translate(241.8281,327.3589)"
           id="g1113">
          <path
             inkscape:connector-curvature="0"
             id="path1115"
             style="fill:#ffc600;fill-opacity:1;fill-rule:evenodd;stroke:none"
             d="m 0,0 9.325,5.384 c 1.648,0.95 0.543,2.827 -1.091,1.885 L -13.262,-5.142 c -2.595,-1.497 -3.491,-4.843 -1.993,-7.437 1.497,-2.593 4.844,-3.49 7.437,-1.992 l 8.867,5.118 7.663,4.425 3.749,2.164 c 1.22,0.704 0.179,2.646 -1.089,1.886 C 7.455,-3.327 3.46,-5.545 -0.497,-7.83 -1.743,-8.549 -2.832,-6.664 -1.584,-5.943 L 8.3,-0.237 19.072,5.982 C 20.318,6.703 19.231,8.588 17.983,7.868 12.352,4.616 6.721,1.365 1.089,-1.885 -0.159,-2.605 -1.248,-0.72 0,0" />
        </g>
        <g
           transform="translate(147.0986,393.6523)"
           id="g1117">
          <path
             inkscape:connector-curvature="0"
             id="path1119"
             style="fill:#ffc600;fill-opacity:1;fill-rule:evenodd;stroke:none"
             d="M 0,0 4.46,2.575 C 5.248,3.03 4.72,3.927 3.938,3.477 L -6.343,-2.459 c -1.241,-0.717 -1.67,-2.317 -0.954,-3.558 0.716,-1.24 2.317,-1.669 3.558,-0.953 l 4.24,2.449 3.666,2.116 1.793,1.035 c 0.583,0.337 0.085,1.266 -0.521,0.902 -1.874,-1.123 -3.784,-2.185 -5.677,-3.277 -0.596,-0.344 -1.117,0.557 -0.52,0.902 L 3.97,-0.114 9.122,2.861 C 9.718,3.206 9.198,4.107 8.602,3.763 5.907,2.208 3.214,0.653 0.521,-0.902 -0.076,-1.247 -0.597,-0.344 0,0" />
        </g>
      </g>
    </g>
    <rect
       style="fill:#04114d;fill-opacity:1;fill-rule:evenodd;stroke:none;stroke-width:10.3034;stroke-linecap:round;stroke-linejoin:round;stroke-opacity:0.995935"
       id="rect2134"
       width="15.138542"
       height="10.347863"
       x="0.0081237555"
       y="-0.057788849" />
    <rect
       y="0"
       x="194.86145"
       height="10.347863"
       width="15.138542"
       id="rect2136"
       style="fill:#04114d;fill-opacity:1;fill-rule:evenodd;stroke:none;stroke-width:10.3034;stroke-linecap:round;stroke-linejoin:round;stroke-opacity:0.995935" />
  </g>
</svg>
