<?xml version="1.0" encoding="UTF-8" standalone="no"?>
<svg
   xmlns:dc="http://purl.org/dc/elements/1.1/"
   xmlns:cc="http://creativecommons.org/ns#"
   xmlns:rdf="http://www.w3.org/1999/02/22-rdf-syntax-ns#"
   xmlns:svg="http://www.w3.org/2000/svg"
   xmlns="http://www.w3.org/2000/svg"
   xmlns:sodipodi="http://sodipodi.sourceforge.net/DTD/sodipodi-0.dtd"
   xmlns:inkscape="http://www.inkscape.org/namespaces/inkscape"
   sodipodi:docname="under_construction_background.svg"
   inkscape:version="1.0beta2 (2b71d25, 2019-12-03)"
   id="svg2591"
   version="1.1"
   viewBox="0 0 210 297"
   height="297mm"
   width="210mm">
  <defs
     id="defs2585">
    <clipPath
       clipPathUnits="userSpaceOnUse"
       id="clipPath1513">
      <path
         d="m 3966.46,1889.37 h 1638.9 v 180.918 h -1638.9 z"
         id="path1511"
         inkscape:connector-curvature="0" />
    </clipPath>
    <clipPath
       clipPathUnits="userSpaceOnUse"
       id="clipPath1577">
      <path
         d="m 4068.72,2901.5 c -12.62,-26.99 -0.97,-59.11 26.03,-71.72 26.99,-12.62 59.1,-0.97 71.72,26.02 12.62,26.99 0.97,59.1 -26.02,71.73 -26.99,12.61 -59.1,0.96 -71.73,-26.03"
         id="path1575"
         inkscape:connector-curvature="0" />
    </clipPath>
    <clipPath
       clipPathUnits="userSpaceOnUse"
       id="clipPath1641">
      <path
         d="m 5092.25,2093.79 c -19.1,-23.31 -15.67,-57.69 7.65,-76.78 23.31,-19.09 57.7,-15.67 76.79,7.64 19.09,23.33 15.67,57.7 -7.65,76.79 -23.32,19.1 -57.69,15.68 -76.79,-7.65"
         id="path1639"
         inkscape:connector-curvature="0" />
    </clipPath>
    <clipPath
       clipPathUnits="userSpaceOnUse"
       id="clipPath1759">
      <path
         d="m 4198.27,1371.49 98.72,255.16 c 4.71,12.16 21.93,12.16 26.63,0 l 98.72,-255.16 h -224.07"
         id="path1757"
         inkscape:connector-curvature="0" />
    </clipPath>
    <clipPath
       clipPathUnits="userSpaceOnUse"
       id="clipPath1775">
      <path
         d="m 5631.84,1370.7 98.73,255.16 c 4.7,12.16 21.91,12.16 26.62,0 l 98.73,-255.16 h -224.08"
         id="path1773"
         inkscape:connector-curvature="0" />
    </clipPath>
  </defs>
  <sodipodi:namedview
     inkscape:window-maximized="0"
     inkscape:window-y="23"
     inkscape:window-x="0"
     inkscape:window-height="765"
     inkscape:window-width="1389"
     showgrid="false"
     inkscape:document-rotation="0"
     inkscape:current-layer="layer1"
     inkscape:document-units="mm"
     inkscape:cy="348.15499"
     inkscape:cx="324.92914"
     inkscape:zoom="0.72950881"
     inkscape:pageshadow="2"
     inkscape:pageopacity="0.0"
     borderopacity="1.0"
     bordercolor="#666666"
     pagecolor="#ffffff"
     id="base" />
  <metadata
     id="metadata2588">
    <rdf:RDF>
      <cc:Work
         rdf:about="">
        <dc:format>image/svg+xml</dc:format>
        <dc:type
           rdf:resource="http://purl.org/dc/dcmitype/StillImage" />
        <dc:title></dc:title>
      </cc:Work>
    </rdf:RDF>
  </metadata>
  <g
     id="layer1"
     inkscape:groupmode="layer"
     inkscape:label="Laag 1">
    <g
       id="g1415"
       transform="matrix(0.35277777,0,0,-0.35277777,-26.836378,139.62544)">
      <text
         transform="matrix(1,0,0,-1,104.921,286.196)"
         style="font-variant:normal;font-weight:bold;font-size:51.9218px;font-family:Ubuntu;-inkscape-font-specification:Ubuntu-Bold;writing-mode:lr-tb;fill:#2e2a59;fill-opacity:1;fill-rule:nonzero;stroke:none"
         id="text1419"><tspan
           x="0 41.018223 72.534752 103.89552 129.07759"
           y="0"
           sodipodi:role="line"
           id="tspan1417">Oops!</tspan></text>
    </g>
    <g
       id="g1437"
       transform="matrix(0.35277777,0,0,-0.35277777,-26.836378,139.62544)">
      <text
         transform="matrix(1,0,0,-1,106.32,253.542)"
         style="font-variant:normal;font-weight:bold;font-size:24.125px;font-family:Ubuntu;-inkscape-font-specification:Ubuntu-Bold;writing-mode:lr-tb;fill:#2e2a59;fill-opacity:1;fill-rule:nonzero;stroke:none"
         id="text1441"><tspan
           x="0 17.056376 31.265377 45.836876 59.925877 70.106628 75.896629 87.356125 102 116.20963 127.91025 138.62117 148.80191 163.01154 175.07404 185.78554 192.75766 207.40154"
           y="0"
           sodipodi:role="line"
           id="tspan1439">Under construction</tspan></text>
    </g>
    <path
       d="m 201.84299,70.295789 c 1.3141,-4.259086 1.62102,-8.791224 0.67875,-13.148027 C 201.04783,50.332447 196.2998,42.08168 182.5972,38.521094 156.65604,31.780569 147.64857,12.068759 123.38275,18.34644 c 0,0 -13.02244,2.366433 -19.18547,23.914099 -6.163027,21.548018 -30.312429,21.914556 -21.997459,40.676687 1.359255,3.066698 5.018265,6.412089 10.272184,9.571921 L 190.87901,92.17824 c 6.80085,-8.176683 8.91752,-15.249525 10.96398,-21.882451"
       style="fill:#e2ddf1;fill-opacity:1;fill-rule:nonzero;stroke:none;stroke-width:0.0352777"
       id="path1463"
       inkscape:connector-curvature="0" />
    <path
       d="m 178.62281,54.886103 h -3.69217 v -4.038954 c 0,-2.027412 -1.41217,-3.721452 -3.30588,-4.161719 v -5.012618 h -1.3589 v 4.917368 c -2.17947,0.196498 -3.88832,2.026002 -3.88832,4.256969 v 4.157488 h -3.67277 v 4.633028 h -0.2473 v 8.610249 l -6.67596,-0.04762 V 57.909055 h -7.64893 v 7.541684 h -5.36716 v 7.326487 h -6.48653 v 19.3929 h 21.54979 v -0.0028 h 4.62879 v 0.0028 h 27.02207 V 67.714865 h -10.86626 l 0.01,-12.828762"
       style="fill:#cbc4e7;fill-opacity:1;fill-rule:nonzero;stroke:none;stroke-width:0.0352777"
       id="path1465"
       inkscape:connector-curvature="0" />
    <path
       d="M 102.43692,65.544578 V 55.90422 h 3.61386 v -5.1562 h 1.3589 v 5.1562 h 3.32951 v 9.640358 h 3.73557 v 5.775677 h 5.95347 V 51.645487 h 12.42942 v 40.524639 h -8.09942 -3.48933 -8.77993 -4.05483 -10.59462 V 65.544578 h 4.5974"
       style="fill:#cbc4e7;fill-opacity:1;fill-rule:nonzero;stroke:none;stroke-width:0.0352777"
       id="path1467"
       inkscape:connector-curvature="0" />
    <path
       d="m 170.3417,92.071701 -56.64976,0.04445 c -2.14559,0.0019 -3.88655,-1.736019 -3.88831,-3.881612 l 64.42004,-0.05045 c 0.001,2.145594 -1.73637,3.886552 -3.88197,3.887611"
       style="fill:#3f4faa;fill-opacity:1;fill-rule:nonzero;stroke:none;stroke-width:0.0352777"
       id="path1469"
       inkscape:connector-curvature="0" />
    <path
       d="m 170.34064,90.734322 -56.64975,0.0441 c -1.67499,0.0013 -3.09881,-1.059037 -3.64561,-2.544233 l -0.24165,2.65e-4 c 0.002,2.145593 1.74272,3.883376 3.88831,3.881612 l 56.64976,-0.04445 c 2.1456,-0.0011 3.88338,-1.742017 3.88197,-3.887611 h -0.24165 c -0.54434,1.486252 -1.96674,2.549174 -3.64138,2.550232"
       style="fill:#4b5bb2;fill-opacity:1;fill-rule:nonzero;stroke:none;stroke-width:0.0352777"
       id="path1471"
       inkscape:connector-curvature="0" />
    <path
       d="m 145.67442,89.507007 -7.31908,0.0056 c -0.71825,7.93e-4 -1.30139,-0.581377 -1.30175,-1.299634 l 9.92011,-0.0074 c 2.7e-4,0.718257 -0.58102,1.300692 -1.29928,1.301398"
       style="fill:#36419c;fill-opacity:1;fill-rule:nonzero;stroke:none;stroke-width:0.0352777"
       id="path1473"
       inkscape:connector-curvature="0" />
    <path
       d="m 170.90827,88.186559 -57.78924,0.04551 -0.0275,-34.881253 c -0.001,-2.000957 1.6196,-3.62444 3.62055,-3.626202 l 50.54283,-0.03916 c 2.00131,-0.0019 3.62444,1.61925 3.6262,3.620204 l 0.0272,34.880902"
       style="fill:#4b5bb2;fill-opacity:1;fill-rule:nonzero;stroke:none;stroke-width:0.0352777"
       id="path1475"
       inkscape:connector-curvature="0" />
    <path
       d="m 167.89625,85.175601 -51.77014,0.04057 -0.0254,-32.477782 51.77049,-0.04022 0.0251,32.477427"
       style="fill:#3c347a;fill-opacity:1;fill-rule:nonzero;stroke:none;stroke-width:0.0352777"
       id="path1477"
       inkscape:connector-curvature="0" />
    <path
       d="m 167.89625,85.175601 -51.77014,0.04057 -0.002,-3.104798 51.77013,-0.04022 0.002,3.104444"
       style="fill:#2a254b;fill-opacity:1;fill-rule:nonzero;stroke:none;stroke-width:0.0352777"
       id="path1479"
       inkscape:connector-curvature="0" />
    <path
       d="m 167.87226,54.239107 -51.77014,0.04092 -0.001,-1.54164 51.77049,-0.04022 0.001,1.540933"
       style="fill:#2a254b;fill-opacity:1;fill-rule:nonzero;stroke:none;stroke-width:0.0352777"
       id="path1481"
       inkscape:connector-curvature="0" />
    <path
       d="m 116.1635,85.216172 h -0.0374 0.0378 -2.7e-4"
       style="fill:#4b5bb2;fill-opacity:1;fill-rule:nonzero;stroke:none;stroke-width:0.0352777"
       id="path1483"
       inkscape:connector-curvature="0" />
    <path
       d="m 116.12611,85.216172 v 0 l -0.0116,-15.21178 15.71201,-15.737062 15.24918,-0.01164 -27.80983,27.853216 -3.14219,0.0024 0.002,3.104799"
       style="fill:#3d398a;fill-opacity:1;fill-rule:nonzero;stroke:none;stroke-width:0.0352777"
       id="path1485"
       inkscape:connector-curvature="0" />
    <path
       d="m 116.12611,85.216172 v 0 l -0.002,-3.104798 3.14219,-0.0024 -3.10233,3.107266 h -0.0374"
       style="fill:#332e66;fill-opacity:1;fill-rule:nonzero;stroke:none;stroke-width:0.0352777"
       id="path1487"
       inkscape:connector-curvature="0" />
    <path
       d="m 131.82648,54.26733 1.53988,-1.542343 15.24917,-0.01164 -1.53987,1.542344 -15.24918,0.01164"
       style="fill:#332e66;fill-opacity:1;fill-rule:nonzero;stroke:none;stroke-width:0.0352777"
       id="path1489"
       inkscape:connector-curvature="0" />
    <path
       d="m 122.81054,85.21229 10e-4,-0.0013 6.97195,-0.0053 -6.97336,0.0067 m 39.67304,-32.509884 0.42369,-2.64e-4 -0.42369,2.64e-4"
       style="fill:#4b5bb2;fill-opacity:1;fill-rule:nonzero;stroke:none;stroke-width:0.0352777"
       id="path1491"
       inkscape:connector-curvature="0" />
    <path
       d="m 125.91428,82.103965 27.81018,-27.853568 7.64293,-0.006 -27.80982,27.853568 -7.64329,0.006"
       style="fill:#3d398a;fill-opacity:1;fill-rule:nonzero;stroke:none;stroke-width:0.0352777"
       id="path1493"
       inkscape:connector-curvature="0" />
    <path
       d="m 122.81195,85.21088 3.10233,-3.106915 7.64329,-0.006 -3.10198,3.106915 -0.67169,7.94e-4 -6.97195,0.0053"
       style="fill:#332e66;fill-opacity:1;fill-rule:nonzero;stroke:none;stroke-width:0.0352777"
       id="path1495"
       inkscape:connector-curvature="0" />
    <path
       d="m 153.72446,54.250397 1.53846,-1.540933 7.22066,-0.0071 0.42369,-2.64e-4 -1.53988,1.542343 -7.64293,0.006"
       style="fill:#332e66;fill-opacity:1;fill-rule:nonzero;stroke:none;stroke-width:0.0352777"
       id="path1497"
       inkscape:connector-curvature="0" />
    <path
       d="m 161.53919,85.18054 0.26776,-2.64e-4 v 0 l -0.26776,2.64e-4 m 6.35247,-6.094235 -0.009,-11.530893 2.6e-4,-2.65e-4 0.009,11.530894 v 2.64e-4"
       style="fill:#4b5bb2;fill-opacity:1;fill-rule:nonzero;stroke:none;stroke-width:0.0352777"
       id="path1499"
       inkscape:connector-curvature="0" />
    <path
       d="m 152.83405,82.082799 15.04879,-14.527742 0.009,11.531248 -2.98273,2.986969 -12.07488,0.0095"
       style="fill:#3d398a;fill-opacity:1;fill-rule:nonzero;stroke:none;stroke-width:0.0352777"
       id="path1501"
       inkscape:connector-curvature="0" />
    <path
       d="m 149.61813,85.187597 3.21592,-3.104798 12.07488,-0.0095 -3.10198,3.106915 -0.26776,2.64e-4 -11.92106,0.0071"
       style="fill:#332e66;fill-opacity:1;fill-rule:nonzero;stroke:none;stroke-width:0.0352777"
       id="path1503"
       inkscape:connector-curvature="0" />
    <path
       d="m 170.90827,72.972665 h -57.81675 v -6.382453 h 57.81675 v 6.382453"
       style="fill:#e1c11e;fill-opacity:1;fill-rule:nonzero;stroke:none;stroke-width:0.0352777"
       id="path1505"
       inkscape:connector-curvature="0" />
    <g
       transform="matrix(0.03527778,0,0,-0.03527778,-26.836378,139.62544)"
       id="g1507">
      <g
         id="g1509"
         clip-path="url(#clipPath1513)">
        <path
           d="m 4170.93,1825.9 h -141.02 l 121.38,277.66 H 4292.3 L 4170.93,1825.9"
           style="fill:#ffffff;fill-opacity:1;fill-rule:nonzero;stroke:none"
           id="path1515"
           inkscape:connector-curvature="0" />
        <path
           d="m 4471.64,1825.9 h -141.01 l 121.38,277.66 h 141.01 L 4471.64,1825.9"
           style="fill:#ffffff;fill-opacity:1;fill-rule:nonzero;stroke:none"
           id="path1517"
           inkscape:connector-curvature="0" />
        <path
           d="m 4772.36,1825.9 h -141.01 l 121.37,277.66 h 141.02 L 4772.36,1825.9"
           style="fill:#ffffff;fill-opacity:1;fill-rule:nonzero;stroke:none"
           id="path1519"
           inkscape:connector-curvature="0" />
        <path
           d="m 5073.09,1825.9 h -141.02 l 121.38,277.66 h 141.01 L 5073.09,1825.9"
           style="fill:#ffffff;fill-opacity:1;fill-rule:nonzero;stroke:none"
           id="path1521"
           inkscape:connector-curvature="0" />
        <path
           d="m 5373.8,1825.9 h -141.02 l 121.39,277.66 h 141.01 L 5373.8,1825.9"
           style="fill:#ffffff;fill-opacity:1;fill-rule:nonzero;stroke:none"
           id="path1523"
           inkscape:connector-curvature="0" />
      </g>
    </g>
    <path
       d="m 108.44931,55.57049 -1.1303,0.04339 -0.66146,-0.209902 c -0.30374,-0.09631 -0.63535,0.01905 -0.81315,0.283634 l -0.0833,0.123473 3.30376,1.82527 0.63924,-1.370542 -1.25483,-0.695325"
       style="fill:#262040;fill-opacity:1;fill-rule:nonzero;stroke:none;stroke-width:0.0352777"
       id="path1525"
       inkscape:connector-curvature="0" />
    <path
       d="m 109.06597,57.664932 -3.32987,-1.839383 0.11641,-0.210609 c 0.0229,-0.04127 0.0755,-0.05644 0.11677,-0.03387 l 3.25508,1.798108 -0.15839,0.28575"
       style="fill:#262040;fill-opacity:1;fill-rule:nonzero;stroke:none;stroke-width:0.0352777"
       id="path1527"
       inkscape:connector-curvature="0" />
    <path
       d="m 109.70414,56.265815 0.87277,-1.510593 -0.87277,-1.559277 -1.25483,2.374545 1.25483,0.695325"
       style="fill:#e25e68;fill-opacity:1;fill-rule:nonzero;stroke:none;stroke-width:0.0352777"
       id="path1529"
       inkscape:connector-curvature="0" />
    <path
       d="m 116.54309,47.576547 c 0,0 -4.70887,-1.35114 -5.16219,-0.07973 -0.45332,1.27141 -3.20041,6.8961 -3.20041,6.8961 l 2.05035,1.06962 3.07516,-5.341408 4.13773,-0.359833 -0.90064,-2.184752"
       style="fill:#262040;fill-opacity:1;fill-rule:nonzero;stroke:none;stroke-width:0.0352777"
       id="path1531"
       inkscape:connector-curvature="0" />
    <path
       d="m 112.7151,57.284639 -0.92181,0.587375 -0.68015,0.137231 c -0.31292,0.06314 -0.54646,0.324908 -0.57397,0.642408 l -0.013,0.148519 3.77472,-0.006 -0.10583,-1.508125 -1.47991,-0.0013"
       style="fill:#262040;fill-opacity:1;fill-rule:nonzero;stroke:none;stroke-width:0.0352777"
       id="path1533"
       inkscape:connector-curvature="0" />
    <path
       d="m 114.31565,58.819222 -3.80435,0.0056 -2.7e-4,-0.240594 c 0,-0.04762 0.0384,-0.08608 0.0861,-0.08608 l 3.71828,-0.006 2.6e-4,0.327025"
       style="fill:#262040;fill-opacity:1;fill-rule:nonzero;stroke:none;stroke-width:0.0352777"
       id="path1535"
       inkscape:connector-curvature="0" />
    <path
       d="m 114.195,57.286049 0.12065,-2.530827 -1.50353,-0.169333 -0.097,2.69875 1.4799,0.0013"
       style="fill:#e25e68;fill-opacity:1;fill-rule:nonzero;stroke:none;stroke-width:0.0352777"
       id="path1537"
       inkscape:connector-curvature="0" />
    <path
       d="m 117.1788,47.360295 -4.43795,0.202494 c 0,0 -0.63817,0.03493 -0.59548,1.528939 0.043,1.494012 0.0388,7.506404 0.0388,7.506404 l 2.13148,0.07373 0.40782,-6.29779 4.44253,-0.05468 c 0.93662,-0.01164 1.80763,-0.548571 2.17805,-1.408642 0.14181,-0.328789 0.2099,-0.697796 0.12241,-1.085498 l -4.28766,-0.46496"
       style="fill:#342e66;fill-opacity:1;fill-rule:nonzero;stroke:none;stroke-width:0.0352777"
       id="path1539"
       inkscape:connector-curvature="0" />
    <path
       d="m 112.96734,46.465297 c 0.001,0.421217 -0.28469,0.485068 -0.70591,0.485775 -0.42086,0.0011 -0.81844,-0.06138 -0.81915,-0.4826 -10e-4,-0.421217 0.34008,-0.76341 0.76094,-0.764117 0.42087,-0.0011 0.76341,0.339725 0.76412,0.760942"
       style="fill:#d6968e;fill-opacity:1;fill-rule:nonzero;stroke:none;stroke-width:0.0352777"
       id="path1541"
       inkscape:connector-curvature="0" />
    <path
       d="m 113.50321,46.895687 -0.88195,0.0019 c -0.23001,7.93e-4 -0.41874,-0.187325 -0.4191,-0.417687 -7.9e-4,-0.230365 0.18733,-0.4191 0.41804,-0.419455 l 0.88124,-0.0019 c 0.23001,-2.65e-4 0.41875,0.187677 0.4191,0.417687 2.7e-4,0.230365 -0.18732,0.4191 -0.41733,0.419455"
       style="fill:#d6968e;fill-opacity:1;fill-rule:nonzero;stroke:none;stroke-width:0.0352777"
       id="path1543"
       inkscape:connector-curvature="0" />
    <path
       d="m 113.46899,46.98529 -0.29387,-1.442508 3.62303,-0.394758 0.72496,-4.233332 c 0.073,-0.384881 0.63006,-0.862189 1.01494,-0.789164 l -0.11077,-0.0314 c 0.38453,0.07303 0.73801,0.519995 0.66499,0.904875 l -0.70521,5.064477 c -0.0519,0.27305 -0.25858,0.490715 -0.52916,0.556683 l -4.38891,0.365125"
       style="fill:#baacdd;fill-opacity:1;fill-rule:nonzero;stroke:none;stroke-width:0.0352777"
       id="path1545"
       inkscape:connector-curvature="0" />
    <path
       d="m 120.70693,40.219014 c 0.0748,0.006 0.14817,0.02293 0.21837,0.05009 l 0.036,0.01411 c 0.6223,0.243064 1.04317,0.91052 1.07139,1.535644 l -0.56621,6.006393 c -3.75461,-0.03246 -4.28766,-0.46496 -4.28766,-0.46496 l 0.29845,-6.144331 c 0.0455,-0.579261 0.3115,-1.124656 0.97155,-1.179336 l 2.25813,0.182386"
       style="fill:#ccc0e5;fill-opacity:1;fill-rule:nonzero;stroke:none;stroke-width:0.0352777"
       id="path1547"
       inkscape:connector-curvature="0" />
    <path
       d="m 116.57273,46.937665 c 0.0289,0.420159 -0.25153,0.502709 -0.67205,0.531284 -0.42015,0.02893 -0.82091,-0.0067 -0.84948,-0.42686 -0.0289,-0.420159 0.28857,-0.784225 0.70837,-0.813152 0.42016,-0.02858 0.78458,0.28857 0.81316,0.708728"
       style="fill:#e25e68;fill-opacity:1;fill-rule:nonzero;stroke:none;stroke-width:0.0352777"
       id="path1549"
       inkscape:connector-curvature="0" />
    <path
       d="m 117.13576,47.331365 -0.87948,0.06068 c -0.2293,0.01553 -0.43038,-0.159456 -0.44591,-0.389115 -0.0159,-0.229658 0.15911,-0.430741 0.38876,-0.446265 l 0.87913,-0.06033 c 0.23001,-0.01587 0.43074,0.159105 0.44661,0.388763 0.0155,0.229659 -0.15945,0.430742 -0.38911,0.446262"
       style="fill:#e25e68;fill-opacity:1;fill-rule:nonzero;stroke:none;stroke-width:0.0352777"
       id="path1551"
       inkscape:connector-curvature="0" />
    <path
       d="m 117.10754,47.423089 -0.38876,-1.419932 3.94829,-0.634645 -0.22472,-3.671713 c 0.0476,-0.38876 0.47378,-0.825852 0.86254,-0.77858 0.38876,0.04727 0.77117,0.4699 0.7239,0.858661 l 0.28434,4.39914 c -0.0335,0.276225 -0.22543,0.507294 -0.49036,0.590902 l -4.71523,0.656167"
       style="fill:#ccc0e5;fill-opacity:1;fill-rule:nonzero;stroke:none;stroke-width:0.0352777"
       id="path1553"
       inkscape:connector-curvature="0" />
    <path
       d="m 110.27564,42.544878 4.30848,0.406046 c 0.14146,0.01341 0.2547,0.124179 0.27128,0.26529 l 0.45227,3.882318 c 0.0219,0.1905 -0.13724,0.353132 -0.32809,0.33514 l -4.37974,-0.413102 c -0.14358,-0.01341 -0.25752,-0.127 -0.27164,-0.270581 l -0.381,-3.875617 c -0.0183,-0.188735 0.14006,-0.347485 0.32844,-0.329494"
       style="fill:#19181f;fill-opacity:1;fill-rule:nonzero;stroke:none;stroke-width:0.0352777"
       id="path1555"
       inkscape:connector-curvature="0" />
    <path
       d="m 110.02764,42.52124 4.30848,0.4064 c 0.14146,0.01342 0.2547,0.123825 0.27093,0.26529 l 0.45226,3.882319 c 0.0222,0.1905 -0.13688,0.353131 -0.32773,0.33514 l -4.38009,-0.413102 c -0.14358,-0.01376 -0.25753,-0.127 -0.27164,-0.270934 l -0.38065,-3.875264 c -0.0183,-0.188736 0.1397,-0.347486 0.32844,-0.329849"
       style="fill:#242837;fill-opacity:1;fill-rule:nonzero;stroke:none;stroke-width:0.0352777"
       id="path1557"
       inkscape:connector-curvature="0" />
    <path
       d="m 115.18807,47.125345 2.94358,0.277635 c 0.09,0.0085 0.15558,0.08819 0.14746,0.1778 -0.009,0.08996 -0.0882,0.155575 -0.1778,0.147109 l -3.12173,-0.282927 0.20849,-0.319617"
       style="fill:#19181f;fill-opacity:1;fill-rule:nonzero;stroke:none;stroke-width:0.0352777"
       id="path1559"
       inkscape:connector-curvature="0" />
    <path
       d="m 112.49709,44.876739 c -0.0243,0.258939 -0.25471,0.449439 -0.51365,0.425098 -0.25929,-0.02469 -0.44979,-0.254355 -0.4251,-0.513647 0.024,-0.259291 0.25436,-0.449791 0.51365,-0.425095 0.25894,0.02434 0.44944,0.254352 0.4251,0.513644"
       style="fill:#ffffff;fill-opacity:1;fill-rule:nonzero;stroke:none;stroke-width:0.0352777"
       id="path1561"
       inkscape:connector-curvature="0" />
    <path
       d="m 120.30547,42.543465 0.097,2.760488 -3.6837,0.699204 3.24626,-1.013883 0.34043,-2.445809"
       style="fill:#baacdd;fill-opacity:1;fill-rule:nonzero;stroke:none;stroke-width:0.0352777"
       id="path1563"
       inkscape:connector-curvature="0" />
    <path
       d="m 118.35178,39.85283 0.24589,0.660753 c 0.0889,0.238125 0.30939,0.40252 0.56303,0.419806 0.4819,0.03245 0.82833,-0.455084 0.63924,-0.899584 l -0.4318,-1.014941 -1.01636,0.833966"
       style="fill:#e25e68;fill-opacity:1;fill-rule:nonzero;stroke:none;stroke-width:0.0352777"
       id="path1565"
       inkscape:connector-curvature="0" />
    <path
       d="m 118.57086,40.441264 c 0,0 1.2132,-0.229306 1.0347,-1.290109 -0.17816,-1.060802 -1.31904,-0.233186 -1.31904,-0.233186 l 0.11148,1.059039 0.17286,0.464256"
       style="fill:#d84a55;fill-opacity:1;fill-rule:nonzero;stroke:none;stroke-width:0.0352777"
       id="path1567"
       inkscape:connector-curvature="0" />
    <path
       d="m 116.69902,37.266969 c -0.4452,0.952148 -0.0342,2.08527 0.91828,2.530123 0.95215,0.445558 2.08492,0.03422 2.53012,-0.917928 0.44521,-0.952147 0.0342,-2.084917 -0.91792,-2.530475 -0.95215,-0.444853 -2.08492,-0.03387 -2.53048,0.91828"
       style="fill:#e25e68;fill-opacity:1;fill-rule:nonzero;stroke:none;stroke-width:0.0352777"
       id="path1569"
       inkscape:connector-curvature="0" />
    <g
       transform="matrix(0.03527778,0,0,-0.03527778,-26.836378,139.62544)"
       id="g1571">
      <g
         id="g1573"
         clip-path="url(#clipPath1577)">
        <path
           d="m 4137.61,2868.01 c 0,0 -8.5,-43.21 23.27,-44.16 31.77,-0.94 14.47,81.07 14.47,81.07 l -50.27,50.59 -76.94,-18.93 7.64,-49.74 c 0,0 12.24,-6.49 78.37,4.41 l 3.46,-23.24"
           style="fill:#342e66;fill-opacity:1;fill-rule:nonzero;stroke:none"
           id="path1579"
           inkscape:connector-curvature="0" />
        <path
           d="m 4106.21,2901.83 25.26,-36.96 21.79,24.07 z"
           style="fill:#342e66;fill-opacity:1;fill-rule:nonzero;stroke:none"
           id="path1581"
           inkscape:connector-curvature="0" />
      </g>
    </g>
    <path
       d="m 118.82945,38.094586 c -0.12559,0.268817 -0.01,0.589139 0.25964,0.715081 0.26917,0.125941 0.58949,0.0095 0.71543,-0.259292 0.12559,-0.269522 0.01,-0.589492 -0.25964,-0.715433 -0.26917,-0.125942 -0.58914,-0.0099 -0.71543,0.259644"
       style="fill:#e25e68;fill-opacity:1;fill-rule:nonzero;stroke:none;stroke-width:0.0352777"
       id="path1583"
       inkscape:connector-curvature="0" />
    <path
       d="m 116.32896,37.755567 c 0,0 -0.41134,-1.500364 0.56127,-2.428875 0.80221,-0.765528 2.11349,-0.716139 2.82539,0.134055 0.33444,0.399345 0.60325,1.000478 0.62795,1.904295 l -4.01461,0.390525"
       style="fill:#e1c11e;fill-opacity:1;fill-rule:nonzero;stroke:none;stroke-width:0.0352777"
       id="path1585"
       inkscape:connector-curvature="0" />
    <path
       d="m 116.58507,37.729814 -0.0116,-0.936625 v -0.0049 c 0,-0.208492 0.16404,-0.381 0.37289,-0.390878 l 0.0187,-3.44e-4 c 0.20003,0 0.36936,0.151342 0.38947,0.352425 l 0.0935,0.934508 0.0984,-0.0099 -0.0935,-0.934509 c -0.0254,-0.251883 -0.23741,-0.441325 -0.48789,-0.441325 l -0.0233,7.15e-4 c -0.26141,0.01199 -0.46708,0.227894 -0.46708,0.489303 v 0.0063 l 0.0116,0.936272 0.0988,-0.0011"
       style="fill:#e3981f;fill-opacity:1;fill-rule:nonzero;stroke:none;stroke-width:0.0352777"
       id="path1587"
       inkscape:connector-curvature="0" />
    <path
       d="m 120.32487,37.168192 -4.36774,0.4191 c -0.10866,0.01058 -0.18838,0.106891 -0.17815,0.215547 0.0106,0.108655 0.10724,0.188383 0.2159,0.178153 l 4.36774,-0.4191 c 0.10865,-0.01058 0.18803,-0.107245 0.1778,-0.2159 -0.0106,-0.108656 -0.10689,-0.188384 -0.21555,-0.1778"
       style="fill:#ffffff;fill-opacity:1;fill-rule:nonzero;stroke:none;stroke-width:0.0352777"
       id="path1589"
       inkscape:connector-curvature="0" />
    <path
       d="m 160.10833,87.972424 0.97895,0.948618 -1.11583,0.60043 -0.95638,-0.936625 1.09326,-0.612423"
       style="fill:#e25e68;fill-opacity:1;fill-rule:nonzero;stroke:none;stroke-width:0.0352777"
       id="path1591"
       inkscape:connector-curvature="0" />
    <path
       d="m 153.21681,80.887234 0.65405,2.895248 c 0.13123,0.579967 0.38312,1.137002 0.74542,1.647473 l 4.30671,3.869267 1.70321,-1.387475 -3.67735,-3.893963 -1.34726,-5.134679 -2.38478,2.004129"
       style="fill:#262040;fill-opacity:1;fill-rule:nonzero;stroke:none;stroke-width:0.0352777"
       id="path1593"
       inkscape:connector-curvature="0" />
    <path
       d="m 159.93864,89.493955 -0.35278,1.12536 -0.40287,0.560565 c -0.18556,0.257879 -0.17851,0.606777 0.0166,0.85725 l 0.091,0.117121 2.74849,-2.560461 -1.0989,-1.027993 -1.00154,0.928158"
       style="fill:#262040;fill-opacity:1;fill-rule:nonzero;stroke:none;stroke-width:0.0352777"
       id="path1595"
       inkscape:connector-curvature="0" />
    <path
       d="m 162.06659,89.601905 -2.76965,2.580217 -0.2219,-0.237773 2.76966,-2.580569 0.22189,0.238125"
       style="fill:#262040;fill-opacity:1;fill-rule:nonzero;stroke:none;stroke-width:0.0352777"
       id="path1597"
       inkscape:connector-curvature="0" />
    <path
       d="m 150.69163,89.733842 -0.36724,1.226257 -1.26154,-0.338315 0.36866,-1.204029 1.26012,0.316087"
       style="fill:#e25e68;fill-opacity:1;fill-rule:nonzero;stroke:none;stroke-width:0.0352777"
       id="path1599"
       inkscape:connector-curvature="0" />
    <path
       d="m 152.38214,77.657555 -3.53236,11.941527 2.22885,0.556332 1.9886,-5.986288 2.44299,-3.916537 c 0.12382,-0.17498 0.24589,-0.358072 0.3489,-0.547159 0.19579,-0.358423 0.28363,-0.7493 0.2794,-1.141238 l -0.008,-0.776816 -3.74791,-0.129821"
       style="fill:#342e66;fill-opacity:1;fill-rule:nonzero;stroke:none;stroke-width:0.0352777"
       id="path1601"
       inkscape:connector-curvature="0" />
    <path
       d="m 149.13588,90.503957 -1.11478,0.411692 -0.69532,0.024 c -0.31927,0.01093 -0.59338,0.231421 -0.67275,0.541161 l -0.037,0.144639 3.73344,0.614186 0.14323,-1.508832 -1.35678,-0.226835"
       style="fill:#262040;fill-opacity:1;fill-rule:nonzero;stroke:none;stroke-width:0.0352777"
       id="path1603"
       inkscape:connector-curvature="0" />
    <path
       d="m 150.36002,92.266434 -3.76273,-0.619125 0.0529,-0.323144 3.76308,0.618774 -0.0533,0.323495"
       style="fill:#262040;fill-opacity:1;fill-rule:nonzero;stroke:none;stroke-width:0.0352777"
       id="path1605"
       inkscape:connector-curvature="0" />
    <path
       d="m 147.45172,65.528703 -1.42769,2.227792 0.68439,0.491064 1.47743,-2.356906 -0.73413,-0.36195"
       style="fill:#3c48a5;fill-opacity:1;fill-rule:nonzero;stroke:none;stroke-width:0.0352777"
       id="path1607"
       inkscape:connector-curvature="0" />
    <path
       d="m 145.59752,61.836882 c 0,0 0.65969,2.761546 4.00297,3.848455 0.0963,0.03104 0.16968,0.112183 0.18309,0.212725 0.0427,0.319616 0.043,1.010708 -0.69603,1.21567 -0.0702,0.01939 -0.14782,0.0053 -0.2092,-0.03316 -0.51117,-0.320323 -3.02613,-1.7907 -5.46735,-1.366308 l 2.18652,-3.877382"
       style="fill:#4255ae;fill-opacity:1;fill-rule:nonzero;stroke:none;stroke-width:0.0352777"
       id="path1609"
       inkscape:connector-curvature="0" />
    <path
       d="m 145.59752,61.836882 c 0,0 -0.61278,2.75449 -2.18652,3.877382 0,0 0.2219,-2.414765 2.18652,-3.877382"
       style="fill:#3c48a5;fill-opacity:1;fill-rule:nonzero;stroke:none;stroke-width:0.0352777"
       id="path1611"
       inkscape:connector-curvature="0" />
    <path
       d="m 145.55871,67.611855 c -0.10336,0.506587 0.31362,1.125009 0.82056,1.228725 0.50659,0.103717 1.00154,-0.223308 1.10526,-0.729898 0.10371,-0.506942 -0.31398,-1.125712 -0.82056,-1.229077 -0.50695,-0.103716 -1.00154,0.223309 -1.10526,0.73025"
       style="fill:#e25e68;fill-opacity:1;fill-rule:nonzero;stroke:none;stroke-width:0.0352777"
       id="path1613"
       inkscape:connector-curvature="0" />
    <path
       d="m 148.24123,69.099517 -0.98989,-1.033991 -0.64629,0.795514 1.63618,1.199444"
       style="fill:#e25e68;fill-opacity:1;fill-rule:nonzero;stroke:none;stroke-width:0.0352777"
       id="path1615"
       inkscape:connector-curvature="0" />
    <path
       d="m 148.0839,68.143139 -1.04634,1.55575 2.86067,2.618316 c 0.17498,0.05009 0.35701,0.06738 0.53799,0.05221 l 3.77719,-0.489656 c 0.59513,-0.02822 1.05481,-0.533752 1.02658,-1.128887 -0.0282,-0.59549 0.0857,-1.456621 -0.50906,-1.428398 l -4.3889,0.901348 -2.25813,-2.080683"
       style="fill:#baacdd;fill-opacity:1;fill-rule:nonzero;stroke:none;stroke-width:0.0352777"
       id="path1617"
       inkscape:connector-curvature="0" />
    <path
       d="m 156.5555,71.712542 c 0.10089,-0.825145 -0.27376,-1.642178 -0.97367,-2.09056 -0.31467,-0.201435 -0.62653,-0.337608 -0.8509,-0.299508 -0.75353,0.127352 -1.52788,0.46849 -1.85984,1.485548 -0.56339,1.729317 -0.72461,6.84177 -0.72461,6.84177 l 4.04919,0.137584 0.35983,-6.074834"
       style="fill:#ccc0e5;fill-opacity:1;fill-rule:nonzero;stroke:none;stroke-width:0.0352777"
       id="path1619"
       inkscape:connector-curvature="0" />
    <path
       d="m 155.06078,71.841307 1.21744,4.473927 0.24624,-3.795535 z"
       style="fill:#baacdd;fill-opacity:1;fill-rule:nonzero;stroke:none;stroke-width:0.0352777"
       id="path1621"
       inkscape:connector-curvature="0" />
    <path
       d="m 160.02366,80.669924 c 0.38276,-0.348192 0.41063,-1.09361 0.0624,-1.476375 -0.34784,-0.382765 -0.94051,-0.410634 -1.32292,-0.06279 -0.38311,0.347837 -0.41098,1.09361 -0.0628,1.476021 0.34784,0.382764 0.94015,0.411339 1.32327,0.06315"
       style="fill:#e25e68;fill-opacity:1;fill-rule:nonzero;stroke:none;stroke-width:0.0352777"
       id="path1623"
       inkscape:connector-curvature="0" />
    <path
       d="m 158.18639,77.48293 0.73801,1.821744 0.99166,-0.260702 -0.61313,-1.934282"
       style="fill:#e25e68;fill-opacity:1;fill-rule:nonzero;stroke:none;stroke-width:0.0352777"
       id="path1625"
       inkscape:connector-curvature="0" />
    <path
       d="m 158.23331,78.888397 2.02742,-0.445558 -1.37478,-4.702882 c -0.0508,-0.174273 -0.13335,-0.33796 -0.24236,-0.482952 l -2.52483,-3.142546 c -0.34113,-0.488244 -0.91581,-0.401108 -1.40476,-0.06032 -0.4886,0.341138 -0.60819,1.013531 -0.26741,1.502481 l 2.43135,2.923117 1.35537,4.408665"
       style="fill:#ccc0e5;fill-opacity:1;fill-rule:nonzero;stroke:none;stroke-width:0.0352777"
       id="path1627"
       inkscape:connector-curvature="0" />
    <path
       d="m 153.78267,68.70723 0.0769,0.709084 c 0.0279,0.25541 0.20285,0.471662 0.44768,0.551391 0.4639,0.152046 0.92533,-0.239183 0.85054,-0.72249 l -0.17074,-1.102783 -1.20438,0.564798"
       style="fill:#e25e68;fill-opacity:1;fill-rule:nonzero;stroke:none;stroke-width:0.0352777"
       id="path1629"
       inkscape:connector-curvature="0" />
    <path
       d="m 153.85146,69.338701 c 0,0 1.25024,-0.04092 1.33985,-1.125009 0.0892,-1.084437 -1.23931,-0.439205 -1.23931,-0.439205 l -0.15487,1.065739 0.0543,0.498475"
       style="fill:#d84a55;fill-opacity:1;fill-rule:nonzero;stroke:none;stroke-width:0.0352777"
       id="path1631"
       inkscape:connector-curvature="0" />
    <path
       d="m 152.80688,65.76083 c -0.6738,0.822677 -0.5528,2.035527 0.26988,2.708979 0.82232,0.673455 2.03553,0.553156 2.70898,-0.26952 0.67345,-0.823032 0.5528,-2.035527 -0.26987,-2.708982 -0.82268,-0.673804 -2.03518,-0.553154 -2.70899,0.269523"
       style="fill:#e25e68;fill-opacity:1;fill-rule:nonzero;stroke:none;stroke-width:0.0352777"
       id="path1633"
       inkscape:connector-curvature="0" />
    <g
       transform="matrix(0.03527778,0,0,-0.03527778,-26.836378,139.62544)"
       id="g1635">
      <g
         id="g1637"
         clip-path="url(#clipPath1641)">
        <path
           d="m 5151.44,2043.82 c 0,0 -19.1,-40.25 11.81,-49.09 30.9,-8.83 34.39,75.87 34.39,75.87 l -36.69,62.11 -80.14,0.61 -4.9,-50.67 c 0,0 10.38,-9.41 77.92,-15.19 l -2.39,-23.64"
           style="fill:#342e66;fill-opacity:1;fill-rule:nonzero;stroke:none"
           id="path1643"
           inkscape:connector-curvature="0" />
        <path
           d="m 5129.08,2084.79 15.57,-42.53 27.35,18.18 z"
           style="fill:#342e66;fill-opacity:1;fill-rule:nonzero;stroke:none"
           id="path1645"
           inkscape:connector-curvature="0" />
      </g>
    </g>
    <path
       d="m 154.68931,67.102445 c -0.1905,0.232479 -0.15628,0.575733 0.0762,0.765879 0.23283,0.1905 0.57538,0.156281 0.76588,-0.0762 0.1905,-0.232479 0.15628,-0.575379 -0.0766,-0.765879 -0.23248,-0.1905 -0.57502,-0.156281 -0.76552,0.0762"
       style="fill:#e25e68;fill-opacity:1;fill-rule:nonzero;stroke:none;stroke-width:0.0352777"
       id="path1647"
       inkscape:connector-curvature="0" />
    <path
       d="m 152.31088,66.312574 c 0,0 -0.0942,-1.570212 1.06186,-2.286704 0.95356,-0.590198 2.2412,-0.267406 2.7686,0.722135 0.24765,0.46496 0.38805,1.115835 0.22437,2.015419 l -4.05483,-0.45085"
       style="fill:#e1c11e;fill-opacity:1;fill-rule:nonzero;stroke:none;stroke-width:0.0352777"
       id="path1649"
       inkscape:connector-curvature="0" />
    <path
       d="m 152.56947,66.340797 0.18415,-0.929569 c 0.0367,-0.187679 0.20178,-0.318913 0.3877,-0.318913 l 0.0639,0.0053 c 0.19367,0.03105 0.33267,0.198615 0.33267,0.39088 l -0.002,0.04268 -0.1023,0.944033 0.0991,0.01093 0.1023,-0.944386 0.003,-0.05327 c 0,-0.240948 -0.17392,-0.450146 -0.41627,-0.489657 l -0.0801,-0.0063 c -0.23318,0 -0.43956,0.164042 -0.48577,0.399344 l -0.18415,0.929571 0.0981,0.01939"
       style="fill:#e3981f;fill-opacity:1;fill-rule:nonzero;stroke:none;stroke-width:0.0352777"
       id="path1651"
       inkscape:connector-curvature="0" />
    <path
       d="m 156.38793,66.564812 -4.41007,-0.496007 c -0.10972,-0.01236 -0.20885,0.06668 -0.22119,0.17639 -0.0124,0.109712 0.0667,0.208492 0.17638,0.220837 l 4.41008,0.496007 c 0.10971,0.01236 0.20884,-0.06632 0.22119,-0.176036 0.0123,-0.109714 -0.0667,-0.208846 -0.17639,-0.221191"
       style="fill:#ffffff;fill-opacity:1;fill-rule:nonzero;stroke:none;stroke-width:0.0352777"
       id="path1653"
       inkscape:connector-curvature="0" />
    <path
       d="m 182.95422,77.844526 -4.56283,4.498271 0.65616,0.665337 4.56283,-4.498269"
       style="fill:#3f4faa;fill-opacity:1;fill-rule:nonzero;stroke:none;stroke-width:0.0352777"
       id="path1655"
       inkscape:connector-curvature="0" />
    <path
       d="m 182.95422,73.037576 -4.56283,4.498271 0.65616,0.665337 4.56283,-4.498269"
       style="fill:#3f4faa;fill-opacity:1;fill-rule:nonzero;stroke:none;stroke-width:0.0352777"
       id="path1657"
       inkscape:connector-curvature="0" />
    <path
       d="m 182.95422,68.230626 -4.56283,4.498271 0.65616,0.665337 4.56283,-4.498269"
       style="fill:#3f4faa;fill-opacity:1;fill-rule:nonzero;stroke:none;stroke-width:0.0352777"
       id="path1659"
       inkscape:connector-curvature="0" />
    <path
       d="m 182.95422,63.423678 -4.56283,4.498269 0.65616,0.665337 4.56283,-4.498269"
       style="fill:#3f4faa;fill-opacity:1;fill-rule:nonzero;stroke:none;stroke-width:0.0352777"
       id="path1661"
       inkscape:connector-curvature="0" />
    <path
       d="m 182.95422,58.616728 -4.56283,4.498269 0.65616,0.66534 4.56283,-4.498272"
       style="fill:#3f4faa;fill-opacity:1;fill-rule:nonzero;stroke:none;stroke-width:0.0352777"
       id="path1663"
       inkscape:connector-curvature="0" />
    <path
       d="m 182.95422,53.809778 -4.56283,4.498269 0.65616,0.66534 4.56283,-4.498272"
       style="fill:#3f4faa;fill-opacity:1;fill-rule:nonzero;stroke:none;stroke-width:0.0352777"
       id="path1665"
       inkscape:connector-curvature="0" />
    <path
       d="m 182.95422,49.002828 -4.56283,4.498269 0.65616,0.66534 4.56283,-4.498272"
       style="fill:#3f4faa;fill-opacity:1;fill-rule:nonzero;stroke:none;stroke-width:0.0352777"
       id="path1667"
       inkscape:connector-curvature="0" />
    <path
       d="m 182.95422,44.195878 -4.56283,4.498269 0.65616,0.66534 4.56283,-4.498272"
       style="fill:#3f4faa;fill-opacity:1;fill-rule:nonzero;stroke:none;stroke-width:0.0352777"
       id="path1669"
       inkscape:connector-curvature="0" />
    <path
       d="m 182.95422,39.388928 -4.56283,4.498269 0.65616,0.66534 4.56283,-4.49827"
       style="fill:#3f4faa;fill-opacity:1;fill-rule:nonzero;stroke:none;stroke-width:0.0352777"
       id="path1671"
       inkscape:connector-curvature="0" />
    <path
       d="m 182.95422,34.581978 -4.56283,4.498269 0.65616,0.665339 4.56283,-4.498269"
       style="fill:#3f4faa;fill-opacity:1;fill-rule:nonzero;stroke:none;stroke-width:0.0352777"
       id="path1673"
       inkscape:connector-curvature="0" />
    <path
       d="m 182.95422,29.775028 -4.56283,4.498269 0.65616,0.665339 4.56283,-4.498269"
       style="fill:#3f4faa;fill-opacity:1;fill-rule:nonzero;stroke:none;stroke-width:0.0352777"
       id="path1675"
       inkscape:connector-curvature="0" />
    <path
       d="m 178.71947,78.335592 h 4.56283 v -0.934447 h -4.56283 z"
       style="fill:#3f4faa;fill-opacity:1;fill-rule:nonzero;stroke:none;stroke-width:0.0352777"
       id="path1677"
       inkscape:connector-curvature="0" />
    <path
       d="m 178.71947,73.528642 h 4.56283 v -0.934585 h -4.56283 z"
       style="fill:#3f4faa;fill-opacity:1;fill-rule:nonzero;stroke:none;stroke-width:0.0352777"
       id="path1679"
       inkscape:connector-curvature="0" />
    <path
       d="m 178.71947,68.721692 h 4.56283 v -0.934447 h -4.56283 z"
       style="fill:#3f4faa;fill-opacity:1;fill-rule:nonzero;stroke:none;stroke-width:0.0352777"
       id="path1681"
       inkscape:connector-curvature="0" />
    <path
       d="m 178.71947,63.914745 h 4.56283 v -0.934588 h -4.56283 z"
       style="fill:#3f4faa;fill-opacity:1;fill-rule:nonzero;stroke:none;stroke-width:0.0352777"
       id="path1683"
       inkscape:connector-curvature="0" />
    <path
       d="m 178.71947,59.107795 h 4.56283 v -0.93445 h -4.56283 z"
       style="fill:#3f4faa;fill-opacity:1;fill-rule:nonzero;stroke:none;stroke-width:0.0352777"
       id="path1685"
       inkscape:connector-curvature="0" />
    <path
       d="m 178.71947,54.300845 h 4.56283 v -0.934588 h -4.56283 z"
       style="fill:#3f4faa;fill-opacity:1;fill-rule:nonzero;stroke:none;stroke-width:0.0352777"
       id="path1687"
       inkscape:connector-curvature="0" />
    <path
       d="m 178.71947,49.493895 h 4.56283 v -0.93445 h -4.56283 z"
       style="fill:#3f4faa;fill-opacity:1;fill-rule:nonzero;stroke:none;stroke-width:0.0352777"
       id="path1689"
       inkscape:connector-curvature="0" />
    <path
       d="m 178.71947,44.686945 h 4.56283 v -0.93445 h -4.56283 z"
       style="fill:#3f4faa;fill-opacity:1;fill-rule:nonzero;stroke:none;stroke-width:0.0352777"
       id="path1691"
       inkscape:connector-curvature="0" />
    <path
       d="m 178.71947,39.879994 h 4.56283 v -0.934586 h -4.56283 z"
       style="fill:#3f4faa;fill-opacity:1;fill-rule:nonzero;stroke:none;stroke-width:0.0352777"
       id="path1693"
       inkscape:connector-curvature="0" />
    <path
       d="m 178.71947,35.073044 h 4.56283 v -0.934173 h -4.56283 z"
       style="fill:#3f4faa;fill-opacity:1;fill-rule:nonzero;stroke:none;stroke-width:0.0352777"
       id="path1695"
       inkscape:connector-curvature="0" />
    <path
       d="m 178.25204,83.977922 h 0.93445 V 30.876753 h -0.93445 z"
       style="fill:#4b5bb2;fill-opacity:1;fill-rule:nonzero;stroke:none;stroke-width:0.0352777"
       id="path1697"
       inkscape:connector-curvature="0" />
    <path
       d="m 182.81522,83.977922 h 0.93459 V 30.876753 h -0.93459 z"
       style="fill:#4b5bb2;fill-opacity:1;fill-rule:nonzero;stroke:none;stroke-width:0.0352777"
       id="path1699"
       inkscape:connector-curvature="0" />
    <path
       d="m 185.454,92.116151 h -9.08685 v -9.440686 h 9.08685 v 9.440686"
       style="fill:#342e66;fill-opacity:1;fill-rule:nonzero;stroke:none;stroke-width:0.0352777"
       id="path1701"
       inkscape:connector-curvature="0" />
    <path
       d="m 183.29464,30.876753 h -4.74909 c -0.8382,0 -1.5173,-0.67945 -1.5173,-1.517297 v -5.957005 c 0,-0.837848 0.6791,-1.517298 1.5173,-1.517298 h 4.74909 c 0.83785,0 1.5173,0.67945 1.5173,1.517298 v 5.957005 c 0,0.837847 -0.67945,1.517297 -1.5173,1.517297"
       style="fill:#3f4faa;fill-opacity:1;fill-rule:nonzero;stroke:none;stroke-width:0.0352777"
       id="path1703"
       inkscape:connector-curvature="0" />
    <path
       d="m 180.79451,28.259847 h -3.05682 v -4.206521 h 3.05682 c 0.63465,0 1.14935,0.514702 1.14935,1.149702 v 1.907117 c 0,0.635 -0.5147,1.149702 -1.14935,1.149702"
       style="fill:#3947a4;fill-opacity:1;fill-rule:nonzero;stroke:none;stroke-width:0.0352777"
       id="path1705"
       inkscape:connector-curvature="0" />
    <path
       d="m 148.25464,31.491292 3.65019,10.60344 0.72143,-0.248002 -3.65019,-10.603794"
       style="fill:#342e66;fill-opacity:1;fill-rule:nonzero;stroke:none;stroke-width:0.0352777"
       id="path1707"
       inkscape:connector-curvature="0" />
    <path
       d="m 145.77003,29.880861 -7.118,9.6139 0.61313,0.453672 7.11764,-9.6139"
       style="fill:#342e66;fill-opacity:1;fill-rule:nonzero;stroke:none;stroke-width:0.0352777"
       id="path1709"
       inkscape:connector-curvature="0" />
    <path
       d="m 148.20208,34.825042 7.35506,9.618132 c 0.80927,1.058333 0.60748,2.572104 -0.45085,3.381729 l -9.61813,7.354711 c -1.05834,0.809273 -2.57211,0.607483 -3.38138,-0.450499 l -7.35541,-9.618485 c -0.80928,-1.058333 -0.60749,-2.572102 0.45085,-3.381375 l 9.61848,-7.355416 c 1.05798,-0.809272 2.5721,-0.607131 3.38138,0.451203"
       style="fill:#e1c11e;fill-opacity:1;fill-rule:nonzero;stroke:none;stroke-width:0.0352777"
       id="path1711"
       inkscape:connector-curvature="0" />
    <path
       d="m 147.64822,36.634086 -0.15629,0.119592 6.01804,7.869412 c 0.24659,0.322792 0.36512,0.701324 0.36548,1.07809 -2.7e-4,0.535165 -0.24024,1.062919 -0.6978,1.413227 l -7.86976,6.018038 c -0.32279,0.246592 -0.70097,0.365477 -1.07809,0.365477 -0.53517,-2.65e-4 -1.06292,-0.23989 -1.41323,-0.697794 l -6.01768,-7.869414 c -0.24695,-0.322792 -0.36548,-0.701324 -0.36583,-1.07809 2.6e-4,-0.535517 0.24024,-1.063271 0.69779,-1.413227 l 7.86977,-6.018036 c 0.32279,-0.246592 0.70132,-0.365478 1.07809,-0.365478 0.53551,0 1.06292,0.239889 1.41322,0.697795 l 0.15629,-0.119592 0.15592,-0.119239 c -0.42686,-0.558094 -1.0735,-0.852311 -1.72543,-0.851958 -0.45932,0 -0.92393,0.145697 -1.31692,0.446264 l -7.86942,6.018036 c -0.55844,0.42686 -0.85231,1.07315 -0.85195,1.725435 -2.7e-4,0.459316 0.14569,0.923925 0.44626,1.316566 l 6.01768,7.869415 c 0.42686,0.558448 1.07351,0.85231 1.72544,0.85231 0.45967,0 0.92392,-0.14605 1.31692,-0.446616 l 7.86976,-6.017684 c 0.5581,-0.42686 0.85196,-1.073501 0.85161,-1.725435 2.6e-4,-0.459316 -0.1457,-0.923925 -0.44626,-1.316566 l -6.01769,-7.869767 -0.15592,0.119239"
       style="fill:#342e66;fill-opacity:1;fill-rule:nonzero;stroke:none;stroke-width:0.0352777"
       id="path1713"
       inkscape:connector-curvature="0" />
    <path
       d="m 146.71053,40.388347 -0.85055,6.001808 -1.82209,-0.243065 c 0.26952,-2.018945 0.49353,-3.98145 0.76411,-6.013096 z m -0.93204,7.977717 c -0.19014,1.428043 -2.35761,1.139118 -2.16711,-0.288925 0.19226,-1.440744 2.35938,-1.151819 2.16711,0.288925"
       style="fill:#342e66;fill-opacity:1;fill-rule:nonzero;stroke:none;stroke-width:0.0352777"
       id="path1715"
       inkscape:connector-curvature="0" />
    <path
       d="m 150.62566,29.209525 c 0,1.685219 -1.36631,3.051528 -3.05153,3.051528 -1.68557,0 -3.05153,-1.366309 -3.05153,-3.051528 0,-1.685219 1.36596,-3.051528 3.05153,-3.051528 1.68522,0 3.05153,1.366309 3.05153,3.051528"
       style="fill:#342e66;fill-opacity:1;fill-rule:nonzero;stroke:none;stroke-width:0.0352777"
       id="path1717"
       inkscape:connector-curvature="0" />
    <path
       d="m 149.73172,29.209525 c 0,1.191683 -0.9659,2.157589 -2.15759,2.157589 -1.19168,0 -2.15794,-0.965906 -2.15794,-2.157589 0,-1.191683 0.96626,-2.157589 2.15794,-2.157589 1.19169,0 2.15759,0.965906 2.15759,2.157589"
       style="fill:#3e3885;fill-opacity:1;fill-rule:nonzero;stroke:none;stroke-width:0.0352777"
       id="path1719"
       inkscape:connector-curvature="0" />
    <path
       d="m 159.07292,21.885153 h 0.93445 v -6.46825 h -0.93445 z"
       style="fill:#3f4faa;fill-opacity:1;fill-rule:nonzero;stroke:none;stroke-width:0.0352777"
       id="path1721"
       inkscape:connector-curvature="0" />
    <path
       d="m 153.27255,21.885153 h 0.93459 v -6.46825 h -0.93459 z"
       style="fill:#3f4faa;fill-opacity:1;fill-rule:nonzero;stroke:none;stroke-width:0.0352777"
       id="path1723"
       inkscape:connector-curvature="0" />
    <path
       d="m 164.85424,21.885153 h 0.93445 v -6.46825 h -0.93445 z"
       style="fill:#3f4faa;fill-opacity:1;fill-rule:nonzero;stroke:none;stroke-width:0.0352777"
       id="path1725"
       inkscape:connector-curvature="0" />
    <path
       d="m 171.27798,21.885153 h 0.93444 v -6.46825 h -0.93444 z"
       style="fill:#3f4faa;fill-opacity:1;fill-rule:nonzero;stroke:none;stroke-width:0.0352777"
       id="path1727"
       inkscape:connector-curvature="0" />
    <path
       d="m 177.27026,21.885153 h 0.93458 v -6.46825 h -0.93458 z"
       style="fill:#3f4faa;fill-opacity:1;fill-rule:nonzero;stroke:none;stroke-width:0.0352777"
       id="path1729"
       inkscape:connector-curvature="0" />
    <path
       d="m 183.48268,21.885153 h 0.93444 v -6.46825 h -0.93444 z"
       style="fill:#3f4faa;fill-opacity:1;fill-rule:nonzero;stroke:none;stroke-width:0.0352777"
       id="path1731"
       inkscape:connector-curvature="0" />
    <path
       d="m 189.58538,21.885153 h 0.93458 v -6.46825 h -0.93458 z"
       style="fill:#3f4faa;fill-opacity:1;fill-rule:nonzero;stroke:none;stroke-width:0.0352777"
       id="path1733"
       inkscape:connector-curvature="0" />
    <path
       d="m 153.77738,22.205828 6.1027,-6.46818 -0.6798,-0.640997 -6.10271,6.467827"
       style="fill:#3f4faa;fill-opacity:1;fill-rule:nonzero;stroke:none;stroke-width:0.0352777"
       id="path1735"
       inkscape:connector-curvature="0" />
    <path
       d="m 159.88008,22.205828 6.10235,-6.46818 -0.6798,-0.640997 -6.10235,6.467827"
       style="fill:#3f4faa;fill-opacity:1;fill-rule:nonzero;stroke:none;stroke-width:0.0352777"
       id="path1737"
       inkscape:connector-curvature="0" />
    <path
       d="m 165.98243,22.205828 6.1027,-6.46818 -0.6798,-0.640997 -6.1027,6.467827"
       style="fill:#3f4faa;fill-opacity:1;fill-rule:nonzero;stroke:none;stroke-width:0.0352777"
       id="path1739"
       inkscape:connector-curvature="0" />
    <path
       d="m 172.08513,22.205828 6.102,-6.46818 -0.67945,-0.640997 -6.10235,6.467827"
       style="fill:#3f4faa;fill-opacity:1;fill-rule:nonzero;stroke:none;stroke-width:0.0352777"
       id="path1741"
       inkscape:connector-curvature="0" />
    <path
       d="m 178.18713,22.205828 6.1027,-6.46818 -0.67945,-0.640997 -6.1027,6.467827"
       style="fill:#3f4faa;fill-opacity:1;fill-rule:nonzero;stroke:none;stroke-width:0.0352777"
       id="path1743"
       inkscape:connector-curvature="0" />
    <path
       d="m 184.28983,22.205828 6.1027,-6.46818 -0.6798,-0.640997 -6.10235,6.467827"
       style="fill:#3f4faa;fill-opacity:1;fill-rule:nonzero;stroke:none;stroke-width:0.0352777"
       id="path1745"
       inkscape:connector-curvature="0" />
    <path
       d="m 147.57413,21.885153 v 0.467431 h 49.75507 c 0.19015,0 0.36195,-0.115711 0.43321,-0.292453 0.0713,-0.176389 0.0282,-0.378883 -0.10865,-0.510822 l -6.69961,-6.46818 c -0.0871,-0.08431 -0.2032,-0.131234 -0.32455,-0.131234 h -37.90879 c -0.14182,0 -0.27729,0.06526 -0.36548,0.176389 l -5.14703,6.468181 c -0.11112,0.1397 -0.133,0.332669 -0.055,0.493888 0.0776,0.160867 0.242,0.264231 0.42086,0.264231 v -0.467431 l 0.36548,0.291042 5.00662,-6.291791 h 37.49463 l 5.73158,5.533672 h -48.59834 v 0.467077 l 0.36548,0.291042 -0.36548,-0.291042"
       style="fill:#4b5bb2;fill-opacity:1;fill-rule:nonzero;stroke:none;stroke-width:0.0352777"
       id="path1747"
       inkscape:connector-curvature="0" />
    <path
       d="m 147.1067,21.885153 v 7.324372 c 0,0.258233 0.2092,0.467431 0.46743,0.467431 0.25788,0 0.46708,-0.209198 0.46708,-0.467431 v -7.324372 c 0,-0.25788 -0.2092,-0.467077 -0.46708,-0.467077 -0.25823,0 -0.46743,0.209197 -0.46743,0.467077"
       style="fill:#4b5bb2;fill-opacity:1;fill-rule:nonzero;stroke:none;stroke-width:0.0352777"
       id="path1749"
       inkscape:connector-curvature="0" />
    <path
       d="m 121.26926,91.242322 3.48262,-9.00148 c 0.16616,-0.428977 0.77364,-0.428977 0.93945,0 l 3.48262,9.00148 h -7.90469"
       style="fill:#e1c11e;fill-opacity:1;fill-rule:nonzero;stroke:none;stroke-width:0.0352777"
       id="path1751"
       inkscape:connector-curvature="0" />
    <g
       transform="matrix(0.03527778,0,0,-0.03527778,-26.836378,139.62544)"
       id="g1753">
      <g
         id="g1755"
         clip-path="url(#clipPath1759)">
        <path
           d="m 4396.43,1517.63 h -175.29 v 54.15 h 175.29 v -54.15"
           style="fill:#f8f7f7;fill-opacity:1;fill-rule:nonzero;stroke:none"
           id="path1761"
           inkscape:connector-curvature="0" />
        <path
           d="m 4409.82,1415.28 h -198.26 v 54.16 h 198.26 v -54.16"
           style="fill:#f8f7f7;fill-opacity:1;fill-rule:nonzero;stroke:none"
           id="path1763"
           inkscape:connector-curvature="0" />
      </g>
    </g>
    <path
       d="m 129.85058,92.000792 h -9.21809 v -0.75847 h 9.21809 v 0.75847"
       style="fill:#d3b520;fill-opacity:1;fill-rule:nonzero;stroke:none;stroke-width:0.0352777"
       id="path1765"
       inkscape:connector-curvature="0" />
    <path
       d="m 171.84242,91.27019 3.48297,-9.001476 c 0.16581,-0.42898 0.77294,-0.42898 0.9391,0 l 3.48298,9.001476 h -7.90505"
       style="fill:#e1c11e;fill-opacity:1;fill-rule:nonzero;stroke:none;stroke-width:0.0352777"
       id="path1767"
       inkscape:connector-curvature="0" />
    <g
       transform="matrix(0.03527778,0,0,-0.03527778,-26.836378,139.62544)"
       id="g1769">
      <g
         id="g1771"
         clip-path="url(#clipPath1775)">
        <path
           d="m 5830,1516.84 h -175.29 v 54.15 H 5830 v -54.15"
           style="fill:#f8f7f7;fill-opacity:1;fill-rule:nonzero;stroke:none"
           id="path1777"
           inkscape:connector-curvature="0" />
        <path
           d="m 5843.39,1414.5 h -198.25 v 54.15 h 198.25 v -54.15"
           style="fill:#f8f7f7;fill-opacity:1;fill-rule:nonzero;stroke:none"
           id="path1779"
           inkscape:connector-curvature="0" />
      </g>
    </g>
    <path
       d="m 180.42374,92.028664 h -9.21773 V 91.27019 h 9.21773 v 0.758474"
       style="fill:#d3b520;fill-opacity:1;fill-rule:nonzero;stroke:none;stroke-width:0.0352777"
       id="path1781"
       inkscape:connector-curvature="0" />
    <path
       d="m 109.58525,76.197055 c 0,3.994854 -3.23814,7.233002 -7.23265,7.233002 -3.994497,0 -7.232645,-3.238148 -7.232645,-7.233002 0,-3.99415 3.238148,-7.232298 7.232645,-7.232298 3.99451,0 7.23265,3.238148 7.23265,7.232298"
       style="fill:#4b5bb2;fill-opacity:1;fill-rule:nonzero;stroke:none;stroke-width:0.0352777"
       id="path1783"
       inkscape:connector-curvature="0" />
    <path
       d="m 102.15223,73.619307 v 18.381485 c 0,0.110773 0.0896,0.200732 0.20037,0.200732 0.11078,0 0.20038,-0.08996 0.20038,-0.200732 V 73.619307 c 0,-0.110773 -0.0896,-0.200377 -0.20038,-0.200377 -0.11077,0 -0.20037,0.0896 -0.20037,0.200377"
       style="fill:#3f4faa;fill-opacity:1;fill-rule:nonzero;stroke:none;stroke-width:0.0352777"
       id="path1785"
       inkscape:connector-curvature="0" />
    <path
       d="m 99.39033,74.127307 2.8127,3.154185 c 0.0737,0.08255 0.20037,0.08996 0.28292,0.01622 0.0829,-0.07373 0.09,-0.200379 0.0162,-0.282929 l -2.812343,-3.154538 c -0.07373,-0.08255 -0.200728,-0.08996 -0.283278,-0.01622 -0.08255,0.07373 -0.08996,0.200379 -0.01622,0.283281"
       style="fill:#3f4faa;fill-opacity:1;fill-rule:nonzero;stroke:none;stroke-width:0.0352777"
       id="path1787"
       inkscape:connector-curvature="0" />
    <path
       d="m 104.70563,76.832759 c -0.10513,0.10513 -0.72601,0.749655 -1.32574,1.372658 -0.59831,0.6223 -1.17192,1.219555 -1.17192,1.219555 -0.0765,0.07973 -0.0741,0.206727 0.006,0.283279 0.0801,0.07691 0.20708,0.07408 0.28363,-0.0056 2.7e-4,-2.65e-4 0.14323,-0.149225 0.3616,-0.37606 0.65334,-0.680157 1.98437,-2.064457 2.13007,-2.210155 0.0787,-0.07832 0.0787,-0.205316 2.6e-4,-0.283633 -0.0783,-0.07832 -0.20531,-0.07832 -0.28363,0"
       style="fill:#3f4faa;fill-opacity:1;fill-rule:nonzero;stroke:none;stroke-width:0.0352777"
       id="path1789"
       inkscape:connector-curvature="0" />
    <path
       d="M 80.582336,92.378617 H 201.90332 c 0.11042,0 0.20038,-0.08996 0.20038,-0.200728 0,-0.110774 -0.09,-0.20038 -0.20038,-0.20038 H 80.582336 c -0.110773,0 -0.200377,0.08961 -0.200377,0.20038 0,0.11077 0.0896,0.200728 0.200377,0.200728"
       style="fill:#3f4faa;fill-opacity:1;fill-rule:nonzero;stroke:none;stroke-width:0.0352777"
       id="path1791"
       inkscape:connector-curvature="0" />
  </g>
</svg>
