<?xml version="1.0" encoding="iso-8859-1"?>
<!-- Generator: Adobe Illustrator 19.0.0, SVG Export Plug-In . SVG Version: 6.00 Build 0)  -->
<svg version="1.1" id="Layer_1" xmlns="http://www.w3.org/2000/svg" xmlns:xlink="http://www.w3.org/1999/xlink" x="0px" y="0px"
	 viewBox="0 0 497 497" style="enable-background:new 0 0 497 497;" xml:space="preserve">
<g>
	<path style="fill:#FBC4AC;" d="M117.424,352.912C54.722,380.201,50.706,438.435,50.706,497h66.718l28.33-72.044L117.424,352.912z"
		/>
	<path style="fill:#E3B098;" d="M121.901,364.298l-4.478-11.387C54.722,380.201,50.706,438.435,50.706,497h25
		C75.706,445.619,78.802,394.496,121.901,364.298z"/>
	<path style="fill:#FBC4AC;" d="M379.576,352.912c62.702,27.29,66.718,85.523,66.718,144.088h-66.718l-28.33-72.044L379.576,352.912
		z"/>
	<rect x="117.424" y="352.912" style="fill:#A36549;" width="262.152" height="144.088"/>
	<path style="fill:#E67A3A;" d="M441.454,131.555c14.586,27.946,22.293,58.941,22.293,91.086H33.253
		c0-32.147,7.708-63.143,22.295-91.089L441.454,131.555z"/>
	<circle style="fill:#FBC4AC;" cx="58.354" cy="222.642" r="41.928"/>
	<circle style="fill:#FBC4AC;" cx="438.646" cy="222.642" r="41.928"/>
	<path style="fill:#FF8840;" d="M265.616,425.548h-34.232c0,0-23.966,23.585,6.8,45.267c6.165,4.344,14.466,4.344,20.631,0
		C289.582,449.134,265.616,425.548,265.616,425.548z"/>
	<path style="fill:#E67A3A;" d="M258.185,470.815c-30.767-21.681-6.8-45.267-6.8-45.267h-20c0,0-23.966,23.585,6.8,45.267
		c6.062,4.272,14.185,4.333,20.315,0.204C258.396,470.949,258.288,470.887,258.185,470.815z"/>
	<ellipse style="fill:#FFCE1C;" cx="248.5" cy="402.473" rx="34.472" ry="26.587"/>
	<path style="fill:#ECB000;" d="M234.028,402.473c0-12.001,10.311-22.141,24.472-25.447c-3.166-0.739-6.522-1.14-10-1.14
		c-19.038,0-34.472,11.903-34.472,26.587c0,14.684,15.434,26.587,34.472,26.587c3.478,0,6.834-0.401,10-1.14
		C244.339,424.614,234.028,414.474,234.028,402.473z"/>
	<ellipse style="fill:#FF8840;" cx="248.5" cy="222.642" rx="190.146" ry="179.831"/>
	<path style="fill:#FBC4AC;" d="M107.434,139.9c-17.954,54.655,6.109,100.57,73.588,100.57h134.957
		c67.479,0,91.542-45.916,73.588-100.57L248.5,86.728L107.434,139.9z"/>
	<g id="XMLID_666_">
		<path style="fill:#3A484A;" d="M152.807,215.181c-4.143,0-7.5-3.358-7.5-7.5v-28.647c0-4.142,3.357-7.5,7.5-7.5s7.5,3.358,7.5,7.5
			v28.647C160.307,211.823,156.95,215.181,152.807,215.181z"/>
	</g>
	<path style="fill:#E67A3A;" d="M248.5,259.045c31.94,33.017,63.662,20.111,79.154,10.067c4.067-2.637,4.203-8.453,0.419-11.482
		c-21.959-17.579-21.973-85.53-79.573-49.949c-57.6-35.58-57.614,32.37-79.573,49.949c-3.784,3.029-3.648,8.845,0.419,11.482
		C184.838,279.155,216.56,292.061,248.5,259.045z"/>
	<g id="XMLID_665_">
		<path style="fill:#3A484A;" d="M248.5,243.486c-8.835,0-17.132-3.695-22.763-10.137c-2.727-3.119-2.408-7.857,0.711-10.583
			c3.119-2.726,7.857-2.408,10.582,0.711c2.782,3.183,6.963,5.008,11.47,5.008c4.506,0,8.687-1.825,11.469-5.008
			c2.726-3.119,7.464-3.437,10.582-0.711c3.119,2.726,3.438,7.464,0.711,10.583C265.631,239.791,257.335,243.486,248.5,243.486z"/>
	</g>
	<path style="fill:#9E9C9D;" d="M131.017,50.858C81.496,41.505,91.165,0.674,69.262,0.005S38.221,70.35,78.601,96.758
		S131.017,50.858,131.017,50.858z"/>
	<path style="fill:#9E9C9D;" d="M365.983,50.858c49.521-9.353,39.853-50.184,61.756-50.853c21.903-0.669,31.041,70.345-9.339,96.753
		S365.983,50.858,365.983,50.858z"/>
	<path style="fill:#D4D2D3;" d="M427.737,109.043c-7.953-11.322-17.151-21.975-27.537-31.797
		C359.607,38.853,305.732,17.71,248.5,17.71S137.393,38.853,96.799,77.245c-10.386,9.822-19.583,20.475-27.536,31.797l-0.008,0.001
		L248.5,124.472l179.245-15.428L427.737,109.043z"/>
	<path style="fill:#BAB8B9;" d="M109.255,109.044l0.008-0.001c7.953-11.322,17.15-21.975,27.536-31.797
		c35.829-33.885,82.005-54.322,131.701-58.657c-6.611-0.576-13.281-0.879-20-0.879c-57.232,0-111.107,21.144-151.701,59.536
		c-10.386,9.822-19.583,20.475-27.536,31.797l-0.008,0.001L248.5,124.472l20-1.721L109.255,109.044z"/>
	<path style="fill:#9E9C9D;" d="M69.255,139.9c-8.521,0-15.428-6.907-15.428-15.428v0c0-8.521,6.907-15.428,15.428-15.428h358.491
		c8.521,0,15.428,6.907,15.428,15.428v0c0,8.521-6.907,15.428-15.428,15.428H69.255z"/>
	<path style="fill:#FF8840;" d="M159.938,164.563h-14.263c-6.769,0-12.256,5.487-12.256,12.256c0,6.769,5.487,12.256,12.256,12.256
		h14.263c6.769,0,12.256-5.487,12.256-12.256C172.194,170.05,166.707,164.563,159.938,164.563z"/>
	<g id="XMLID_664_">
		<path style="fill:#3A484A;" d="M344.194,215.181c-4.143,0-7.5-3.358-7.5-7.5v-28.647c0-4.142,3.357-7.5,7.5-7.5s7.5,3.358,7.5,7.5
			v28.647C351.694,211.823,348.336,215.181,344.194,215.181z"/>
	</g>
	<path style="fill:#FF8840;" d="M337.062,164.563h14.263c6.769,0,12.256,5.487,12.256,12.256c0,6.769-5.487,12.256-12.256,12.256
		h-14.263c-6.769,0-12.256-5.487-12.256-12.256C324.806,170.05,330.293,164.563,337.062,164.563z"/>
</g>
<g>
</g>
<g>
</g>
<g>
</g>
<g>
</g>
<g>
</g>
<g>
</g>
<g>
</g>
<g>
</g>
<g>
</g>
<g>
</g>
<g>
</g>
<g>
</g>
<g>
</g>
<g>
</g>
<g>
</g>
</svg>
