<?xml version="1.0" encoding="UTF-8" standalone="no"?>
<svg
   xmlns:dc="http://purl.org/dc/elements/1.1/"
   xmlns:cc="http://creativecommons.org/ns#"
   xmlns:rdf="http://www.w3.org/1999/02/22-rdf-syntax-ns#"
   xmlns:svg="http://www.w3.org/2000/svg"
   xmlns="http://www.w3.org/2000/svg"
   xmlns:sodipodi="http://sodipodi.sourceforge.net/DTD/sodipodi-0.dtd"
   xmlns:inkscape="http://www.inkscape.org/namespaces/inkscape"
   inkscape:version="1.0beta2 (2b71d25, 2019-12-03)"
   sodipodi:docname="vraagteken_v2.svg"
   stroke-width="0"
   stroke="#000000"
   fill="#000000"
   xml:space="preserve"
   style="enable-background:new 0 0 31.357 31.357;"
   viewBox="0 0 31.357 31.357"
   height="100px"
   width="100px"
   y="0px"
   x="0px"
   id="IconsRepoEditor"
   version="1.1"><metadata
   id="metadata885"><rdf:RDF><cc:Work
       rdf:about=""><dc:format>image/svg+xml</dc:format><dc:type
         rdf:resource="http://purl.org/dc/dcmitype/StillImage" /></cc:Work></rdf:RDF></metadata><defs
   id="defs883" /><sodipodi:namedview
   inkscape:current-layer="IconsRepoEditor"
   inkscape:window-maximized="0"
   inkscape:window-y="0"
   inkscape:window-x="0"
   inkscape:cy="50"
   inkscape:cx="50"
   inkscape:zoom="5.82"
   showgrid="false"
   id="namedview881"
   inkscape:window-height="900"
   inkscape:window-width="1440"
   inkscape:pageshadow="2"
   inkscape:pageopacity="0"
   guidetolerance="10"
   gridtolerance="10"
   objecttolerance="10"
   borderopacity="1"
   inkscape:document-rotation="0"
   bordercolor="#666666"
   pagecolor="#ffffff" />

<g
   id="IconsRepo_bgCarrier" /> <path
   style="fill:#ffffff"
   id="path878"
   d="M15.255,0c5.424,0,10.764,2.498,10.764,8.473c0,5.51-6.314,7.629-7.67,9.62c-1.018,1.481-0.678,3.562-3.475,3.562 c-1.822,0-2.712-1.482-2.712-2.838c0-5.046,7.414-6.188,7.414-10.343c0-2.287-1.522-3.643-4.066-3.643 c-5.424,0-3.306,5.592-7.414,5.592c-1.483,0-2.756-0.89-2.756-2.584C5.339,3.683,10.084,0,15.255,0z M15.044,24.406 c1.904,0,3.475,1.566,3.475,3.476c0,1.91-1.568,3.476-3.475,3.476c-1.907,0-3.476-1.564-3.476-3.476 C11.568,25.973,13.137,24.406,15.044,24.406z" /> </svg>
